%TF.GenerationSoftware,KiCad,Pcbnew,9.0.6*%
%TF.CreationDate,2026-01-26T20:59:56+01:00*%
%TF.ProjectId,neptune-env,6e657074-756e-4652-9d65-6e762e6b6963,1.0*%
%TF.SameCoordinates,Original*%
%TF.FileFunction,Copper,L4,Inr*%
%TF.FilePolarity,Positive*%
%FSLAX46Y46*%
G04 Gerber Fmt 4.6, Leading zero omitted, Abs format (unit mm)*
G04 Created by KiCad (PCBNEW 9.0.6) date 2026-01-26 20:59:56*
%MOMM*%
%LPD*%
G01*
G04 APERTURE LIST*
%TA.AperFunction,ComponentPad*%
%ADD10C,0.800000*%
%TD*%
%TA.AperFunction,ComponentPad*%
%ADD11R,2.580000X1.000000*%
%TD*%
%TA.AperFunction,ViaPad*%
%ADD12C,0.500000*%
%TD*%
%TA.AperFunction,ViaPad*%
%ADD13C,0.600000*%
%TD*%
%TA.AperFunction,ViaPad*%
%ADD14C,0.800000*%
%TD*%
%TA.AperFunction,Conductor*%
%ADD15C,0.200000*%
%TD*%
G04 APERTURE END LIST*
D10*
%TO.N,Net-(U3-FORCE+)*%
%TO.C,TH2*%
X102862938Y-85300000D03*
%TO.N,Net-(U3-FORCE-)*%
X103862938Y-85300000D03*
%TD*%
%TO.N,Net-(U2-FORCE+)*%
%TO.C,TH1*%
X91362938Y-85300000D03*
%TO.N,Net-(U2-FORCE-)*%
X92362938Y-85300000D03*
%TD*%
%TO.N,Net-(U4-FORCE+)*%
%TO.C,TH3*%
X114362938Y-85300000D03*
%TO.N,Net-(U4-FORCE-)*%
X115362938Y-85300000D03*
%TD*%
D11*
%TO.N,/VOUT_A1*%
%TO.C,J3*%
X121472938Y-52084000D03*
X125642938Y-52084000D03*
%TO.N,unconnected-(J3-Pin_3-Pad3)*%
X121472938Y-54084000D03*
%TO.N,unconnected-(J3-Pin_4-Pad4)*%
X125642938Y-54084000D03*
%TO.N,unconnected-(J3-Pin_5-Pad5)*%
X121472938Y-56084000D03*
%TO.N,unconnected-(J3-Pin_6-Pad6)*%
X125642938Y-56084000D03*
%TO.N,/VOUT_B1*%
X121472938Y-58084000D03*
X125642938Y-58084000D03*
%TO.N,unconnected-(J3-Pin_9-Pad9)*%
X121472938Y-60084000D03*
%TO.N,unconnected-(J3-Pin_10-Pad10)*%
X125642938Y-60084000D03*
%TO.N,unconnected-(J3-Pin_11-Pad11)*%
X121472938Y-62084000D03*
%TO.N,unconnected-(J3-Pin_12-Pad12)*%
X125642938Y-62084000D03*
%TO.N,GND*%
X121472938Y-64084000D03*
X125642938Y-64084000D03*
X121472938Y-66084000D03*
X125642938Y-66084000D03*
%TO.N,unconnected-(J3-Pin_17-Pad17)*%
X121472938Y-68084000D03*
%TO.N,unconnected-(J3-Pin_18-Pad18)*%
X125642938Y-68084000D03*
%TO.N,unconnected-(J3-Pin_19-Pad19)*%
X121472938Y-70084000D03*
%TO.N,unconnected-(J3-Pin_20-Pad20)*%
X125642938Y-70084000D03*
%TD*%
%TO.N,/I2C_2_SDA*%
%TO.C,J2*%
X81082938Y-52084000D03*
%TO.N,unconnected-(J2-Pin_2-Pad2)*%
X85252938Y-52084000D03*
%TO.N,/I2C_2_SCL*%
X81082938Y-54084000D03*
%TO.N,unconnected-(J2-Pin_4-Pad4)*%
X85252938Y-54084000D03*
%TO.N,unconnected-(J2-Pin_5-Pad5)*%
X81082938Y-56084000D03*
%TO.N,GND*%
X85252938Y-56084000D03*
%TO.N,unconnected-(J2-Pin_7-Pad7)*%
X81082938Y-58084000D03*
%TO.N,GND*%
X85252938Y-58084000D03*
X81082938Y-60084000D03*
X85252938Y-60084000D03*
%TO.N,unconnected-(J2-Pin_11-Pad11)*%
X81082938Y-62084000D03*
%TO.N,unconnected-(J2-Pin_12-Pad12)*%
X85252938Y-62084000D03*
%TO.N,unconnected-(J2-Pin_13-Pad13)*%
X81082938Y-64084000D03*
%TO.N,unconnected-(J2-Pin_14-Pad14)*%
X85252938Y-64084000D03*
%TO.N,unconnected-(J2-Pin_15-Pad15)*%
X81082938Y-66084000D03*
%TO.N,unconnected-(J2-Pin_16-Pad16)*%
X85252938Y-66084000D03*
%TO.N,GND*%
X81082938Y-68084000D03*
X85252938Y-68084000D03*
X81082938Y-70084000D03*
X85252938Y-70084000D03*
%TD*%
D12*
%TO.N,/reset*%
X88633938Y-50368000D03*
X86448938Y-50368000D03*
D13*
X89501938Y-39395000D03*
D12*
%TO.N,GND*%
X109334418Y-37110000D03*
D13*
X93062938Y-81176500D03*
X101242938Y-75604000D03*
X88718500Y-44881000D03*
X90518500Y-45781000D03*
X91462938Y-80376500D03*
X104662938Y-76471000D03*
X114462938Y-78776500D03*
X91462938Y-78776500D03*
X87818500Y-47581000D03*
D12*
X111354418Y-39880000D03*
D13*
X91462938Y-81176500D03*
X104562938Y-79576500D03*
X115262938Y-81176500D03*
X96349418Y-45584000D03*
X104562938Y-78776500D03*
X93062938Y-78776500D03*
X102962938Y-81176500D03*
X116062938Y-79576500D03*
X102962938Y-79576500D03*
D14*
X122908938Y-49598000D03*
D13*
X116162938Y-76471000D03*
X88718500Y-47581000D03*
X113662938Y-80376500D03*
X89618500Y-44881000D03*
X93162938Y-76471000D03*
X90518500Y-47581000D03*
X114462938Y-80376500D03*
X88718500Y-45781000D03*
X103762938Y-79576500D03*
D12*
X100354418Y-39880000D03*
D13*
X113662938Y-81176500D03*
D12*
X91909000Y-42555000D03*
D14*
X123383938Y-43758000D03*
D13*
X102962938Y-80376500D03*
X92262938Y-80376500D03*
X103762938Y-78776500D03*
X89742938Y-75604000D03*
X102962938Y-78776500D03*
X90662938Y-79576500D03*
X87818500Y-46681000D03*
X115262938Y-79576500D03*
X90662938Y-80376500D03*
X114462938Y-81176500D03*
X87818500Y-45781000D03*
X116062938Y-80376500D03*
X93062938Y-79576500D03*
X89618500Y-45781000D03*
X114462938Y-79576500D03*
X104349418Y-45584000D03*
D12*
X103834418Y-37110000D03*
D13*
X102162938Y-79576500D03*
X89618500Y-47581000D03*
X91462938Y-79576500D03*
X115262938Y-78776500D03*
X103762938Y-81176500D03*
X93062938Y-80376500D03*
X89618500Y-46681000D03*
X92262938Y-79576500D03*
D12*
X85496000Y-48116000D03*
D13*
X92262938Y-81176500D03*
X90518500Y-44881000D03*
X116062938Y-78776500D03*
D12*
X84651938Y-44488000D03*
D13*
X102162938Y-81176500D03*
X113662938Y-78776500D03*
X90662938Y-78776500D03*
X104562938Y-81176500D03*
X90518500Y-46681000D03*
X102162938Y-80376500D03*
X90662938Y-81176500D03*
X88718500Y-46681000D03*
X93819938Y-39395000D03*
X92262938Y-78776500D03*
X87818500Y-44881000D03*
X116062938Y-81176500D03*
X113662938Y-79576500D03*
X103762938Y-80376500D03*
D14*
X117093938Y-43880000D03*
D13*
X115262938Y-80376500D03*
D12*
X105854418Y-39880000D03*
D13*
X102162938Y-78776500D03*
X104562938Y-80376500D03*
D12*
X98334418Y-37110000D03*
D13*
X112742938Y-75604000D03*
D12*
%TO.N,+3.3V*%
X105854418Y-38920000D03*
X97374418Y-37110000D03*
D14*
X110349418Y-47277000D03*
D12*
X102874418Y-37110000D03*
D13*
X89742938Y-76585000D03*
D12*
X108374418Y-37110000D03*
X111354418Y-38920000D03*
D13*
X112742938Y-76585000D03*
D12*
X85496000Y-49076000D03*
X100354418Y-38920000D03*
D14*
X117093938Y-40330000D03*
D12*
X90949000Y-42555000D03*
D13*
X101242938Y-76585000D03*
X102349418Y-45584000D03*
D12*
X89336938Y-50530000D03*
D14*
X121833938Y-43758000D03*
D12*
%TO.N,/SWDIO*%
X88118500Y-42750000D03*
%TO.N,/SWCLK*%
X87218500Y-42750000D03*
%TO.N,/USART1_RX*%
X89218500Y-42750000D03*
%TO.N,/USART1_TX*%
X90118500Y-42750000D03*
%TO.N,/I2C_2_SCL*%
X85694938Y-46267000D03*
%TO.N,SPI1_MISO*%
X120027938Y-79326500D03*
X101354418Y-42478000D03*
X95800438Y-79326500D03*
X106854418Y-42478000D03*
X95854418Y-42478000D03*
X107843938Y-83108000D03*
X93110000Y-46481000D03*
%TO.N,/I2C_2_SDA*%
X85688000Y-46976000D03*
%TO.N,/MAX31865_DRDY1*%
X92262938Y-76639000D03*
X87220938Y-52081000D03*
%TO.N,SPI1_SCK*%
X107654418Y-43285000D03*
X96800438Y-80626500D03*
X118800438Y-80626500D03*
X107100438Y-80626500D03*
X96654418Y-43285000D03*
X102154418Y-43285000D03*
X93110000Y-47281000D03*
%TO.N,/MAX31865_CS3*%
X91133469Y-52551531D03*
X118300438Y-79976500D03*
%TO.N,SPI1_MOSI*%
X105800438Y-83677000D03*
X97454418Y-40587500D03*
X95300438Y-81276500D03*
X93110000Y-45681000D03*
X108454418Y-40587500D03*
X117300438Y-83677000D03*
X102954418Y-40587500D03*
%TO.N,/MAX31865_CS2*%
X106800438Y-79976500D03*
X90419156Y-52329071D03*
%TO.N,/MAX31865_DRDY3*%
X88032438Y-52081000D03*
X115262938Y-76639000D03*
%TO.N,/MAX31865_CS1*%
X95300438Y-79976500D03*
X89754969Y-52108031D03*
%TO.N,/MAX31865_DRDY2*%
X103762938Y-76639000D03*
X88843938Y-52081000D03*
%TD*%
D15*
%TO.N,SPI1_MISO*%
X95430000Y-42478000D02*
X108005938Y-42478000D01*
X108005938Y-42478000D02*
X118631938Y-53104000D01*
X118631938Y-74251000D02*
X120027938Y-75647000D01*
X120027938Y-81888000D02*
X118807938Y-83108000D01*
X93923000Y-43985000D02*
X95430000Y-42478000D01*
X118807938Y-83108000D02*
X107843938Y-83108000D01*
X97940938Y-83108000D02*
X96023938Y-81191000D01*
X93626000Y-46481000D02*
X93923000Y-46184000D01*
X96023938Y-79550000D02*
X95800438Y-79326500D01*
X96023938Y-81191000D02*
X96023938Y-79550000D01*
X93923000Y-46184000D02*
X93923000Y-43985000D01*
X120027938Y-75647000D02*
X120027938Y-81888000D01*
X93110000Y-46481000D02*
X93626000Y-46481000D01*
X118631938Y-53104000D02*
X118631938Y-74251000D01*
X107843938Y-83108000D02*
X97940938Y-83108000D01*
%TO.N,/MAX31865_DRDY1*%
X92262938Y-75315000D02*
X92262938Y-76639000D01*
X87220938Y-70273000D02*
X92262938Y-75315000D01*
X87220938Y-52081000D02*
X87220938Y-70273000D01*
%TO.N,SPI1_SCK*%
X96800438Y-81147500D02*
X98201938Y-82549000D01*
X94805000Y-44286000D02*
X94805000Y-46572000D01*
X94096000Y-47281000D02*
X93110000Y-47281000D01*
X96800438Y-80626500D02*
X96800438Y-81147500D01*
X94805000Y-46572000D02*
X94096000Y-47281000D01*
X98201938Y-82549000D02*
X107093938Y-82549000D01*
X95806000Y-43285000D02*
X94805000Y-44286000D01*
X119440938Y-81621000D02*
X119440938Y-80644000D01*
X107654418Y-43285000D02*
X95806000Y-43285000D01*
X118053938Y-53684520D02*
X107654418Y-43285000D01*
X118512938Y-82549000D02*
X119440938Y-81621000D01*
X107100438Y-80626500D02*
X107100438Y-82542500D01*
X118053938Y-74504000D02*
X118053938Y-53684520D01*
X107100438Y-82542500D02*
X107093938Y-82549000D01*
X119440938Y-80644000D02*
X119440938Y-75891000D01*
X119423438Y-80626500D02*
X119440938Y-80644000D01*
X107093938Y-82549000D02*
X118512938Y-82549000D01*
X118800438Y-80626500D02*
X119423438Y-80626500D01*
X119440938Y-75891000D02*
X118053938Y-74504000D01*
%TO.N,SPI1_MOSI*%
X102954418Y-40587500D02*
X102954418Y-41698418D01*
X97453000Y-41700000D02*
X102956000Y-41700000D01*
X120580938Y-82114000D02*
X119017938Y-83677000D01*
X95079000Y-41700000D02*
X97453000Y-41700000D01*
X93110000Y-43669000D02*
X95079000Y-41700000D01*
X102956000Y-41700000D02*
X108453000Y-41700000D01*
X108454418Y-41698582D02*
X108453000Y-41700000D01*
X93110000Y-45681000D02*
X93110000Y-43669000D01*
X108454418Y-40587500D02*
X108454418Y-41698582D01*
X119210938Y-52455102D02*
X119210938Y-74015000D01*
X119210938Y-74015000D02*
X120580938Y-75385000D01*
X97700938Y-83677000D02*
X95300438Y-81276500D01*
X97454418Y-41698582D02*
X97453000Y-41700000D01*
X108453000Y-41700000D02*
X108455836Y-41700000D01*
X97454418Y-40587500D02*
X97454418Y-41698582D01*
X119017938Y-83677000D02*
X97700938Y-83677000D01*
X102954418Y-41698418D02*
X102956000Y-41700000D01*
X108455836Y-41700000D02*
X119210938Y-52455102D01*
X120580938Y-75385000D02*
X120580938Y-82114000D01*
%TO.N,/MAX31865_DRDY3*%
X88032438Y-70055500D02*
X95678938Y-77702000D01*
X95678938Y-77702000D02*
X114199938Y-77702000D01*
X114199938Y-77702000D02*
X115262938Y-76639000D01*
X88032438Y-52081000D02*
X88032438Y-70055500D01*
%TO.N,/MAX31865_DRDY2*%
X103121938Y-77280000D02*
X103762938Y-76639000D01*
X88843938Y-52081000D02*
X88843938Y-69861000D01*
X88843938Y-69861000D02*
X96262938Y-77280000D01*
X96262938Y-77280000D02*
X103121938Y-77280000D01*
%TD*%
M02*
