M48
; DRILL file {KiCad 9.0.6} date 2025-12-21T10:05:00+0100
; FORMAT={-:-/ absolute / metric / decimal}
; #@! TF.CreationDate,2025-12-21T10:05:00+01:00
; #@! TF.GenerationSoftware,Kicad,Pcbnew,9.0.6
; #@! TF.FileFunction,Plated,1,6,PTH
FMAT,2
METRIC
; #@! TA.AperFunction,Plated,PTH,ViaDrill
T1C0.300
; #@! TA.AperFunction,Plated,PTH,ViaDrill
T2C0.400
; #@! TA.AperFunction,Plated,PTH,ComponentDrill
T3C0.400
; #@! TA.AperFunction,Plated,PTH,ComponentDrill
T4C0.700
%
G90
G05
T1
X84.652Y-44.488
X85.496Y-48.116
X85.496Y-49.076
X85.688Y-46.976
X85.695Y-46.267
X86.449Y-50.368
X87.218Y-42.75
X87.221Y-52.081
X87.819Y-44.881
X87.819Y-45.781
X87.819Y-46.681
X87.819Y-47.581
X88.032Y-52.081
X88.118Y-42.75
X88.634Y-50.368
X88.718Y-44.881
X88.718Y-45.781
X88.718Y-46.681
X88.718Y-47.581
X88.844Y-52.081
X89.218Y-42.75
X89.337Y-50.53
X89.502Y-39.395
X89.618Y-44.881
X89.618Y-45.781
X89.618Y-46.681
X89.618Y-47.581
X89.743Y-75.604
X89.743Y-76.585
X89.755Y-52.108
X90.118Y-42.75
X90.419Y-52.329
X90.518Y-44.881
X90.518Y-45.781
X90.518Y-46.681
X90.518Y-47.581
X90.663Y-78.776
X90.663Y-79.576
X90.663Y-80.376
X90.663Y-81.176
X90.949Y-42.555
X91.133Y-52.552
X91.463Y-78.776
X91.463Y-79.576
X91.463Y-80.376
X91.463Y-81.176
X91.909Y-42.555
X92.263Y-76.639
X92.263Y-78.776
X92.263Y-79.576
X92.263Y-80.376
X92.263Y-81.176
X93.063Y-78.776
X93.063Y-79.576
X93.063Y-80.376
X93.063Y-81.176
X93.11Y-45.681
X93.11Y-46.481
X93.11Y-47.281
X93.163Y-76.471
X93.82Y-39.395
X95.3Y-79.977
X95.3Y-81.276
X95.8Y-79.326
X95.854Y-42.478
X96.349Y-45.584
X96.654Y-43.285
X96.8Y-80.626
X97.374Y-37.11
X97.454Y-40.587
X98.334Y-37.11
X100.354Y-38.92
X100.354Y-39.88
X101.243Y-75.604
X101.243Y-76.585
X101.354Y-42.478
X102.154Y-43.285
X102.163Y-78.776
X102.163Y-79.576
X102.163Y-80.376
X102.163Y-81.176
X102.349Y-45.584
X102.874Y-37.11
X102.954Y-40.587
X102.963Y-78.776
X102.963Y-79.576
X102.963Y-80.376
X102.963Y-81.176
X103.763Y-76.639
X103.763Y-78.776
X103.763Y-79.576
X103.763Y-80.376
X103.763Y-81.176
X103.834Y-37.11
X104.349Y-45.584
X104.563Y-78.776
X104.563Y-79.576
X104.563Y-80.376
X104.563Y-81.176
X104.663Y-76.471
X105.8Y-83.677
X105.854Y-38.92
X105.854Y-39.88
X106.8Y-79.977
X106.854Y-42.478
X107.1Y-80.626
X107.654Y-43.285
X107.844Y-83.108
X108.374Y-37.11
X108.454Y-40.587
X109.334Y-37.11
X111.354Y-38.92
X111.354Y-39.88
X112.743Y-75.604
X112.743Y-76.585
X113.663Y-78.776
X113.663Y-79.576
X113.663Y-80.376
X113.663Y-81.176
X114.463Y-78.776
X114.463Y-79.576
X114.463Y-80.376
X114.463Y-81.176
X115.263Y-76.639
X115.263Y-78.776
X115.263Y-79.576
X115.263Y-80.376
X115.263Y-81.176
X116.063Y-78.776
X116.063Y-79.576
X116.063Y-80.376
X116.063Y-81.176
X116.163Y-76.471
X117.3Y-83.677
X118.3Y-79.977
X118.8Y-80.626
X120.028Y-79.326
T2
X110.349Y-47.277
X117.094Y-40.33
X117.094Y-43.88
X121.834Y-43.758
X122.909Y-49.598
X123.384Y-43.758
T3
X91.363Y-85.3
X92.363Y-85.3
X102.863Y-85.3
X103.863Y-85.3
X114.363Y-85.3
X115.363Y-85.3
T4
X81.083Y-52.084
X81.083Y-54.084
X81.083Y-56.084
X81.083Y-58.084
X81.083Y-60.084
X81.083Y-62.084
X81.083Y-64.084
X81.083Y-66.084
X81.083Y-68.084
X81.083Y-70.084
X85.253Y-52.084
X85.253Y-54.084
X85.253Y-56.084
X85.253Y-58.084
X85.253Y-60.084
X85.253Y-62.084
X85.253Y-64.084
X85.253Y-66.084
X85.253Y-68.084
X85.253Y-70.084
X121.473Y-52.084
X121.473Y-54.084
X121.473Y-56.084
X121.473Y-58.084
X121.473Y-60.084
X121.473Y-62.084
X121.473Y-64.084
X121.473Y-66.084
X121.473Y-68.084
X121.473Y-70.084
X125.643Y-52.084
X125.643Y-54.084
X125.643Y-56.084
X125.643Y-58.084
X125.643Y-60.084
X125.643Y-62.084
X125.643Y-64.084
X125.643Y-66.084
X125.643Y-68.084
X125.643Y-70.084
M30
