%TF.GenerationSoftware,KiCad,Pcbnew,9.0.6*%
%TF.CreationDate,2026-01-26T20:59:56+01:00*%
%TF.ProjectId,neptune-env,6e657074-756e-4652-9d65-6e762e6b6963,1.0*%
%TF.SameCoordinates,Original*%
%TF.FileFunction,Copper,L2,Inr*%
%TF.FilePolarity,Positive*%
%FSLAX46Y46*%
G04 Gerber Fmt 4.6, Leading zero omitted, Abs format (unit mm)*
G04 Created by KiCad (PCBNEW 9.0.6) date 2026-01-26 20:59:56*
%MOMM*%
%LPD*%
G01*
G04 APERTURE LIST*
%TA.AperFunction,ComponentPad*%
%ADD10C,0.800000*%
%TD*%
%TA.AperFunction,ComponentPad*%
%ADD11R,2.580000X1.000000*%
%TD*%
%TA.AperFunction,ViaPad*%
%ADD12C,0.500000*%
%TD*%
%TA.AperFunction,ViaPad*%
%ADD13C,0.600000*%
%TD*%
%TA.AperFunction,ViaPad*%
%ADD14C,0.800000*%
%TD*%
G04 APERTURE END LIST*
D10*
%TO.N,Net-(U3-FORCE+)*%
%TO.C,TH2*%
X102862938Y-85300000D03*
%TO.N,Net-(U3-FORCE-)*%
X103862938Y-85300000D03*
%TD*%
%TO.N,Net-(U2-FORCE+)*%
%TO.C,TH1*%
X91362938Y-85300000D03*
%TO.N,Net-(U2-FORCE-)*%
X92362938Y-85300000D03*
%TD*%
%TO.N,Net-(U4-FORCE+)*%
%TO.C,TH3*%
X114362938Y-85300000D03*
%TO.N,Net-(U4-FORCE-)*%
X115362938Y-85300000D03*
%TD*%
D11*
%TO.N,/VOUT_A1*%
%TO.C,J3*%
X121472938Y-52084000D03*
X125642938Y-52084000D03*
%TO.N,unconnected-(J3-Pin_3-Pad3)*%
X121472938Y-54084000D03*
%TO.N,unconnected-(J3-Pin_4-Pad4)*%
X125642938Y-54084000D03*
%TO.N,unconnected-(J3-Pin_5-Pad5)*%
X121472938Y-56084000D03*
%TO.N,unconnected-(J3-Pin_6-Pad6)*%
X125642938Y-56084000D03*
%TO.N,/VOUT_B1*%
X121472938Y-58084000D03*
X125642938Y-58084000D03*
%TO.N,unconnected-(J3-Pin_9-Pad9)*%
X121472938Y-60084000D03*
%TO.N,unconnected-(J3-Pin_10-Pad10)*%
X125642938Y-60084000D03*
%TO.N,unconnected-(J3-Pin_11-Pad11)*%
X121472938Y-62084000D03*
%TO.N,unconnected-(J3-Pin_12-Pad12)*%
X125642938Y-62084000D03*
%TO.N,GND*%
X121472938Y-64084000D03*
X125642938Y-64084000D03*
X121472938Y-66084000D03*
X125642938Y-66084000D03*
%TO.N,unconnected-(J3-Pin_17-Pad17)*%
X121472938Y-68084000D03*
%TO.N,unconnected-(J3-Pin_18-Pad18)*%
X125642938Y-68084000D03*
%TO.N,unconnected-(J3-Pin_19-Pad19)*%
X121472938Y-70084000D03*
%TO.N,unconnected-(J3-Pin_20-Pad20)*%
X125642938Y-70084000D03*
%TD*%
%TO.N,/I2C_2_SDA*%
%TO.C,J2*%
X81082938Y-52084000D03*
%TO.N,unconnected-(J2-Pin_2-Pad2)*%
X85252938Y-52084000D03*
%TO.N,/I2C_2_SCL*%
X81082938Y-54084000D03*
%TO.N,unconnected-(J2-Pin_4-Pad4)*%
X85252938Y-54084000D03*
%TO.N,unconnected-(J2-Pin_5-Pad5)*%
X81082938Y-56084000D03*
%TO.N,GND*%
X85252938Y-56084000D03*
%TO.N,unconnected-(J2-Pin_7-Pad7)*%
X81082938Y-58084000D03*
%TO.N,GND*%
X85252938Y-58084000D03*
X81082938Y-60084000D03*
X85252938Y-60084000D03*
%TO.N,unconnected-(J2-Pin_11-Pad11)*%
X81082938Y-62084000D03*
%TO.N,unconnected-(J2-Pin_12-Pad12)*%
X85252938Y-62084000D03*
%TO.N,unconnected-(J2-Pin_13-Pad13)*%
X81082938Y-64084000D03*
%TO.N,unconnected-(J2-Pin_14-Pad14)*%
X85252938Y-64084000D03*
%TO.N,unconnected-(J2-Pin_15-Pad15)*%
X81082938Y-66084000D03*
%TO.N,unconnected-(J2-Pin_16-Pad16)*%
X85252938Y-66084000D03*
%TO.N,GND*%
X81082938Y-68084000D03*
X85252938Y-68084000D03*
X81082938Y-70084000D03*
X85252938Y-70084000D03*
%TD*%
D12*
%TO.N,/reset*%
X88633938Y-50368000D03*
X86448938Y-50368000D03*
D13*
X89501938Y-39395000D03*
D12*
%TO.N,GND*%
X109334418Y-37110000D03*
D13*
X93062938Y-81176500D03*
X101242938Y-75604000D03*
X88718500Y-44881000D03*
X90518500Y-45781000D03*
X91462938Y-80376500D03*
X104662938Y-76471000D03*
X114462938Y-78776500D03*
X91462938Y-78776500D03*
X87818500Y-47581000D03*
D12*
X111354418Y-39880000D03*
D13*
X91462938Y-81176500D03*
X104562938Y-79576500D03*
X115262938Y-81176500D03*
X96349418Y-45584000D03*
X104562938Y-78776500D03*
X93062938Y-78776500D03*
X102962938Y-81176500D03*
X116062938Y-79576500D03*
X102962938Y-79576500D03*
D14*
X122908938Y-49598000D03*
D13*
X116162938Y-76471000D03*
X88718500Y-47581000D03*
X113662938Y-80376500D03*
X89618500Y-44881000D03*
X93162938Y-76471000D03*
X90518500Y-47581000D03*
X114462938Y-80376500D03*
X88718500Y-45781000D03*
X103762938Y-79576500D03*
D12*
X100354418Y-39880000D03*
D13*
X113662938Y-81176500D03*
D12*
X91909000Y-42555000D03*
D14*
X123383938Y-43758000D03*
D13*
X102962938Y-80376500D03*
X92262938Y-80376500D03*
X103762938Y-78776500D03*
X89742938Y-75604000D03*
X102962938Y-78776500D03*
X90662938Y-79576500D03*
X87818500Y-46681000D03*
X115262938Y-79576500D03*
X90662938Y-80376500D03*
X114462938Y-81176500D03*
X87818500Y-45781000D03*
X116062938Y-80376500D03*
X93062938Y-79576500D03*
X89618500Y-45781000D03*
X114462938Y-79576500D03*
X104349418Y-45584000D03*
D12*
X103834418Y-37110000D03*
D13*
X102162938Y-79576500D03*
X89618500Y-47581000D03*
X91462938Y-79576500D03*
X115262938Y-78776500D03*
X103762938Y-81176500D03*
X93062938Y-80376500D03*
X89618500Y-46681000D03*
X92262938Y-79576500D03*
D12*
X85496000Y-48116000D03*
D13*
X92262938Y-81176500D03*
X90518500Y-44881000D03*
X116062938Y-78776500D03*
D12*
X84651938Y-44488000D03*
D13*
X102162938Y-81176500D03*
X113662938Y-78776500D03*
X90662938Y-78776500D03*
X104562938Y-81176500D03*
X90518500Y-46681000D03*
X102162938Y-80376500D03*
X90662938Y-81176500D03*
X88718500Y-46681000D03*
X93819938Y-39395000D03*
X92262938Y-78776500D03*
X87818500Y-44881000D03*
X116062938Y-81176500D03*
X113662938Y-79576500D03*
X103762938Y-80376500D03*
D14*
X117093938Y-43880000D03*
D13*
X115262938Y-80376500D03*
D12*
X105854418Y-39880000D03*
D13*
X102162938Y-78776500D03*
X104562938Y-80376500D03*
D12*
X98334418Y-37110000D03*
D13*
X112742938Y-75604000D03*
D12*
%TO.N,+3.3V*%
X105854418Y-38920000D03*
X97374418Y-37110000D03*
D14*
X110349418Y-47277000D03*
D12*
X102874418Y-37110000D03*
D13*
X89742938Y-76585000D03*
D12*
X108374418Y-37110000D03*
X111354418Y-38920000D03*
D13*
X112742938Y-76585000D03*
D12*
X85496000Y-49076000D03*
X100354418Y-38920000D03*
D14*
X117093938Y-40330000D03*
D12*
X90949000Y-42555000D03*
D13*
X101242938Y-76585000D03*
X102349418Y-45584000D03*
D12*
X89336938Y-50530000D03*
D14*
X121833938Y-43758000D03*
D12*
%TO.N,/SWDIO*%
X88118500Y-42750000D03*
%TO.N,/SWCLK*%
X87218500Y-42750000D03*
%TO.N,/USART1_RX*%
X89218500Y-42750000D03*
%TO.N,/USART1_TX*%
X90118500Y-42750000D03*
%TO.N,/I2C_2_SCL*%
X85694938Y-46267000D03*
%TO.N,SPI1_MISO*%
X120027938Y-79326500D03*
X101354418Y-42478000D03*
X95800438Y-79326500D03*
X106854418Y-42478000D03*
X95854418Y-42478000D03*
X107843938Y-83108000D03*
X93110000Y-46481000D03*
%TO.N,/I2C_2_SDA*%
X85688000Y-46976000D03*
%TO.N,/MAX31865_DRDY1*%
X92262938Y-76639000D03*
X87220938Y-52081000D03*
%TO.N,SPI1_SCK*%
X107654418Y-43285000D03*
X96800438Y-80626500D03*
X118800438Y-80626500D03*
X107100438Y-80626500D03*
X96654418Y-43285000D03*
X102154418Y-43285000D03*
X93110000Y-47281000D03*
%TO.N,/MAX31865_CS3*%
X91133469Y-52551531D03*
X118300438Y-79976500D03*
%TO.N,SPI1_MOSI*%
X105800438Y-83677000D03*
X97454418Y-40587500D03*
X95300438Y-81276500D03*
X93110000Y-45681000D03*
X108454418Y-40587500D03*
X117300438Y-83677000D03*
X102954418Y-40587500D03*
%TO.N,/MAX31865_CS2*%
X106800438Y-79976500D03*
X90419156Y-52329071D03*
%TO.N,/MAX31865_DRDY3*%
X88032438Y-52081000D03*
X115262938Y-76639000D03*
%TO.N,/MAX31865_CS1*%
X95300438Y-79976500D03*
X89754969Y-52108031D03*
%TO.N,/MAX31865_DRDY2*%
X103762938Y-76639000D03*
X88843938Y-52081000D03*
%TD*%
%TA.AperFunction,Conductor*%
%TO.N,GND*%
G36*
X96758205Y-36454185D02*
G01*
X96803960Y-36506989D01*
X96813904Y-36576147D01*
X96794268Y-36627391D01*
X96709337Y-36754498D01*
X96709330Y-36754511D01*
X96652761Y-36891082D01*
X96652758Y-36891092D01*
X96623918Y-37036079D01*
X96623918Y-37036082D01*
X96623918Y-37183918D01*
X96623918Y-37183920D01*
X96623917Y-37183920D01*
X96652758Y-37328907D01*
X96652761Y-37328917D01*
X96709330Y-37465488D01*
X96709337Y-37465501D01*
X96791466Y-37588415D01*
X96791469Y-37588419D01*
X96895998Y-37692948D01*
X96896002Y-37692951D01*
X97018916Y-37775080D01*
X97018929Y-37775087D01*
X97155500Y-37831656D01*
X97155505Y-37831658D01*
X97155509Y-37831658D01*
X97155510Y-37831659D01*
X97300497Y-37860500D01*
X97300500Y-37860500D01*
X97448338Y-37860500D01*
X97545880Y-37841096D01*
X97593331Y-37831658D01*
X97729913Y-37775084D01*
X97852834Y-37692951D01*
X97957369Y-37588416D01*
X98039502Y-37465495D01*
X98096076Y-37328913D01*
X98124918Y-37183918D01*
X98124918Y-37036082D01*
X98124918Y-37036079D01*
X98096077Y-36891092D01*
X98096076Y-36891091D01*
X98096076Y-36891087D01*
X98095923Y-36890718D01*
X98039505Y-36754511D01*
X98039498Y-36754498D01*
X97954568Y-36627391D01*
X97933690Y-36560713D01*
X97952175Y-36493333D01*
X98004154Y-36446643D01*
X98057670Y-36434500D01*
X102191166Y-36434500D01*
X102258205Y-36454185D01*
X102303960Y-36506989D01*
X102313904Y-36576147D01*
X102294268Y-36627391D01*
X102209337Y-36754498D01*
X102209330Y-36754511D01*
X102152761Y-36891082D01*
X102152758Y-36891092D01*
X102123918Y-37036079D01*
X102123918Y-37036082D01*
X102123918Y-37183918D01*
X102123918Y-37183920D01*
X102123917Y-37183920D01*
X102152758Y-37328907D01*
X102152761Y-37328917D01*
X102209330Y-37465488D01*
X102209337Y-37465501D01*
X102291466Y-37588415D01*
X102291469Y-37588419D01*
X102395998Y-37692948D01*
X102396002Y-37692951D01*
X102518916Y-37775080D01*
X102518929Y-37775087D01*
X102655500Y-37831656D01*
X102655505Y-37831658D01*
X102655509Y-37831658D01*
X102655510Y-37831659D01*
X102800497Y-37860500D01*
X102800500Y-37860500D01*
X102948338Y-37860500D01*
X103045880Y-37841096D01*
X103093331Y-37831658D01*
X103229913Y-37775084D01*
X103352834Y-37692951D01*
X103457369Y-37588416D01*
X103539502Y-37465495D01*
X103596076Y-37328913D01*
X103624918Y-37183918D01*
X103624918Y-37036082D01*
X103624918Y-37036079D01*
X103596077Y-36891092D01*
X103596076Y-36891091D01*
X103596076Y-36891087D01*
X103595923Y-36890718D01*
X103539505Y-36754511D01*
X103539498Y-36754498D01*
X103454568Y-36627391D01*
X103433690Y-36560713D01*
X103452175Y-36493333D01*
X103504154Y-36446643D01*
X103557670Y-36434500D01*
X107691166Y-36434500D01*
X107758205Y-36454185D01*
X107803960Y-36506989D01*
X107813904Y-36576147D01*
X107794268Y-36627391D01*
X107709337Y-36754498D01*
X107709330Y-36754511D01*
X107652761Y-36891082D01*
X107652758Y-36891092D01*
X107623918Y-37036079D01*
X107623918Y-37036082D01*
X107623918Y-37183918D01*
X107623918Y-37183920D01*
X107623917Y-37183920D01*
X107652758Y-37328907D01*
X107652761Y-37328917D01*
X107709330Y-37465488D01*
X107709337Y-37465501D01*
X107791466Y-37588415D01*
X107791469Y-37588419D01*
X107895998Y-37692948D01*
X107896002Y-37692951D01*
X108018916Y-37775080D01*
X108018929Y-37775087D01*
X108155500Y-37831656D01*
X108155505Y-37831658D01*
X108155509Y-37831658D01*
X108155510Y-37831659D01*
X108300497Y-37860500D01*
X108300500Y-37860500D01*
X108448338Y-37860500D01*
X108545880Y-37841096D01*
X108593331Y-37831658D01*
X108729913Y-37775084D01*
X108852834Y-37692951D01*
X108957369Y-37588416D01*
X109039502Y-37465495D01*
X109096076Y-37328913D01*
X109124918Y-37183918D01*
X109124918Y-37036082D01*
X109124918Y-37036079D01*
X109096077Y-36891092D01*
X109096076Y-36891091D01*
X109096076Y-36891087D01*
X109095923Y-36890718D01*
X109039505Y-36754511D01*
X109039498Y-36754498D01*
X108954568Y-36627391D01*
X108933690Y-36560713D01*
X108952175Y-36493333D01*
X109004154Y-36446643D01*
X109057670Y-36434500D01*
X117926505Y-36434500D01*
X117991147Y-36452682D01*
X118080046Y-36506989D01*
X118708210Y-36890725D01*
X118711721Y-36892952D01*
X119518417Y-37424066D01*
X119521879Y-37426430D01*
X120094201Y-37831659D01*
X120310111Y-37984532D01*
X120313495Y-37987016D01*
X121082349Y-38571456D01*
X121085647Y-38574052D01*
X121778728Y-39138913D01*
X121834293Y-39184198D01*
X121837496Y-39186900D01*
X122510225Y-39774172D01*
X122565055Y-39822037D01*
X122568168Y-39824848D01*
X123203657Y-40418695D01*
X123273831Y-40484271D01*
X123276849Y-40487189D01*
X123959751Y-41170090D01*
X123962669Y-41173108D01*
X124507688Y-41756342D01*
X124622078Y-41878752D01*
X124624890Y-41881865D01*
X124834957Y-42122498D01*
X125260053Y-42609447D01*
X125262757Y-42612653D01*
X125865734Y-43352500D01*
X125872883Y-43361271D01*
X125875480Y-43364569D01*
X126459944Y-44133450D01*
X126462428Y-44136835D01*
X127020532Y-44925066D01*
X127022899Y-44928533D01*
X127553978Y-45735171D01*
X127556227Y-45738716D01*
X127994255Y-46455747D01*
X128012438Y-46520390D01*
X128012438Y-75647566D01*
X127994255Y-75712209D01*
X127556208Y-76429271D01*
X127553959Y-76432816D01*
X127022880Y-77239454D01*
X127020513Y-77242921D01*
X126462409Y-78031152D01*
X126459925Y-78034537D01*
X125875462Y-78803418D01*
X125872865Y-78806716D01*
X125262730Y-79555346D01*
X125260023Y-79558555D01*
X124624890Y-80286107D01*
X124622076Y-80289223D01*
X123962655Y-80994881D01*
X123959737Y-80997899D01*
X123276836Y-81680802D01*
X123273818Y-81683720D01*
X122568161Y-82343141D01*
X122565045Y-82345955D01*
X121837507Y-82981077D01*
X121834299Y-82983784D01*
X121085643Y-83593945D01*
X121082344Y-83596542D01*
X120313478Y-84180994D01*
X120310093Y-84183478D01*
X119521863Y-84741585D01*
X119518396Y-84743952D01*
X118711759Y-85275032D01*
X118708214Y-85277281D01*
X118525839Y-85388693D01*
X117993633Y-85713815D01*
X117991174Y-85715317D01*
X117926531Y-85733500D01*
X116343649Y-85733500D01*
X116276610Y-85713815D01*
X116230855Y-85661011D01*
X116220911Y-85591853D01*
X116227300Y-85568560D01*
X116227065Y-85568489D01*
X116228834Y-85562658D01*
X116263437Y-85388695D01*
X116263438Y-85388693D01*
X116263438Y-85211306D01*
X116263437Y-85211304D01*
X116228834Y-85037341D01*
X116228831Y-85037332D01*
X116160954Y-84873459D01*
X116160947Y-84873446D01*
X116062402Y-84725965D01*
X116062399Y-84725961D01*
X115936976Y-84600538D01*
X115936972Y-84600535D01*
X115789491Y-84501990D01*
X115789478Y-84501983D01*
X115625605Y-84434106D01*
X115625596Y-84434103D01*
X115451632Y-84399500D01*
X115451629Y-84399500D01*
X115274247Y-84399500D01*
X115274244Y-84399500D01*
X115100279Y-84434103D01*
X115100270Y-84434106D01*
X114936397Y-84501983D01*
X114936384Y-84501990D01*
X114931825Y-84505037D01*
X114865146Y-84525912D01*
X114797767Y-84507425D01*
X114794051Y-84505037D01*
X114789491Y-84501990D01*
X114789478Y-84501983D01*
X114625605Y-84434106D01*
X114625596Y-84434103D01*
X114451632Y-84399500D01*
X114451629Y-84399500D01*
X114274247Y-84399500D01*
X114274244Y-84399500D01*
X114100279Y-84434103D01*
X114100270Y-84434106D01*
X113936397Y-84501983D01*
X113936384Y-84501990D01*
X113788903Y-84600535D01*
X113788899Y-84600538D01*
X113663476Y-84725961D01*
X113663473Y-84725965D01*
X113564928Y-84873446D01*
X113564921Y-84873459D01*
X113497044Y-85037332D01*
X113497041Y-85037341D01*
X113462438Y-85211304D01*
X113462438Y-85388695D01*
X113497041Y-85562658D01*
X113498811Y-85568489D01*
X113497523Y-85568879D01*
X113504256Y-85631521D01*
X113472979Y-85693999D01*
X113412889Y-85729649D01*
X113382227Y-85733500D01*
X104843649Y-85733500D01*
X104776610Y-85713815D01*
X104730855Y-85661011D01*
X104720911Y-85591853D01*
X104727300Y-85568560D01*
X104727065Y-85568489D01*
X104728834Y-85562658D01*
X104763437Y-85388695D01*
X104763438Y-85388693D01*
X104763438Y-85211306D01*
X104763437Y-85211304D01*
X104728834Y-85037341D01*
X104728831Y-85037332D01*
X104660954Y-84873459D01*
X104660947Y-84873446D01*
X104562402Y-84725965D01*
X104562399Y-84725961D01*
X104436976Y-84600538D01*
X104436972Y-84600535D01*
X104289491Y-84501990D01*
X104289478Y-84501983D01*
X104125605Y-84434106D01*
X104125596Y-84434103D01*
X103951632Y-84399500D01*
X103951629Y-84399500D01*
X103774247Y-84399500D01*
X103774244Y-84399500D01*
X103600279Y-84434103D01*
X103600270Y-84434106D01*
X103436397Y-84501983D01*
X103436384Y-84501990D01*
X103431825Y-84505037D01*
X103365146Y-84525912D01*
X103297767Y-84507425D01*
X103294051Y-84505037D01*
X103289491Y-84501990D01*
X103289478Y-84501983D01*
X103125605Y-84434106D01*
X103125596Y-84434103D01*
X102951632Y-84399500D01*
X102951629Y-84399500D01*
X102774247Y-84399500D01*
X102774244Y-84399500D01*
X102600279Y-84434103D01*
X102600270Y-84434106D01*
X102436397Y-84501983D01*
X102436384Y-84501990D01*
X102288903Y-84600535D01*
X102288899Y-84600538D01*
X102163476Y-84725961D01*
X102163473Y-84725965D01*
X102064928Y-84873446D01*
X102064921Y-84873459D01*
X101997044Y-85037332D01*
X101997041Y-85037341D01*
X101962438Y-85211304D01*
X101962438Y-85388695D01*
X101997041Y-85562658D01*
X101998811Y-85568489D01*
X101997523Y-85568879D01*
X102004256Y-85631521D01*
X101972979Y-85693999D01*
X101912889Y-85729649D01*
X101882227Y-85733500D01*
X93343649Y-85733500D01*
X93276610Y-85713815D01*
X93230855Y-85661011D01*
X93220911Y-85591853D01*
X93227300Y-85568560D01*
X93227065Y-85568489D01*
X93228834Y-85562658D01*
X93263437Y-85388695D01*
X93263438Y-85388693D01*
X93263438Y-85211306D01*
X93263437Y-85211304D01*
X93228834Y-85037341D01*
X93228831Y-85037332D01*
X93160954Y-84873459D01*
X93160947Y-84873446D01*
X93062402Y-84725965D01*
X93062399Y-84725961D01*
X92936976Y-84600538D01*
X92936972Y-84600535D01*
X92789491Y-84501990D01*
X92789478Y-84501983D01*
X92625605Y-84434106D01*
X92625596Y-84434103D01*
X92451632Y-84399500D01*
X92451629Y-84399500D01*
X92274247Y-84399500D01*
X92274244Y-84399500D01*
X92100279Y-84434103D01*
X92100270Y-84434106D01*
X91936397Y-84501983D01*
X91936384Y-84501990D01*
X91931825Y-84505037D01*
X91865146Y-84525912D01*
X91797767Y-84507425D01*
X91794051Y-84505037D01*
X91789491Y-84501990D01*
X91789478Y-84501983D01*
X91625605Y-84434106D01*
X91625596Y-84434103D01*
X91451632Y-84399500D01*
X91451629Y-84399500D01*
X91274247Y-84399500D01*
X91274244Y-84399500D01*
X91100279Y-84434103D01*
X91100270Y-84434106D01*
X90936397Y-84501983D01*
X90936384Y-84501990D01*
X90788903Y-84600535D01*
X90788899Y-84600538D01*
X90663476Y-84725961D01*
X90663473Y-84725965D01*
X90564928Y-84873446D01*
X90564921Y-84873459D01*
X90497044Y-85037332D01*
X90497041Y-85037341D01*
X90462438Y-85211304D01*
X90462438Y-85388695D01*
X90497041Y-85562658D01*
X90498811Y-85568489D01*
X90497523Y-85568879D01*
X90504256Y-85631521D01*
X90472979Y-85693999D01*
X90412889Y-85729649D01*
X90382227Y-85733500D01*
X88799371Y-85733500D01*
X88734728Y-85715317D01*
X88017684Y-85277284D01*
X88014139Y-85275036D01*
X87207459Y-84743932D01*
X87203992Y-84741564D01*
X86415765Y-84183466D01*
X86412381Y-84180982D01*
X85846619Y-83750920D01*
X105049937Y-83750920D01*
X105078778Y-83895907D01*
X105078781Y-83895917D01*
X105135350Y-84032488D01*
X105135357Y-84032501D01*
X105217486Y-84155415D01*
X105217489Y-84155419D01*
X105322018Y-84259948D01*
X105322022Y-84259951D01*
X105444936Y-84342080D01*
X105444949Y-84342087D01*
X105581520Y-84398656D01*
X105581525Y-84398658D01*
X105581529Y-84398658D01*
X105581530Y-84398659D01*
X105726517Y-84427500D01*
X105726520Y-84427500D01*
X105874358Y-84427500D01*
X105971900Y-84408096D01*
X106019351Y-84398658D01*
X106155933Y-84342084D01*
X106278854Y-84259951D01*
X106383389Y-84155416D01*
X106465522Y-84032495D01*
X106522096Y-83895913D01*
X106535276Y-83829656D01*
X106550938Y-83750920D01*
X106550938Y-83603079D01*
X106522097Y-83458092D01*
X106522096Y-83458091D01*
X106522096Y-83458087D01*
X106467764Y-83326917D01*
X106465525Y-83321511D01*
X106465518Y-83321498D01*
X106383389Y-83198584D01*
X106383386Y-83198580D01*
X106366726Y-83181920D01*
X107093437Y-83181920D01*
X107122278Y-83326907D01*
X107122281Y-83326917D01*
X107178850Y-83463488D01*
X107178857Y-83463501D01*
X107260986Y-83586415D01*
X107260989Y-83586419D01*
X107365518Y-83690948D01*
X107365522Y-83690951D01*
X107488436Y-83773080D01*
X107488449Y-83773087D01*
X107625020Y-83829656D01*
X107625025Y-83829658D01*
X107625029Y-83829658D01*
X107625030Y-83829659D01*
X107770017Y-83858500D01*
X107770020Y-83858500D01*
X107917858Y-83858500D01*
X108017455Y-83838688D01*
X108062851Y-83829658D01*
X108199433Y-83773084D01*
X108232604Y-83750920D01*
X116549937Y-83750920D01*
X116578778Y-83895907D01*
X116578781Y-83895917D01*
X116635350Y-84032488D01*
X116635357Y-84032501D01*
X116717486Y-84155415D01*
X116717489Y-84155419D01*
X116822018Y-84259948D01*
X116822022Y-84259951D01*
X116944936Y-84342080D01*
X116944949Y-84342087D01*
X117081520Y-84398656D01*
X117081525Y-84398658D01*
X117081529Y-84398658D01*
X117081530Y-84398659D01*
X117226517Y-84427500D01*
X117226520Y-84427500D01*
X117374358Y-84427500D01*
X117471900Y-84408096D01*
X117519351Y-84398658D01*
X117655933Y-84342084D01*
X117778854Y-84259951D01*
X117883389Y-84155416D01*
X117965522Y-84032495D01*
X118022096Y-83895913D01*
X118035276Y-83829656D01*
X118050938Y-83750920D01*
X118050938Y-83603079D01*
X118022097Y-83458092D01*
X118022096Y-83458091D01*
X118022096Y-83458087D01*
X117967764Y-83326917D01*
X117965525Y-83321511D01*
X117965518Y-83321498D01*
X117883389Y-83198584D01*
X117883386Y-83198580D01*
X117778857Y-83094051D01*
X117778853Y-83094048D01*
X117655939Y-83011919D01*
X117655926Y-83011912D01*
X117519355Y-82955343D01*
X117519345Y-82955340D01*
X117374358Y-82926500D01*
X117374356Y-82926500D01*
X117226520Y-82926500D01*
X117226518Y-82926500D01*
X117081530Y-82955340D01*
X117081520Y-82955343D01*
X116944949Y-83011912D01*
X116944936Y-83011919D01*
X116822022Y-83094048D01*
X116822018Y-83094051D01*
X116717489Y-83198580D01*
X116717486Y-83198584D01*
X116635357Y-83321498D01*
X116635350Y-83321511D01*
X116578781Y-83458082D01*
X116578778Y-83458092D01*
X116549938Y-83603079D01*
X116549938Y-83603082D01*
X116549938Y-83750918D01*
X116549938Y-83750920D01*
X116549937Y-83750920D01*
X108232604Y-83750920D01*
X108322354Y-83690951D01*
X108426889Y-83586416D01*
X108443337Y-83561799D01*
X108465856Y-83528099D01*
X108465857Y-83528097D01*
X108509015Y-83463506D01*
X108509018Y-83463501D01*
X108509022Y-83463495D01*
X108565596Y-83326913D01*
X108594438Y-83181918D01*
X108594438Y-83034082D01*
X108594438Y-83034079D01*
X108565597Y-82889092D01*
X108565596Y-82889091D01*
X108565596Y-82889087D01*
X108565594Y-82889082D01*
X108509025Y-82752511D01*
X108509018Y-82752498D01*
X108426889Y-82629584D01*
X108426886Y-82629580D01*
X108322357Y-82525051D01*
X108322353Y-82525048D01*
X108199439Y-82442919D01*
X108199426Y-82442912D01*
X108062855Y-82386343D01*
X108062845Y-82386340D01*
X107917858Y-82357500D01*
X107917856Y-82357500D01*
X107770020Y-82357500D01*
X107770018Y-82357500D01*
X107625030Y-82386340D01*
X107625020Y-82386343D01*
X107488449Y-82442912D01*
X107488436Y-82442919D01*
X107365522Y-82525048D01*
X107365518Y-82525051D01*
X107260989Y-82629580D01*
X107260986Y-82629584D01*
X107178857Y-82752498D01*
X107178850Y-82752511D01*
X107122281Y-82889082D01*
X107122278Y-82889092D01*
X107093438Y-83034079D01*
X107093438Y-83034082D01*
X107093438Y-83181918D01*
X107093438Y-83181920D01*
X107093437Y-83181920D01*
X106366726Y-83181920D01*
X106278857Y-83094051D01*
X106278853Y-83094048D01*
X106155939Y-83011919D01*
X106155926Y-83011912D01*
X106019355Y-82955343D01*
X106019345Y-82955340D01*
X105874358Y-82926500D01*
X105874356Y-82926500D01*
X105726520Y-82926500D01*
X105726518Y-82926500D01*
X105581530Y-82955340D01*
X105581520Y-82955343D01*
X105444949Y-83011912D01*
X105444936Y-83011919D01*
X105322022Y-83094048D01*
X105322018Y-83094051D01*
X105217489Y-83198580D01*
X105217486Y-83198584D01*
X105135357Y-83321498D01*
X105135350Y-83321511D01*
X105078781Y-83458082D01*
X105078778Y-83458092D01*
X105049938Y-83603079D01*
X105049938Y-83603082D01*
X105049938Y-83750918D01*
X105049938Y-83750920D01*
X105049937Y-83750920D01*
X85846619Y-83750920D01*
X85773995Y-83695715D01*
X85773992Y-83695713D01*
X85643506Y-83596524D01*
X85640229Y-83593944D01*
X84891584Y-82983798D01*
X84888375Y-82981091D01*
X84782977Y-82889082D01*
X84271892Y-82442919D01*
X84160823Y-82345959D01*
X84157707Y-82343145D01*
X83452048Y-81683725D01*
X83449030Y-81680807D01*
X82766128Y-80997906D01*
X82763210Y-80994888D01*
X82103782Y-80289223D01*
X82100974Y-80286114D01*
X82087789Y-80271011D01*
X81895219Y-80050420D01*
X94549937Y-80050420D01*
X94578778Y-80195407D01*
X94578781Y-80195417D01*
X94635350Y-80331988D01*
X94635357Y-80332001D01*
X94717486Y-80454915D01*
X94717489Y-80454919D01*
X94801389Y-80538819D01*
X94834874Y-80600142D01*
X94829890Y-80669834D01*
X94801389Y-80714181D01*
X94717489Y-80798080D01*
X94717486Y-80798084D01*
X94635357Y-80920998D01*
X94635350Y-80921011D01*
X94578781Y-81057582D01*
X94578778Y-81057592D01*
X94549938Y-81202579D01*
X94549938Y-81202582D01*
X94549938Y-81350418D01*
X94549938Y-81350420D01*
X94549937Y-81350420D01*
X94578778Y-81495407D01*
X94578781Y-81495417D01*
X94635350Y-81631988D01*
X94635357Y-81632001D01*
X94717486Y-81754915D01*
X94717489Y-81754919D01*
X94822018Y-81859448D01*
X94822022Y-81859451D01*
X94944936Y-81941580D01*
X94944949Y-81941587D01*
X95081520Y-81998156D01*
X95081525Y-81998158D01*
X95081529Y-81998158D01*
X95081530Y-81998159D01*
X95226517Y-82027000D01*
X95226520Y-82027000D01*
X95374358Y-82027000D01*
X95471900Y-82007596D01*
X95519351Y-81998158D01*
X95655933Y-81941584D01*
X95778854Y-81859451D01*
X95883389Y-81754916D01*
X95965522Y-81631995D01*
X96022096Y-81495413D01*
X96031534Y-81447962D01*
X96050938Y-81350420D01*
X96050938Y-81237730D01*
X96070623Y-81170691D01*
X96123427Y-81124936D01*
X96192585Y-81114992D01*
X96256141Y-81144017D01*
X96262619Y-81150049D01*
X96322018Y-81209448D01*
X96322022Y-81209451D01*
X96444936Y-81291580D01*
X96444949Y-81291587D01*
X96581520Y-81348156D01*
X96581525Y-81348158D01*
X96581529Y-81348158D01*
X96581530Y-81348159D01*
X96726517Y-81377000D01*
X96726520Y-81377000D01*
X96874358Y-81377000D01*
X97007989Y-81350418D01*
X97019351Y-81348158D01*
X97155933Y-81291584D01*
X97278854Y-81209451D01*
X97383389Y-81104916D01*
X97465522Y-80981995D01*
X97522096Y-80845413D01*
X97541334Y-80748700D01*
X97550938Y-80700420D01*
X97550938Y-80552579D01*
X97522097Y-80407592D01*
X97522096Y-80407591D01*
X97522096Y-80407587D01*
X97522094Y-80407582D01*
X97465525Y-80271011D01*
X97465518Y-80270998D01*
X97383389Y-80148084D01*
X97383386Y-80148080D01*
X97285726Y-80050420D01*
X106049937Y-80050420D01*
X106078778Y-80195407D01*
X106078781Y-80195417D01*
X106135350Y-80331988D01*
X106135357Y-80332001D01*
X106217485Y-80454914D01*
X106217486Y-80454915D01*
X106217487Y-80454916D01*
X106313620Y-80551049D01*
X106347104Y-80612370D01*
X106349938Y-80638729D01*
X106349938Y-80700418D01*
X106349938Y-80700420D01*
X106349937Y-80700420D01*
X106378778Y-80845407D01*
X106378781Y-80845417D01*
X106435350Y-80981988D01*
X106435357Y-80982001D01*
X106517486Y-81104915D01*
X106517489Y-81104919D01*
X106622018Y-81209448D01*
X106622022Y-81209451D01*
X106744936Y-81291580D01*
X106744949Y-81291587D01*
X106881520Y-81348156D01*
X106881525Y-81348158D01*
X106881529Y-81348158D01*
X106881530Y-81348159D01*
X107026517Y-81377000D01*
X107026520Y-81377000D01*
X107174358Y-81377000D01*
X107307989Y-81350418D01*
X107319351Y-81348158D01*
X107455933Y-81291584D01*
X107578854Y-81209451D01*
X107683389Y-81104916D01*
X107765522Y-80981995D01*
X107822096Y-80845413D01*
X107841334Y-80748700D01*
X107850938Y-80700420D01*
X107850938Y-80552579D01*
X107822097Y-80407592D01*
X107822096Y-80407591D01*
X107822096Y-80407587D01*
X107822094Y-80407582D01*
X107765525Y-80271011D01*
X107765518Y-80270998D01*
X107683389Y-80148084D01*
X107683386Y-80148080D01*
X107587257Y-80051951D01*
X107586421Y-80050420D01*
X117549937Y-80050420D01*
X117578778Y-80195407D01*
X117578781Y-80195417D01*
X117635350Y-80331988D01*
X117635357Y-80332001D01*
X117717486Y-80454915D01*
X117717489Y-80454919D01*
X117822018Y-80559448D01*
X117822026Y-80559454D01*
X117944932Y-80641577D01*
X117944935Y-80641579D01*
X117944943Y-80641584D01*
X117985377Y-80658332D01*
X118039780Y-80702173D01*
X118059541Y-80748700D01*
X118078778Y-80845408D01*
X118078781Y-80845417D01*
X118135350Y-80981988D01*
X118135357Y-80982001D01*
X118217486Y-81104915D01*
X118217489Y-81104919D01*
X118322018Y-81209448D01*
X118322022Y-81209451D01*
X118444936Y-81291580D01*
X118444949Y-81291587D01*
X118581520Y-81348156D01*
X118581525Y-81348158D01*
X118581529Y-81348158D01*
X118581530Y-81348159D01*
X118726517Y-81377000D01*
X118726520Y-81377000D01*
X118874358Y-81377000D01*
X119007989Y-81350418D01*
X119019351Y-81348158D01*
X119155933Y-81291584D01*
X119278854Y-81209451D01*
X119383389Y-81104916D01*
X119465522Y-80981995D01*
X119522096Y-80845413D01*
X119541334Y-80748700D01*
X119550938Y-80700420D01*
X119550938Y-80552579D01*
X119522097Y-80407592D01*
X119522096Y-80407591D01*
X119522096Y-80407587D01*
X119522094Y-80407582D01*
X119465525Y-80271011D01*
X119465518Y-80270998D01*
X119383389Y-80148084D01*
X119383386Y-80148080D01*
X119278857Y-80043551D01*
X119278853Y-80043548D01*
X119155939Y-79961419D01*
X119155924Y-79961411D01*
X119115496Y-79944665D01*
X119061093Y-79900824D01*
X119041333Y-79854296D01*
X119031511Y-79804919D01*
X119022096Y-79757587D01*
X119005481Y-79717474D01*
X118965525Y-79621011D01*
X118965518Y-79620998D01*
X118883389Y-79498084D01*
X118883386Y-79498080D01*
X118785726Y-79400420D01*
X119277437Y-79400420D01*
X119306278Y-79545407D01*
X119306281Y-79545417D01*
X119362850Y-79681988D01*
X119362857Y-79682001D01*
X119444986Y-79804915D01*
X119444989Y-79804919D01*
X119549518Y-79909448D01*
X119549522Y-79909451D01*
X119672436Y-79991580D01*
X119672449Y-79991587D01*
X119809020Y-80048156D01*
X119809025Y-80048158D01*
X119809029Y-80048158D01*
X119809030Y-80048159D01*
X119954017Y-80077000D01*
X119954020Y-80077000D01*
X120101858Y-80077000D01*
X120199400Y-80057596D01*
X120246851Y-80048158D01*
X120383433Y-79991584D01*
X120506354Y-79909451D01*
X120610889Y-79804916D01*
X120693022Y-79681995D01*
X120749596Y-79545413D01*
X120778438Y-79400418D01*
X120778438Y-79252582D01*
X120778438Y-79252579D01*
X120749597Y-79107592D01*
X120749596Y-79107591D01*
X120749596Y-79107587D01*
X120749594Y-79107582D01*
X120693025Y-78971011D01*
X120693018Y-78970998D01*
X120610889Y-78848084D01*
X120610886Y-78848080D01*
X120506357Y-78743551D01*
X120506353Y-78743548D01*
X120383439Y-78661419D01*
X120383426Y-78661412D01*
X120246855Y-78604843D01*
X120246845Y-78604840D01*
X120101858Y-78576000D01*
X120101856Y-78576000D01*
X119954020Y-78576000D01*
X119954018Y-78576000D01*
X119809030Y-78604840D01*
X119809020Y-78604843D01*
X119672449Y-78661412D01*
X119672436Y-78661419D01*
X119549522Y-78743548D01*
X119549518Y-78743551D01*
X119444989Y-78848080D01*
X119444986Y-78848084D01*
X119362857Y-78970998D01*
X119362850Y-78971011D01*
X119306281Y-79107582D01*
X119306278Y-79107592D01*
X119277438Y-79252579D01*
X119277438Y-79252582D01*
X119277438Y-79400418D01*
X119277438Y-79400420D01*
X119277437Y-79400420D01*
X118785726Y-79400420D01*
X118778854Y-79393548D01*
X118713068Y-79349592D01*
X118655939Y-79311419D01*
X118655926Y-79311412D01*
X118519355Y-79254843D01*
X118519345Y-79254840D01*
X118374358Y-79226000D01*
X118374356Y-79226000D01*
X118226520Y-79226000D01*
X118226518Y-79226000D01*
X118081530Y-79254840D01*
X118081520Y-79254843D01*
X117944949Y-79311412D01*
X117944936Y-79311419D01*
X117822022Y-79393548D01*
X117822018Y-79393551D01*
X117717489Y-79498080D01*
X117717486Y-79498084D01*
X117635357Y-79620998D01*
X117635350Y-79621011D01*
X117578781Y-79757582D01*
X117578778Y-79757592D01*
X117549938Y-79902579D01*
X117549938Y-79902582D01*
X117549938Y-80050418D01*
X117549938Y-80050420D01*
X117549937Y-80050420D01*
X107586421Y-80050420D01*
X107572553Y-80025023D01*
X107555961Y-79999205D01*
X107555069Y-79993004D01*
X107553772Y-79990628D01*
X107550938Y-79964270D01*
X107550938Y-79902579D01*
X107522097Y-79757592D01*
X107522096Y-79757591D01*
X107522096Y-79757587D01*
X107505481Y-79717474D01*
X107465525Y-79621011D01*
X107465518Y-79620998D01*
X107383389Y-79498084D01*
X107383386Y-79498080D01*
X107278857Y-79393551D01*
X107278853Y-79393548D01*
X107155939Y-79311419D01*
X107155926Y-79311412D01*
X107019355Y-79254843D01*
X107019345Y-79254840D01*
X106874358Y-79226000D01*
X106874356Y-79226000D01*
X106726520Y-79226000D01*
X106726518Y-79226000D01*
X106581530Y-79254840D01*
X106581520Y-79254843D01*
X106444949Y-79311412D01*
X106444936Y-79311419D01*
X106322022Y-79393548D01*
X106322018Y-79393551D01*
X106217489Y-79498080D01*
X106217486Y-79498084D01*
X106135357Y-79620998D01*
X106135350Y-79621011D01*
X106078781Y-79757582D01*
X106078778Y-79757592D01*
X106049938Y-79902579D01*
X106049938Y-79902582D01*
X106049938Y-80050418D01*
X106049938Y-80050420D01*
X106049937Y-80050420D01*
X97285726Y-80050420D01*
X97278854Y-80043548D01*
X97213068Y-79999592D01*
X97155939Y-79961419D01*
X97155926Y-79961412D01*
X97019355Y-79904843D01*
X97019345Y-79904840D01*
X96874358Y-79876000D01*
X96874356Y-79876000D01*
X96726520Y-79876000D01*
X96726518Y-79876000D01*
X96581522Y-79904842D01*
X96580903Y-79905030D01*
X96580563Y-79905033D01*
X96575551Y-79906030D01*
X96575361Y-79905079D01*
X96511037Y-79905649D01*
X96451926Y-79868397D01*
X96422339Y-79805101D01*
X96431670Y-79735857D01*
X96441811Y-79717480D01*
X96465522Y-79681995D01*
X96522096Y-79545413D01*
X96550938Y-79400418D01*
X96550938Y-79252582D01*
X96550938Y-79252579D01*
X96522097Y-79107592D01*
X96522096Y-79107591D01*
X96522096Y-79107587D01*
X96522094Y-79107582D01*
X96465525Y-78971011D01*
X96465518Y-78970998D01*
X96383389Y-78848084D01*
X96383386Y-78848080D01*
X96278857Y-78743551D01*
X96278853Y-78743548D01*
X96155939Y-78661419D01*
X96155926Y-78661412D01*
X96019355Y-78604843D01*
X96019345Y-78604840D01*
X95874358Y-78576000D01*
X95874356Y-78576000D01*
X95726520Y-78576000D01*
X95726518Y-78576000D01*
X95581530Y-78604840D01*
X95581520Y-78604843D01*
X95444949Y-78661412D01*
X95444936Y-78661419D01*
X95322022Y-78743548D01*
X95322018Y-78743551D01*
X95217489Y-78848080D01*
X95217486Y-78848084D01*
X95135357Y-78970998D01*
X95135350Y-78971011D01*
X95078781Y-79107582D01*
X95078778Y-79107592D01*
X95059542Y-79204297D01*
X95027157Y-79266208D01*
X94985380Y-79294665D01*
X94944948Y-79311413D01*
X94944936Y-79311419D01*
X94822022Y-79393548D01*
X94822018Y-79393551D01*
X94717489Y-79498080D01*
X94717486Y-79498084D01*
X94635357Y-79620998D01*
X94635350Y-79621011D01*
X94578781Y-79757582D01*
X94578778Y-79757592D01*
X94549938Y-79902579D01*
X94549938Y-79902582D01*
X94549938Y-80050418D01*
X94549938Y-80050420D01*
X94549937Y-80050420D01*
X81895219Y-80050420D01*
X81465834Y-79558555D01*
X81463134Y-79555354D01*
X80852985Y-78806708D01*
X80850400Y-78803425D01*
X80265938Y-78034544D01*
X80263454Y-78031160D01*
X79705350Y-77242929D01*
X79702983Y-77239462D01*
X79261070Y-76568254D01*
X79220184Y-76506153D01*
X88942438Y-76506153D01*
X88942438Y-76663846D01*
X88973199Y-76818489D01*
X88973202Y-76818501D01*
X89033540Y-76964172D01*
X89033547Y-76964185D01*
X89121148Y-77095288D01*
X89121151Y-77095292D01*
X89232645Y-77206786D01*
X89232649Y-77206789D01*
X89363752Y-77294390D01*
X89363765Y-77294397D01*
X89509436Y-77354735D01*
X89509441Y-77354737D01*
X89664091Y-77385499D01*
X89664094Y-77385500D01*
X89664096Y-77385500D01*
X89821782Y-77385500D01*
X89821783Y-77385499D01*
X89976435Y-77354737D01*
X90122117Y-77294394D01*
X90253227Y-77206789D01*
X90364727Y-77095289D01*
X90452332Y-76964179D01*
X90512675Y-76818497D01*
X90533676Y-76712920D01*
X91512437Y-76712920D01*
X91541278Y-76857907D01*
X91541281Y-76857917D01*
X91597850Y-76994488D01*
X91597857Y-76994501D01*
X91679986Y-77117415D01*
X91679989Y-77117419D01*
X91784518Y-77221948D01*
X91784522Y-77221951D01*
X91907436Y-77304080D01*
X91907449Y-77304087D01*
X92029730Y-77354737D01*
X92044025Y-77360658D01*
X92044029Y-77360658D01*
X92044030Y-77360659D01*
X92189017Y-77389500D01*
X92189020Y-77389500D01*
X92336858Y-77389500D01*
X92434400Y-77370096D01*
X92481851Y-77360658D01*
X92618433Y-77304084D01*
X92741354Y-77221951D01*
X92845889Y-77117416D01*
X92928022Y-76994495D01*
X92984596Y-76857913D01*
X93013438Y-76712918D01*
X93013438Y-76565082D01*
X93013438Y-76565079D01*
X93013437Y-76565077D01*
X93005318Y-76524257D01*
X93001717Y-76506153D01*
X100442438Y-76506153D01*
X100442438Y-76663846D01*
X100473199Y-76818489D01*
X100473202Y-76818501D01*
X100533540Y-76964172D01*
X100533547Y-76964185D01*
X100621148Y-77095288D01*
X100621151Y-77095292D01*
X100732645Y-77206786D01*
X100732649Y-77206789D01*
X100863752Y-77294390D01*
X100863765Y-77294397D01*
X101009436Y-77354735D01*
X101009441Y-77354737D01*
X101164091Y-77385499D01*
X101164094Y-77385500D01*
X101164096Y-77385500D01*
X101321782Y-77385500D01*
X101321783Y-77385499D01*
X101476435Y-77354737D01*
X101622117Y-77294394D01*
X101753227Y-77206789D01*
X101864727Y-77095289D01*
X101952332Y-76964179D01*
X102012675Y-76818497D01*
X102033676Y-76712920D01*
X103012437Y-76712920D01*
X103041278Y-76857907D01*
X103041281Y-76857917D01*
X103097850Y-76994488D01*
X103097857Y-76994501D01*
X103179986Y-77117415D01*
X103179989Y-77117419D01*
X103284518Y-77221948D01*
X103284522Y-77221951D01*
X103407436Y-77304080D01*
X103407449Y-77304087D01*
X103529730Y-77354737D01*
X103544025Y-77360658D01*
X103544029Y-77360658D01*
X103544030Y-77360659D01*
X103689017Y-77389500D01*
X103689020Y-77389500D01*
X103836858Y-77389500D01*
X103934400Y-77370096D01*
X103981851Y-77360658D01*
X104118433Y-77304084D01*
X104241354Y-77221951D01*
X104345889Y-77117416D01*
X104428022Y-76994495D01*
X104484596Y-76857913D01*
X104513438Y-76712918D01*
X104513438Y-76565082D01*
X104513438Y-76565079D01*
X104513437Y-76565077D01*
X104505318Y-76524257D01*
X104501717Y-76506153D01*
X111942438Y-76506153D01*
X111942438Y-76663846D01*
X111973199Y-76818489D01*
X111973202Y-76818501D01*
X112033540Y-76964172D01*
X112033547Y-76964185D01*
X112121148Y-77095288D01*
X112121151Y-77095292D01*
X112232645Y-77206786D01*
X112232649Y-77206789D01*
X112363752Y-77294390D01*
X112363765Y-77294397D01*
X112509436Y-77354735D01*
X112509441Y-77354737D01*
X112664091Y-77385499D01*
X112664094Y-77385500D01*
X112664096Y-77385500D01*
X112821782Y-77385500D01*
X112821783Y-77385499D01*
X112976435Y-77354737D01*
X113122117Y-77294394D01*
X113253227Y-77206789D01*
X113364727Y-77095289D01*
X113452332Y-76964179D01*
X113512675Y-76818497D01*
X113533676Y-76712920D01*
X114512437Y-76712920D01*
X114541278Y-76857907D01*
X114541281Y-76857917D01*
X114597850Y-76994488D01*
X114597857Y-76994501D01*
X114679986Y-77117415D01*
X114679989Y-77117419D01*
X114784518Y-77221948D01*
X114784522Y-77221951D01*
X114907436Y-77304080D01*
X114907449Y-77304087D01*
X115029730Y-77354737D01*
X115044025Y-77360658D01*
X115044029Y-77360658D01*
X115044030Y-77360659D01*
X115189017Y-77389500D01*
X115189020Y-77389500D01*
X115336858Y-77389500D01*
X115434400Y-77370096D01*
X115481851Y-77360658D01*
X115618433Y-77304084D01*
X115741354Y-77221951D01*
X115845889Y-77117416D01*
X115928022Y-76994495D01*
X115984596Y-76857913D01*
X116013438Y-76712918D01*
X116013438Y-76565082D01*
X116013438Y-76565079D01*
X115984597Y-76420092D01*
X115984596Y-76420091D01*
X115984596Y-76420087D01*
X115956186Y-76351498D01*
X115928025Y-76283511D01*
X115928018Y-76283498D01*
X115845889Y-76160584D01*
X115845886Y-76160580D01*
X115741357Y-76056051D01*
X115741353Y-76056048D01*
X115618439Y-75973919D01*
X115618426Y-75973912D01*
X115481855Y-75917343D01*
X115481845Y-75917340D01*
X115336858Y-75888500D01*
X115336856Y-75888500D01*
X115189020Y-75888500D01*
X115189018Y-75888500D01*
X115044030Y-75917340D01*
X115044020Y-75917343D01*
X114907449Y-75973912D01*
X114907436Y-75973919D01*
X114784522Y-76056048D01*
X114784518Y-76056051D01*
X114679989Y-76160580D01*
X114679986Y-76160584D01*
X114597857Y-76283498D01*
X114597850Y-76283511D01*
X114541281Y-76420082D01*
X114541278Y-76420092D01*
X114512438Y-76565079D01*
X114512438Y-76565082D01*
X114512438Y-76712918D01*
X114512438Y-76712920D01*
X114512437Y-76712920D01*
X113533676Y-76712920D01*
X113543438Y-76663842D01*
X113543438Y-76506158D01*
X113543438Y-76506155D01*
X113543437Y-76506153D01*
X113512675Y-76351503D01*
X113484507Y-76283498D01*
X113452335Y-76205827D01*
X113452328Y-76205814D01*
X113364727Y-76074711D01*
X113364724Y-76074707D01*
X113253230Y-75963213D01*
X113253226Y-75963210D01*
X113122123Y-75875609D01*
X113122110Y-75875602D01*
X112976439Y-75815264D01*
X112976427Y-75815261D01*
X112821783Y-75784500D01*
X112821780Y-75784500D01*
X112664096Y-75784500D01*
X112664093Y-75784500D01*
X112509448Y-75815261D01*
X112509436Y-75815264D01*
X112363765Y-75875602D01*
X112363752Y-75875609D01*
X112232649Y-75963210D01*
X112232645Y-75963213D01*
X112121151Y-76074707D01*
X112121148Y-76074711D01*
X112033547Y-76205814D01*
X112033540Y-76205827D01*
X111973202Y-76351498D01*
X111973199Y-76351510D01*
X111942438Y-76506153D01*
X104501717Y-76506153D01*
X104484597Y-76420092D01*
X104484596Y-76420091D01*
X104484596Y-76420087D01*
X104456186Y-76351498D01*
X104428025Y-76283511D01*
X104428018Y-76283498D01*
X104345889Y-76160584D01*
X104345886Y-76160580D01*
X104241357Y-76056051D01*
X104241353Y-76056048D01*
X104118439Y-75973919D01*
X104118426Y-75973912D01*
X103981855Y-75917343D01*
X103981845Y-75917340D01*
X103836858Y-75888500D01*
X103836856Y-75888500D01*
X103689020Y-75888500D01*
X103689018Y-75888500D01*
X103544030Y-75917340D01*
X103544020Y-75917343D01*
X103407449Y-75973912D01*
X103407436Y-75973919D01*
X103284522Y-76056048D01*
X103284518Y-76056051D01*
X103179989Y-76160580D01*
X103179986Y-76160584D01*
X103097857Y-76283498D01*
X103097850Y-76283511D01*
X103041281Y-76420082D01*
X103041278Y-76420092D01*
X103012438Y-76565079D01*
X103012438Y-76565082D01*
X103012438Y-76712918D01*
X103012438Y-76712920D01*
X103012437Y-76712920D01*
X102033676Y-76712920D01*
X102043438Y-76663842D01*
X102043438Y-76506158D01*
X102043438Y-76506155D01*
X102043437Y-76506153D01*
X102012675Y-76351503D01*
X101984507Y-76283498D01*
X101952335Y-76205827D01*
X101952328Y-76205814D01*
X101864727Y-76074711D01*
X101864724Y-76074707D01*
X101753230Y-75963213D01*
X101753226Y-75963210D01*
X101622123Y-75875609D01*
X101622110Y-75875602D01*
X101476439Y-75815264D01*
X101476427Y-75815261D01*
X101321783Y-75784500D01*
X101321780Y-75784500D01*
X101164096Y-75784500D01*
X101164093Y-75784500D01*
X101009448Y-75815261D01*
X101009436Y-75815264D01*
X100863765Y-75875602D01*
X100863752Y-75875609D01*
X100732649Y-75963210D01*
X100732645Y-75963213D01*
X100621151Y-76074707D01*
X100621148Y-76074711D01*
X100533547Y-76205814D01*
X100533540Y-76205827D01*
X100473202Y-76351498D01*
X100473199Y-76351510D01*
X100442438Y-76506153D01*
X93001717Y-76506153D01*
X92984597Y-76420092D01*
X92984596Y-76420091D01*
X92984596Y-76420087D01*
X92956186Y-76351498D01*
X92928025Y-76283511D01*
X92928018Y-76283498D01*
X92845889Y-76160584D01*
X92845886Y-76160580D01*
X92741357Y-76056051D01*
X92741353Y-76056048D01*
X92618439Y-75973919D01*
X92618426Y-75973912D01*
X92481855Y-75917343D01*
X92481845Y-75917340D01*
X92336858Y-75888500D01*
X92336856Y-75888500D01*
X92189020Y-75888500D01*
X92189018Y-75888500D01*
X92044030Y-75917340D01*
X92044020Y-75917343D01*
X91907449Y-75973912D01*
X91907436Y-75973919D01*
X91784522Y-76056048D01*
X91784518Y-76056051D01*
X91679989Y-76160580D01*
X91679986Y-76160584D01*
X91597857Y-76283498D01*
X91597850Y-76283511D01*
X91541281Y-76420082D01*
X91541278Y-76420092D01*
X91512438Y-76565079D01*
X91512438Y-76565082D01*
X91512438Y-76712918D01*
X91512438Y-76712920D01*
X91512437Y-76712920D01*
X90533676Y-76712920D01*
X90543438Y-76663842D01*
X90543438Y-76506158D01*
X90543438Y-76506155D01*
X90543437Y-76506153D01*
X90512675Y-76351503D01*
X90484507Y-76283498D01*
X90452335Y-76205827D01*
X90452328Y-76205814D01*
X90364727Y-76074711D01*
X90364724Y-76074707D01*
X90253230Y-75963213D01*
X90253226Y-75963210D01*
X90122123Y-75875609D01*
X90122110Y-75875602D01*
X89976439Y-75815264D01*
X89976427Y-75815261D01*
X89821783Y-75784500D01*
X89821780Y-75784500D01*
X89664096Y-75784500D01*
X89664093Y-75784500D01*
X89509448Y-75815261D01*
X89509436Y-75815264D01*
X89363765Y-75875602D01*
X89363752Y-75875609D01*
X89232649Y-75963210D01*
X89232645Y-75963213D01*
X89121151Y-76074707D01*
X89121148Y-76074711D01*
X89033547Y-76205814D01*
X89033540Y-76205827D01*
X88973202Y-76351498D01*
X88973199Y-76351510D01*
X88942438Y-76506153D01*
X79220184Y-76506153D01*
X79171904Y-76432823D01*
X79169655Y-76429278D01*
X78731621Y-75712234D01*
X78713438Y-75647591D01*
X78713438Y-70631844D01*
X79292938Y-70631844D01*
X79299339Y-70691372D01*
X79299341Y-70691379D01*
X79349583Y-70826086D01*
X79349587Y-70826093D01*
X79435747Y-70941187D01*
X79435750Y-70941190D01*
X79550844Y-71027350D01*
X79550851Y-71027354D01*
X79685558Y-71077596D01*
X79685565Y-71077598D01*
X79745093Y-71083999D01*
X79745110Y-71084000D01*
X80832938Y-71084000D01*
X81332938Y-71084000D01*
X82420766Y-71084000D01*
X82420782Y-71083999D01*
X82480310Y-71077598D01*
X82480317Y-71077596D01*
X82615024Y-71027354D01*
X82615031Y-71027350D01*
X82730125Y-70941190D01*
X82730128Y-70941187D01*
X82816288Y-70826093D01*
X82816292Y-70826086D01*
X82866534Y-70691379D01*
X82866536Y-70691372D01*
X82872937Y-70631844D01*
X83462938Y-70631844D01*
X83469339Y-70691372D01*
X83469341Y-70691379D01*
X83519583Y-70826086D01*
X83519587Y-70826093D01*
X83605747Y-70941187D01*
X83605750Y-70941190D01*
X83720844Y-71027350D01*
X83720851Y-71027354D01*
X83855558Y-71077596D01*
X83855565Y-71077598D01*
X83915093Y-71083999D01*
X83915110Y-71084000D01*
X85002938Y-71084000D01*
X85502938Y-71084000D01*
X86590766Y-71084000D01*
X86590782Y-71083999D01*
X86650310Y-71077598D01*
X86650317Y-71077596D01*
X86785024Y-71027354D01*
X86785031Y-71027350D01*
X86900125Y-70941190D01*
X86900128Y-70941187D01*
X86986288Y-70826093D01*
X86986292Y-70826086D01*
X87036534Y-70691379D01*
X87036536Y-70691372D01*
X87042937Y-70631844D01*
X87042938Y-70631827D01*
X87042938Y-70334000D01*
X85502938Y-70334000D01*
X85502938Y-71084000D01*
X85002938Y-71084000D01*
X85002938Y-70334000D01*
X83462938Y-70334000D01*
X83462938Y-70631844D01*
X82872937Y-70631844D01*
X82872938Y-70631827D01*
X82872938Y-70334000D01*
X81332938Y-70334000D01*
X81332938Y-71084000D01*
X80832938Y-71084000D01*
X80832938Y-70334000D01*
X79292938Y-70334000D01*
X79292938Y-70631844D01*
X78713438Y-70631844D01*
X78713438Y-70037922D01*
X80732938Y-70037922D01*
X80732938Y-70130078D01*
X80756790Y-70219095D01*
X80802868Y-70298905D01*
X80868033Y-70364070D01*
X80947843Y-70410148D01*
X81036860Y-70434000D01*
X81129016Y-70434000D01*
X81218033Y-70410148D01*
X81297843Y-70364070D01*
X81363008Y-70298905D01*
X81409086Y-70219095D01*
X81432938Y-70130078D01*
X81432938Y-70037922D01*
X84902938Y-70037922D01*
X84902938Y-70130078D01*
X84926790Y-70219095D01*
X84972868Y-70298905D01*
X85038033Y-70364070D01*
X85117843Y-70410148D01*
X85206860Y-70434000D01*
X85299016Y-70434000D01*
X85388033Y-70410148D01*
X85467843Y-70364070D01*
X85533008Y-70298905D01*
X85579086Y-70219095D01*
X85602938Y-70130078D01*
X85602938Y-70037922D01*
X85579086Y-69948905D01*
X85533008Y-69869095D01*
X85497913Y-69834000D01*
X85502938Y-69834000D01*
X87042938Y-69834000D01*
X87042938Y-69536172D01*
X87042937Y-69536155D01*
X87036536Y-69476627D01*
X87036534Y-69476620D01*
X86986292Y-69341913D01*
X86986288Y-69341906D01*
X86900128Y-69226813D01*
X86841959Y-69183267D01*
X86800088Y-69127333D01*
X86795104Y-69057641D01*
X86828589Y-68996318D01*
X86841959Y-68984733D01*
X86900128Y-68941186D01*
X86986288Y-68826093D01*
X86986292Y-68826086D01*
X87036534Y-68691379D01*
X87036536Y-68691372D01*
X87042937Y-68631844D01*
X87042938Y-68631827D01*
X87042938Y-68334000D01*
X85502938Y-68334000D01*
X85502938Y-69834000D01*
X85497913Y-69834000D01*
X85467843Y-69803930D01*
X85388033Y-69757852D01*
X85299016Y-69734000D01*
X85206860Y-69734000D01*
X85117843Y-69757852D01*
X85038033Y-69803930D01*
X84972868Y-69869095D01*
X84926790Y-69948905D01*
X84902938Y-70037922D01*
X81432938Y-70037922D01*
X81409086Y-69948905D01*
X81363008Y-69869095D01*
X81327913Y-69834000D01*
X81332938Y-69834000D01*
X82872938Y-69834000D01*
X82872938Y-69536172D01*
X82872937Y-69536155D01*
X82866536Y-69476627D01*
X82866534Y-69476620D01*
X82816292Y-69341913D01*
X82816288Y-69341906D01*
X82730128Y-69226813D01*
X82671959Y-69183267D01*
X82630088Y-69127333D01*
X82625104Y-69057641D01*
X82658589Y-68996318D01*
X82671959Y-68984733D01*
X82730128Y-68941186D01*
X82816288Y-68826093D01*
X82816292Y-68826086D01*
X82866534Y-68691379D01*
X82866536Y-68691372D01*
X82872937Y-68631844D01*
X83462938Y-68631844D01*
X83469339Y-68691372D01*
X83469341Y-68691379D01*
X83519583Y-68826086D01*
X83519587Y-68826093D01*
X83605747Y-68941187D01*
X83663917Y-68984734D01*
X83705787Y-69040668D01*
X83710771Y-69110360D01*
X83677285Y-69171683D01*
X83663917Y-69183266D01*
X83605747Y-69226812D01*
X83519587Y-69341906D01*
X83519583Y-69341913D01*
X83469341Y-69476620D01*
X83469339Y-69476627D01*
X83462938Y-69536155D01*
X83462938Y-69834000D01*
X85002938Y-69834000D01*
X85002938Y-68334000D01*
X83462938Y-68334000D01*
X83462938Y-68631844D01*
X82872937Y-68631844D01*
X82872938Y-68631827D01*
X82872938Y-68334000D01*
X81332938Y-68334000D01*
X81332938Y-69834000D01*
X81327913Y-69834000D01*
X81297843Y-69803930D01*
X81218033Y-69757852D01*
X81129016Y-69734000D01*
X81036860Y-69734000D01*
X80947843Y-69757852D01*
X80868033Y-69803930D01*
X80802868Y-69869095D01*
X80756790Y-69948905D01*
X80732938Y-70037922D01*
X78713438Y-70037922D01*
X78713438Y-68631844D01*
X79292938Y-68631844D01*
X79299339Y-68691372D01*
X79299341Y-68691379D01*
X79349583Y-68826086D01*
X79349587Y-68826093D01*
X79435747Y-68941187D01*
X79493917Y-68984734D01*
X79535787Y-69040668D01*
X79540771Y-69110360D01*
X79507285Y-69171683D01*
X79493917Y-69183266D01*
X79435747Y-69226812D01*
X79349587Y-69341906D01*
X79349583Y-69341913D01*
X79299341Y-69476620D01*
X79299339Y-69476627D01*
X79292938Y-69536155D01*
X79292938Y-69834000D01*
X80832938Y-69834000D01*
X80832938Y-68334000D01*
X79292938Y-68334000D01*
X79292938Y-68631844D01*
X78713438Y-68631844D01*
X78713438Y-51536135D01*
X79292438Y-51536135D01*
X79292438Y-52631870D01*
X79292439Y-52631876D01*
X79298846Y-52691483D01*
X79349140Y-52826328D01*
X79349144Y-52826335D01*
X79435390Y-52941544D01*
X79435391Y-52941544D01*
X79435392Y-52941546D01*
X79444075Y-52948046D01*
X79493083Y-52984734D01*
X79534953Y-53040668D01*
X79539937Y-53110360D01*
X79506451Y-53171683D01*
X79493083Y-53183266D01*
X79435390Y-53226455D01*
X79349144Y-53341664D01*
X79349140Y-53341671D01*
X79298846Y-53476517D01*
X79292439Y-53536116D01*
X79292439Y-53536123D01*
X79292438Y-53536135D01*
X79292438Y-54631870D01*
X79292439Y-54631876D01*
X79298846Y-54691483D01*
X79349140Y-54826328D01*
X79349144Y-54826335D01*
X79435390Y-54941544D01*
X79435391Y-54941544D01*
X79435392Y-54941546D01*
X79464553Y-54963376D01*
X79493083Y-54984734D01*
X79534953Y-55040668D01*
X79539937Y-55110360D01*
X79506451Y-55171683D01*
X79493083Y-55183266D01*
X79435390Y-55226455D01*
X79349144Y-55341664D01*
X79349140Y-55341671D01*
X79298846Y-55476517D01*
X79292439Y-55536116D01*
X79292439Y-55536123D01*
X79292438Y-55536135D01*
X79292438Y-56631870D01*
X79292439Y-56631876D01*
X79298846Y-56691483D01*
X79349140Y-56826328D01*
X79349144Y-56826335D01*
X79435390Y-56941544D01*
X79435391Y-56941544D01*
X79435392Y-56941546D01*
X79464553Y-56963376D01*
X79493083Y-56984734D01*
X79534953Y-57040668D01*
X79539937Y-57110360D01*
X79506451Y-57171683D01*
X79493083Y-57183266D01*
X79435390Y-57226455D01*
X79349144Y-57341664D01*
X79349140Y-57341671D01*
X79298846Y-57476517D01*
X79292439Y-57536116D01*
X79292439Y-57536123D01*
X79292438Y-57536135D01*
X79292438Y-58631870D01*
X79292439Y-58631876D01*
X79298846Y-58691483D01*
X79349140Y-58826328D01*
X79349144Y-58826335D01*
X79435390Y-58941544D01*
X79435391Y-58941544D01*
X79435392Y-58941546D01*
X79470665Y-58967951D01*
X79493500Y-58985046D01*
X79535370Y-59040980D01*
X79540354Y-59110672D01*
X79506868Y-59171994D01*
X79493500Y-59183578D01*
X79435747Y-59226812D01*
X79349587Y-59341906D01*
X79349583Y-59341913D01*
X79299341Y-59476620D01*
X79299339Y-59476627D01*
X79292938Y-59536155D01*
X79292938Y-59834000D01*
X80837963Y-59834000D01*
X80802868Y-59869095D01*
X80756790Y-59948905D01*
X80732938Y-60037922D01*
X80732938Y-60130078D01*
X80756790Y-60219095D01*
X80802868Y-60298905D01*
X80837963Y-60334000D01*
X79292938Y-60334000D01*
X79292938Y-60631844D01*
X79299339Y-60691372D01*
X79299341Y-60691379D01*
X79349583Y-60826086D01*
X79349587Y-60826093D01*
X79435747Y-60941186D01*
X79493499Y-60984420D01*
X79535370Y-61040354D01*
X79540354Y-61110046D01*
X79506869Y-61171369D01*
X79493501Y-61182952D01*
X79435392Y-61226453D01*
X79435390Y-61226455D01*
X79349144Y-61341664D01*
X79349140Y-61341671D01*
X79298846Y-61476517D01*
X79292439Y-61536116D01*
X79292439Y-61536123D01*
X79292438Y-61536135D01*
X79292438Y-62631870D01*
X79292439Y-62631876D01*
X79298846Y-62691483D01*
X79349140Y-62826328D01*
X79349144Y-62826335D01*
X79435390Y-62941544D01*
X79435391Y-62941544D01*
X79435392Y-62941546D01*
X79464553Y-62963376D01*
X79493083Y-62984734D01*
X79534953Y-63040668D01*
X79539937Y-63110360D01*
X79506451Y-63171683D01*
X79493083Y-63183266D01*
X79435390Y-63226455D01*
X79349144Y-63341664D01*
X79349140Y-63341671D01*
X79298846Y-63476517D01*
X79292439Y-63536116D01*
X79292439Y-63536123D01*
X79292438Y-63536135D01*
X79292438Y-64631870D01*
X79292439Y-64631876D01*
X79298846Y-64691483D01*
X79349140Y-64826328D01*
X79349144Y-64826335D01*
X79435390Y-64941544D01*
X79435391Y-64941544D01*
X79435392Y-64941546D01*
X79464553Y-64963376D01*
X79493083Y-64984734D01*
X79534953Y-65040668D01*
X79539937Y-65110360D01*
X79506451Y-65171683D01*
X79493083Y-65183266D01*
X79435390Y-65226455D01*
X79349144Y-65341664D01*
X79349140Y-65341671D01*
X79298846Y-65476517D01*
X79292439Y-65536116D01*
X79292439Y-65536123D01*
X79292438Y-65536135D01*
X79292438Y-66631870D01*
X79292439Y-66631876D01*
X79298846Y-66691483D01*
X79349140Y-66826328D01*
X79349144Y-66826335D01*
X79435390Y-66941544D01*
X79435391Y-66941544D01*
X79435392Y-66941546D01*
X79436545Y-66942409D01*
X79493500Y-66985046D01*
X79535370Y-67040980D01*
X79540354Y-67110672D01*
X79506868Y-67171994D01*
X79493500Y-67183578D01*
X79435747Y-67226812D01*
X79349587Y-67341906D01*
X79349583Y-67341913D01*
X79299341Y-67476620D01*
X79299339Y-67476627D01*
X79292938Y-67536155D01*
X79292938Y-67834000D01*
X80837963Y-67834000D01*
X80802868Y-67869095D01*
X80756790Y-67948905D01*
X80732938Y-68037922D01*
X80732938Y-68130078D01*
X80756790Y-68219095D01*
X80802868Y-68298905D01*
X80868033Y-68364070D01*
X80947843Y-68410148D01*
X81036860Y-68434000D01*
X81129016Y-68434000D01*
X81218033Y-68410148D01*
X81297843Y-68364070D01*
X81363008Y-68298905D01*
X81409086Y-68219095D01*
X81432938Y-68130078D01*
X81432938Y-68037922D01*
X81409086Y-67948905D01*
X81363008Y-67869095D01*
X81327913Y-67834000D01*
X82872938Y-67834000D01*
X82872938Y-67536172D01*
X82872937Y-67536155D01*
X82866536Y-67476627D01*
X82866534Y-67476620D01*
X82816292Y-67341913D01*
X82816288Y-67341906D01*
X82730128Y-67226812D01*
X82730125Y-67226809D01*
X82672376Y-67183578D01*
X82630505Y-67127645D01*
X82625521Y-67057953D01*
X82659007Y-66996630D01*
X82672370Y-66985049D01*
X82730484Y-66941546D01*
X82816734Y-66826331D01*
X82867029Y-66691483D01*
X82873438Y-66631873D01*
X82873437Y-65536128D01*
X82867029Y-65476517D01*
X82816822Y-65341906D01*
X82816735Y-65341671D01*
X82816731Y-65341664D01*
X82765061Y-65272643D01*
X82730484Y-65226454D01*
X82672792Y-65183265D01*
X82630922Y-65127333D01*
X82625938Y-65057641D01*
X82659423Y-64996318D01*
X82672792Y-64984734D01*
X82730484Y-64941546D01*
X82816734Y-64826331D01*
X82867029Y-64691483D01*
X82873438Y-64631873D01*
X82873437Y-63536128D01*
X82867029Y-63476517D01*
X82835981Y-63393274D01*
X82816735Y-63341671D01*
X82816731Y-63341664D01*
X82730752Y-63226812D01*
X82730484Y-63226454D01*
X82672792Y-63183265D01*
X82630922Y-63127333D01*
X82625938Y-63057641D01*
X82659423Y-62996318D01*
X82672792Y-62984734D01*
X82730484Y-62941546D01*
X82816734Y-62826331D01*
X82867029Y-62691483D01*
X82873438Y-62631873D01*
X82873437Y-61536135D01*
X83462438Y-61536135D01*
X83462438Y-62631870D01*
X83462439Y-62631876D01*
X83468846Y-62691483D01*
X83519140Y-62826328D01*
X83519144Y-62826335D01*
X83605390Y-62941544D01*
X83605391Y-62941544D01*
X83605392Y-62941546D01*
X83634553Y-62963376D01*
X83663083Y-62984734D01*
X83704953Y-63040668D01*
X83709937Y-63110360D01*
X83676451Y-63171683D01*
X83663083Y-63183266D01*
X83605390Y-63226455D01*
X83519144Y-63341664D01*
X83519140Y-63341671D01*
X83468846Y-63476517D01*
X83462439Y-63536116D01*
X83462439Y-63536123D01*
X83462438Y-63536135D01*
X83462438Y-64631870D01*
X83462439Y-64631876D01*
X83468846Y-64691483D01*
X83519140Y-64826328D01*
X83519144Y-64826335D01*
X83605390Y-64941544D01*
X83605391Y-64941544D01*
X83605392Y-64941546D01*
X83634553Y-64963376D01*
X83663083Y-64984734D01*
X83704953Y-65040668D01*
X83709937Y-65110360D01*
X83676451Y-65171683D01*
X83663083Y-65183266D01*
X83605390Y-65226455D01*
X83519144Y-65341664D01*
X83519140Y-65341671D01*
X83468846Y-65476517D01*
X83462439Y-65536116D01*
X83462439Y-65536123D01*
X83462438Y-65536135D01*
X83462438Y-66631870D01*
X83462439Y-66631876D01*
X83468846Y-66691483D01*
X83519140Y-66826328D01*
X83519144Y-66826335D01*
X83605390Y-66941544D01*
X83605391Y-66941544D01*
X83605392Y-66941546D01*
X83606545Y-66942409D01*
X83663500Y-66985046D01*
X83705370Y-67040980D01*
X83710354Y-67110672D01*
X83676868Y-67171994D01*
X83663500Y-67183578D01*
X83605747Y-67226812D01*
X83519587Y-67341906D01*
X83519583Y-67341913D01*
X83469341Y-67476620D01*
X83469339Y-67476627D01*
X83462938Y-67536155D01*
X83462938Y-67834000D01*
X85007963Y-67834000D01*
X84972868Y-67869095D01*
X84926790Y-67948905D01*
X84902938Y-68037922D01*
X84902938Y-68130078D01*
X84926790Y-68219095D01*
X84972868Y-68298905D01*
X85038033Y-68364070D01*
X85117843Y-68410148D01*
X85206860Y-68434000D01*
X85299016Y-68434000D01*
X85388033Y-68410148D01*
X85467843Y-68364070D01*
X85533008Y-68298905D01*
X85579086Y-68219095D01*
X85602938Y-68130078D01*
X85602938Y-68037922D01*
X85579086Y-67948905D01*
X85533008Y-67869095D01*
X85497913Y-67834000D01*
X87042938Y-67834000D01*
X87042938Y-67536172D01*
X87042937Y-67536155D01*
X87036536Y-67476627D01*
X87036534Y-67476620D01*
X86986292Y-67341913D01*
X86986288Y-67341906D01*
X86900128Y-67226812D01*
X86900125Y-67226809D01*
X86842376Y-67183578D01*
X86800505Y-67127645D01*
X86795521Y-67057953D01*
X86829007Y-66996630D01*
X86842370Y-66985049D01*
X86900484Y-66941546D01*
X86986734Y-66826331D01*
X87037029Y-66691483D01*
X87043438Y-66631873D01*
X87043437Y-65536128D01*
X87037029Y-65476517D01*
X86986822Y-65341906D01*
X86986735Y-65341671D01*
X86986731Y-65341664D01*
X86935061Y-65272643D01*
X86900484Y-65226454D01*
X86842792Y-65183265D01*
X86800922Y-65127333D01*
X86795938Y-65057641D01*
X86829423Y-64996318D01*
X86842792Y-64984734D01*
X86900484Y-64941546D01*
X86986734Y-64826331D01*
X87037029Y-64691483D01*
X87043438Y-64631873D01*
X87043437Y-63536128D01*
X87037029Y-63476517D01*
X87005981Y-63393274D01*
X86986735Y-63341671D01*
X86986731Y-63341664D01*
X86900752Y-63226812D01*
X86900484Y-63226454D01*
X86842792Y-63183265D01*
X86800922Y-63127333D01*
X86795938Y-63057641D01*
X86829423Y-62996318D01*
X86842792Y-62984734D01*
X86900484Y-62941546D01*
X86986734Y-62826331D01*
X87037029Y-62691483D01*
X87043438Y-62631873D01*
X87043437Y-61536128D01*
X87037029Y-61476517D01*
X86986734Y-61341669D01*
X86986733Y-61341668D01*
X86986731Y-61341664D01*
X86900485Y-61226455D01*
X86900482Y-61226453D01*
X86842794Y-61183267D01*
X86842375Y-61182953D01*
X86800505Y-61127019D01*
X86795521Y-61057327D01*
X86829007Y-60996004D01*
X86842377Y-60984420D01*
X86900127Y-60941188D01*
X86900128Y-60941187D01*
X86986288Y-60826093D01*
X86986292Y-60826086D01*
X87036534Y-60691379D01*
X87036536Y-60691372D01*
X87042937Y-60631844D01*
X87042938Y-60631827D01*
X87042938Y-60334000D01*
X85497913Y-60334000D01*
X85533008Y-60298905D01*
X85579086Y-60219095D01*
X85602938Y-60130078D01*
X85602938Y-60037922D01*
X85579086Y-59948905D01*
X85533008Y-59869095D01*
X85497913Y-59834000D01*
X85502938Y-59834000D01*
X87042938Y-59834000D01*
X87042938Y-59536172D01*
X87042937Y-59536155D01*
X87036536Y-59476627D01*
X87036534Y-59476620D01*
X86986292Y-59341913D01*
X86986288Y-59341906D01*
X86900128Y-59226813D01*
X86841959Y-59183267D01*
X86800088Y-59127333D01*
X86795104Y-59057641D01*
X86828589Y-58996318D01*
X86841959Y-58984733D01*
X86900128Y-58941186D01*
X86986288Y-58826093D01*
X86986292Y-58826086D01*
X87036534Y-58691379D01*
X87036536Y-58691372D01*
X87042937Y-58631844D01*
X87042938Y-58631827D01*
X87042938Y-58334000D01*
X85502938Y-58334000D01*
X85502938Y-59834000D01*
X85497913Y-59834000D01*
X85467843Y-59803930D01*
X85388033Y-59757852D01*
X85299016Y-59734000D01*
X85206860Y-59734000D01*
X85117843Y-59757852D01*
X85038033Y-59803930D01*
X84972868Y-59869095D01*
X84926790Y-59948905D01*
X84902938Y-60037922D01*
X84902938Y-60130078D01*
X84926790Y-60219095D01*
X84972868Y-60298905D01*
X85007963Y-60334000D01*
X83462938Y-60334000D01*
X83462938Y-60631844D01*
X83469339Y-60691372D01*
X83469341Y-60691379D01*
X83519583Y-60826086D01*
X83519587Y-60826093D01*
X83605747Y-60941186D01*
X83663499Y-60984420D01*
X83705370Y-61040354D01*
X83710354Y-61110046D01*
X83676869Y-61171369D01*
X83663501Y-61182952D01*
X83605392Y-61226453D01*
X83605390Y-61226455D01*
X83519144Y-61341664D01*
X83519140Y-61341671D01*
X83468846Y-61476517D01*
X83462439Y-61536116D01*
X83462439Y-61536123D01*
X83462438Y-61536135D01*
X82873437Y-61536135D01*
X82873437Y-61536128D01*
X82867029Y-61476517D01*
X82816734Y-61341669D01*
X82816733Y-61341668D01*
X82816731Y-61341664D01*
X82730485Y-61226455D01*
X82730482Y-61226453D01*
X82672794Y-61183267D01*
X82672375Y-61182953D01*
X82630505Y-61127019D01*
X82625521Y-61057327D01*
X82659007Y-60996004D01*
X82672377Y-60984420D01*
X82730127Y-60941188D01*
X82730128Y-60941187D01*
X82816288Y-60826093D01*
X82816292Y-60826086D01*
X82866534Y-60691379D01*
X82866536Y-60691372D01*
X82872937Y-60631844D01*
X82872938Y-60631827D01*
X82872938Y-60334000D01*
X81327913Y-60334000D01*
X81363008Y-60298905D01*
X81409086Y-60219095D01*
X81432938Y-60130078D01*
X81432938Y-60037922D01*
X81409086Y-59948905D01*
X81363008Y-59869095D01*
X81327913Y-59834000D01*
X82872938Y-59834000D01*
X82872938Y-59536172D01*
X82872937Y-59536155D01*
X82866536Y-59476627D01*
X82866534Y-59476620D01*
X82816292Y-59341913D01*
X82816288Y-59341906D01*
X82730128Y-59226812D01*
X82730125Y-59226809D01*
X82672376Y-59183578D01*
X82630505Y-59127645D01*
X82625521Y-59057953D01*
X82659007Y-58996630D01*
X82672370Y-58985049D01*
X82730484Y-58941546D01*
X82816734Y-58826331D01*
X82867029Y-58691483D01*
X82873438Y-58631873D01*
X82873438Y-58631844D01*
X83462938Y-58631844D01*
X83469339Y-58691372D01*
X83469341Y-58691379D01*
X83519583Y-58826086D01*
X83519587Y-58826093D01*
X83605747Y-58941187D01*
X83663917Y-58984734D01*
X83705787Y-59040668D01*
X83710771Y-59110360D01*
X83677285Y-59171683D01*
X83663917Y-59183266D01*
X83605747Y-59226812D01*
X83519587Y-59341906D01*
X83519583Y-59341913D01*
X83469341Y-59476620D01*
X83469339Y-59476627D01*
X83462938Y-59536155D01*
X83462938Y-59834000D01*
X85002938Y-59834000D01*
X85002938Y-58334000D01*
X83462938Y-58334000D01*
X83462938Y-58631844D01*
X82873438Y-58631844D01*
X82873437Y-58037922D01*
X84902938Y-58037922D01*
X84902938Y-58130078D01*
X84926790Y-58219095D01*
X84972868Y-58298905D01*
X85038033Y-58364070D01*
X85117843Y-58410148D01*
X85206860Y-58434000D01*
X85299016Y-58434000D01*
X85388033Y-58410148D01*
X85467843Y-58364070D01*
X85533008Y-58298905D01*
X85579086Y-58219095D01*
X85602938Y-58130078D01*
X85602938Y-58037922D01*
X85579086Y-57948905D01*
X85533008Y-57869095D01*
X85497913Y-57834000D01*
X85502938Y-57834000D01*
X87042938Y-57834000D01*
X87042938Y-57536172D01*
X87042937Y-57536155D01*
X87036536Y-57476627D01*
X87036534Y-57476620D01*
X86986292Y-57341913D01*
X86986288Y-57341906D01*
X86900128Y-57226813D01*
X86841959Y-57183267D01*
X86800088Y-57127333D01*
X86795104Y-57057641D01*
X86828589Y-56996318D01*
X86841959Y-56984733D01*
X86900128Y-56941186D01*
X86986288Y-56826093D01*
X86986292Y-56826086D01*
X87036534Y-56691379D01*
X87036536Y-56691372D01*
X87042937Y-56631844D01*
X87042938Y-56631827D01*
X87042938Y-56334000D01*
X85502938Y-56334000D01*
X85502938Y-57834000D01*
X85497913Y-57834000D01*
X85467843Y-57803930D01*
X85388033Y-57757852D01*
X85299016Y-57734000D01*
X85206860Y-57734000D01*
X85117843Y-57757852D01*
X85038033Y-57803930D01*
X84972868Y-57869095D01*
X84926790Y-57948905D01*
X84902938Y-58037922D01*
X82873437Y-58037922D01*
X82873437Y-57536129D01*
X82873436Y-57536123D01*
X82873435Y-57536116D01*
X82867029Y-57476517D01*
X82816822Y-57341906D01*
X82816735Y-57341671D01*
X82816731Y-57341664D01*
X82765061Y-57272643D01*
X82730484Y-57226454D01*
X82672792Y-57183265D01*
X82630922Y-57127333D01*
X82625938Y-57057641D01*
X82659423Y-56996318D01*
X82672792Y-56984734D01*
X82730484Y-56941546D01*
X82816734Y-56826331D01*
X82867029Y-56691483D01*
X82873438Y-56631873D01*
X82873438Y-56631844D01*
X83462938Y-56631844D01*
X83469339Y-56691372D01*
X83469341Y-56691379D01*
X83519583Y-56826086D01*
X83519587Y-56826093D01*
X83605747Y-56941187D01*
X83663917Y-56984734D01*
X83705787Y-57040668D01*
X83710771Y-57110360D01*
X83677285Y-57171683D01*
X83663917Y-57183266D01*
X83605747Y-57226812D01*
X83519587Y-57341906D01*
X83519583Y-57341913D01*
X83469341Y-57476620D01*
X83469339Y-57476627D01*
X83462938Y-57536155D01*
X83462938Y-57834000D01*
X85002938Y-57834000D01*
X85002938Y-56334000D01*
X83462938Y-56334000D01*
X83462938Y-56631844D01*
X82873438Y-56631844D01*
X82873437Y-56072281D01*
X82873437Y-55536129D01*
X82873436Y-55536123D01*
X82873435Y-55536116D01*
X82867029Y-55476517D01*
X82816822Y-55341906D01*
X82816735Y-55341671D01*
X82816731Y-55341664D01*
X82730752Y-55226812D01*
X82730484Y-55226454D01*
X82672792Y-55183265D01*
X82630922Y-55127333D01*
X82625938Y-55057641D01*
X82659423Y-54996318D01*
X82672792Y-54984734D01*
X82730484Y-54941546D01*
X82816734Y-54826331D01*
X82867029Y-54691483D01*
X82873438Y-54631873D01*
X82873437Y-53536128D01*
X82867029Y-53476517D01*
X82816734Y-53341669D01*
X82816733Y-53341668D01*
X82816731Y-53341664D01*
X82730485Y-53226456D01*
X82730486Y-53226456D01*
X82730484Y-53226454D01*
X82672792Y-53183265D01*
X82630922Y-53127333D01*
X82625938Y-53057641D01*
X82659423Y-52996318D01*
X82672792Y-52984734D01*
X82730484Y-52941546D01*
X82816734Y-52826331D01*
X82867029Y-52691483D01*
X82873438Y-52631873D01*
X82873437Y-51536135D01*
X83462438Y-51536135D01*
X83462438Y-52631870D01*
X83462439Y-52631876D01*
X83468846Y-52691483D01*
X83519140Y-52826328D01*
X83519144Y-52826335D01*
X83605390Y-52941544D01*
X83605391Y-52941544D01*
X83605392Y-52941546D01*
X83614075Y-52948046D01*
X83663083Y-52984734D01*
X83704953Y-53040668D01*
X83709937Y-53110360D01*
X83676451Y-53171683D01*
X83663083Y-53183266D01*
X83605390Y-53226455D01*
X83519144Y-53341664D01*
X83519140Y-53341671D01*
X83468846Y-53476517D01*
X83462439Y-53536116D01*
X83462439Y-53536123D01*
X83462438Y-53536135D01*
X83462438Y-54631870D01*
X83462439Y-54631876D01*
X83468846Y-54691483D01*
X83519140Y-54826328D01*
X83519144Y-54826335D01*
X83605390Y-54941544D01*
X83605391Y-54941544D01*
X83605392Y-54941546D01*
X83640665Y-54967951D01*
X83663500Y-54985046D01*
X83705370Y-55040980D01*
X83710354Y-55110672D01*
X83676868Y-55171994D01*
X83663500Y-55183578D01*
X83605747Y-55226812D01*
X83519587Y-55341906D01*
X83519583Y-55341913D01*
X83469341Y-55476620D01*
X83469339Y-55476627D01*
X83462938Y-55536155D01*
X83462938Y-55834000D01*
X85007963Y-55834000D01*
X84972868Y-55869095D01*
X84926790Y-55948905D01*
X84902938Y-56037922D01*
X84902938Y-56130078D01*
X84926790Y-56219095D01*
X84972868Y-56298905D01*
X85038033Y-56364070D01*
X85117843Y-56410148D01*
X85206860Y-56434000D01*
X85299016Y-56434000D01*
X85388033Y-56410148D01*
X85467843Y-56364070D01*
X85533008Y-56298905D01*
X85579086Y-56219095D01*
X85602938Y-56130078D01*
X85602938Y-56037922D01*
X85579086Y-55948905D01*
X85533008Y-55869095D01*
X85497913Y-55834000D01*
X87042938Y-55834000D01*
X87042938Y-55536172D01*
X87042937Y-55536155D01*
X87036536Y-55476627D01*
X87036534Y-55476620D01*
X86986292Y-55341913D01*
X86986288Y-55341906D01*
X86900128Y-55226812D01*
X86900125Y-55226809D01*
X86842376Y-55183578D01*
X86800505Y-55127645D01*
X86795521Y-55057953D01*
X86829007Y-54996630D01*
X86842370Y-54985049D01*
X86900484Y-54941546D01*
X86986734Y-54826331D01*
X87037029Y-54691483D01*
X87043438Y-54631873D01*
X87043437Y-53536128D01*
X87037029Y-53476517D01*
X86986734Y-53341669D01*
X86986733Y-53341668D01*
X86986731Y-53341664D01*
X86900485Y-53226456D01*
X86900486Y-53226456D01*
X86900484Y-53226454D01*
X86842792Y-53183265D01*
X86800922Y-53127333D01*
X86795938Y-53057641D01*
X86828017Y-52997747D01*
X86834884Y-52990653D01*
X86900484Y-52941546D01*
X86962032Y-52859328D01*
X86967495Y-52853686D01*
X86991320Y-52840172D01*
X87013249Y-52823757D01*
X87021420Y-52823099D01*
X87028269Y-52819215D01*
X87052817Y-52820572D01*
X87080772Y-52818322D01*
X87132830Y-52828677D01*
X87147019Y-52831500D01*
X87147020Y-52831500D01*
X87294858Y-52831500D01*
X87392400Y-52812096D01*
X87439851Y-52802658D01*
X87576433Y-52746084D01*
X87576434Y-52746082D01*
X87579235Y-52744923D01*
X87648705Y-52737454D01*
X87674141Y-52744923D01*
X87676941Y-52746082D01*
X87676943Y-52746084D01*
X87813525Y-52802658D01*
X87813529Y-52802658D01*
X87813530Y-52802659D01*
X87958517Y-52831500D01*
X87958520Y-52831500D01*
X88106358Y-52831500D01*
X88203900Y-52812096D01*
X88251351Y-52802658D01*
X88387933Y-52746084D01*
X88387934Y-52746082D01*
X88390735Y-52744923D01*
X88460205Y-52737454D01*
X88485641Y-52744923D01*
X88488441Y-52746082D01*
X88488443Y-52746084D01*
X88625025Y-52802658D01*
X88625029Y-52802658D01*
X88625030Y-52802659D01*
X88770017Y-52831500D01*
X88770020Y-52831500D01*
X88917858Y-52831500D01*
X89015400Y-52812096D01*
X89062851Y-52802658D01*
X89199433Y-52746084D01*
X89210332Y-52738801D01*
X89277006Y-52717921D01*
X89344387Y-52736402D01*
X89348118Y-52738800D01*
X89399465Y-52773110D01*
X89399480Y-52773118D01*
X89536051Y-52829687D01*
X89536056Y-52829689D01*
X89536060Y-52829689D01*
X89536061Y-52829690D01*
X89681048Y-52858531D01*
X89834980Y-52858531D01*
X89834980Y-52861215D01*
X89892198Y-52872014D01*
X89923488Y-52894770D01*
X89940737Y-52912020D01*
X89940740Y-52912022D01*
X90063654Y-52994151D01*
X90063667Y-52994158D01*
X90200238Y-53050727D01*
X90200243Y-53050729D01*
X90200247Y-53050729D01*
X90200248Y-53050730D01*
X90345235Y-53079571D01*
X90345238Y-53079571D01*
X90493075Y-53079571D01*
X90517369Y-53074738D01*
X90586961Y-53080964D01*
X90629244Y-53108674D01*
X90655049Y-53134479D01*
X90655053Y-53134482D01*
X90777967Y-53216611D01*
X90777980Y-53216618D01*
X90908846Y-53270824D01*
X90914556Y-53273189D01*
X90914560Y-53273189D01*
X90914561Y-53273190D01*
X91059548Y-53302031D01*
X91059551Y-53302031D01*
X91207389Y-53302031D01*
X91265700Y-53290431D01*
X91352382Y-53273189D01*
X91352394Y-53273183D01*
X91358098Y-53271454D01*
X91427965Y-53270824D01*
X91487082Y-53308066D01*
X91516679Y-53371357D01*
X91507359Y-53440603D01*
X91499952Y-53454705D01*
X91132803Y-54056328D01*
X91132798Y-54056335D01*
X91132795Y-54056342D01*
X90789796Y-54691482D01*
X90779139Y-54711215D01*
X90460536Y-55383786D01*
X90460515Y-55383833D01*
X90177845Y-56072237D01*
X90177828Y-56072281D01*
X89931843Y-56774690D01*
X89931840Y-56774698D01*
X89931840Y-56774700D01*
X89726922Y-57476516D01*
X89723238Y-57489132D01*
X89552619Y-58213533D01*
X89552616Y-58213548D01*
X89420436Y-58945974D01*
X89420433Y-58945996D01*
X89327078Y-59684298D01*
X89327075Y-59684331D01*
X89272786Y-60426620D01*
X89260365Y-61040354D01*
X89258345Y-61140204D01*
X89257727Y-61170716D01*
X89257727Y-61170741D01*
X89281934Y-61914577D01*
X89345340Y-62656095D01*
X89345343Y-62656115D01*
X89447775Y-63393274D01*
X89475382Y-63536172D01*
X89588950Y-64124024D01*
X89763447Y-64826093D01*
X89768470Y-64846299D01*
X89768470Y-64846301D01*
X89985838Y-65558111D01*
X89985838Y-65558112D01*
X90240430Y-66257414D01*
X90240444Y-66257450D01*
X90531579Y-66942383D01*
X90531591Y-66942409D01*
X90858443Y-67611020D01*
X90858446Y-67611026D01*
X91196548Y-68219095D01*
X91220121Y-68261490D01*
X91574425Y-68826328D01*
X91615605Y-68891977D01*
X92043784Y-69500713D01*
X92503469Y-70086012D01*
X92993402Y-70646267D01*
X92993405Y-70646271D01*
X93512189Y-71179887D01*
X93512229Y-71179926D01*
X93671451Y-71327284D01*
X94058430Y-71685428D01*
X94630555Y-72161436D01*
X94630564Y-72161443D01*
X94630568Y-72161446D01*
X95226983Y-72606600D01*
X95226986Y-72606601D01*
X95226991Y-72606605D01*
X95418583Y-72734446D01*
X95846074Y-73019693D01*
X95846085Y-73019700D01*
X96044801Y-73137642D01*
X96486089Y-73399556D01*
X96486093Y-73399558D01*
X96486098Y-73399561D01*
X96486101Y-73399563D01*
X96957827Y-73646872D01*
X97145247Y-73745131D01*
X97386232Y-73855682D01*
X97821682Y-74055443D01*
X97821708Y-74055454D01*
X97821714Y-74055457D01*
X98513608Y-74329671D01*
X99219002Y-74567010D01*
X99935933Y-74766812D01*
X100662405Y-74928521D01*
X101396394Y-75051687D01*
X101396412Y-75051689D01*
X102135830Y-75135965D01*
X102135835Y-75135965D01*
X102135859Y-75135968D01*
X102878739Y-75181128D01*
X103622967Y-75187042D01*
X103622968Y-75187041D01*
X103622975Y-75187042D01*
X103622981Y-75187041D01*
X104366471Y-75153694D01*
X105107182Y-75081175D01*
X105843036Y-74969689D01*
X106571985Y-74819545D01*
X107292001Y-74631162D01*
X108001078Y-74405064D01*
X108426333Y-74244297D01*
X108697216Y-74141890D01*
X108697219Y-74141888D01*
X108697242Y-74141880D01*
X109378556Y-73842343D01*
X110043122Y-73507287D01*
X110689091Y-73137645D01*
X111314664Y-72734446D01*
X111918099Y-72298812D01*
X112442474Y-71876451D01*
X112507031Y-71849729D01*
X112575787Y-71862151D01*
X112607937Y-71885341D01*
X112874765Y-72152170D01*
X112874785Y-72152188D01*
X112909919Y-72187323D01*
X112909924Y-72187327D01*
X113078184Y-72302588D01*
X113264758Y-72384968D01*
X113264761Y-72384968D01*
X113264765Y-72384970D01*
X113383535Y-72412904D01*
X113463294Y-72431663D01*
X113667029Y-72441083D01*
X113869025Y-72412905D01*
X114062405Y-72348091D01*
X114240583Y-72248847D01*
X114397490Y-72118552D01*
X114527785Y-71961645D01*
X114627029Y-71783467D01*
X114691843Y-71590087D01*
X114720021Y-71388091D01*
X114710601Y-71184356D01*
X114709559Y-71179926D01*
X114663908Y-70985827D01*
X114663906Y-70985821D01*
X114663906Y-70985820D01*
X114581526Y-70799246D01*
X114466265Y-70630986D01*
X114466261Y-70630981D01*
X114431126Y-70595847D01*
X114431108Y-70595827D01*
X114164276Y-70328995D01*
X114130791Y-70267672D01*
X114135775Y-70197980D01*
X114155387Y-70163531D01*
X114185113Y-70126626D01*
X114577746Y-69639155D01*
X115013377Y-69035718D01*
X115416574Y-68410144D01*
X115786213Y-67764174D01*
X115901183Y-67536135D01*
X119682438Y-67536135D01*
X119682438Y-68631870D01*
X119682439Y-68631876D01*
X119688846Y-68691483D01*
X119739140Y-68826328D01*
X119739144Y-68826335D01*
X119825390Y-68941544D01*
X119825391Y-68941544D01*
X119825392Y-68941546D01*
X119854553Y-68963376D01*
X119883083Y-68984734D01*
X119924953Y-69040668D01*
X119929937Y-69110360D01*
X119896451Y-69171683D01*
X119883083Y-69183266D01*
X119825390Y-69226455D01*
X119739144Y-69341664D01*
X119739140Y-69341671D01*
X119688846Y-69476517D01*
X119686245Y-69500715D01*
X119682439Y-69536123D01*
X119682438Y-69536135D01*
X119682438Y-70631870D01*
X119682439Y-70631876D01*
X119688846Y-70691483D01*
X119739140Y-70826328D01*
X119739144Y-70826335D01*
X119825390Y-70941544D01*
X119825393Y-70941547D01*
X119940602Y-71027793D01*
X119940609Y-71027797D01*
X120075455Y-71078091D01*
X120075454Y-71078091D01*
X120082382Y-71078835D01*
X120135065Y-71084500D01*
X122810810Y-71084499D01*
X122870421Y-71078091D01*
X123005269Y-71027796D01*
X123120484Y-70941546D01*
X123206734Y-70826331D01*
X123257029Y-70691483D01*
X123263438Y-70631873D01*
X123263437Y-69536128D01*
X123257029Y-69476517D01*
X123206822Y-69341906D01*
X123206735Y-69341671D01*
X123206731Y-69341664D01*
X123155061Y-69272643D01*
X123120484Y-69226454D01*
X123062792Y-69183265D01*
X123020922Y-69127333D01*
X123015938Y-69057641D01*
X123049423Y-68996318D01*
X123062792Y-68984734D01*
X123120484Y-68941546D01*
X123206734Y-68826331D01*
X123257029Y-68691483D01*
X123263438Y-68631873D01*
X123263437Y-67536135D01*
X123852438Y-67536135D01*
X123852438Y-68631870D01*
X123852439Y-68631876D01*
X123858846Y-68691483D01*
X123909140Y-68826328D01*
X123909144Y-68826335D01*
X123995390Y-68941544D01*
X123995391Y-68941544D01*
X123995392Y-68941546D01*
X124024553Y-68963376D01*
X124053083Y-68984734D01*
X124094953Y-69040668D01*
X124099937Y-69110360D01*
X124066451Y-69171683D01*
X124053083Y-69183266D01*
X123995390Y-69226455D01*
X123909144Y-69341664D01*
X123909140Y-69341671D01*
X123858846Y-69476517D01*
X123856245Y-69500715D01*
X123852439Y-69536123D01*
X123852438Y-69536135D01*
X123852438Y-70631870D01*
X123852439Y-70631876D01*
X123858846Y-70691483D01*
X123909140Y-70826328D01*
X123909144Y-70826335D01*
X123995390Y-70941544D01*
X123995393Y-70941547D01*
X124110602Y-71027793D01*
X124110609Y-71027797D01*
X124245455Y-71078091D01*
X124245454Y-71078091D01*
X124252382Y-71078835D01*
X124305065Y-71084500D01*
X126980810Y-71084499D01*
X127040421Y-71078091D01*
X127175269Y-71027796D01*
X127290484Y-70941546D01*
X127376734Y-70826331D01*
X127427029Y-70691483D01*
X127433438Y-70631873D01*
X127433437Y-69536128D01*
X127427029Y-69476517D01*
X127376822Y-69341906D01*
X127376735Y-69341671D01*
X127376731Y-69341664D01*
X127325061Y-69272643D01*
X127290484Y-69226454D01*
X127232792Y-69183265D01*
X127190922Y-69127333D01*
X127185938Y-69057641D01*
X127219423Y-68996318D01*
X127232792Y-68984734D01*
X127290484Y-68941546D01*
X127376734Y-68826331D01*
X127427029Y-68691483D01*
X127433438Y-68631873D01*
X127433437Y-67536128D01*
X127427029Y-67476517D01*
X127376822Y-67341906D01*
X127376735Y-67341671D01*
X127376731Y-67341664D01*
X127290485Y-67226455D01*
X127290482Y-67226453D01*
X127272847Y-67213251D01*
X127232375Y-67182953D01*
X127190505Y-67127019D01*
X127185521Y-67057327D01*
X127219007Y-66996004D01*
X127232377Y-66984420D01*
X127290127Y-66941188D01*
X127290128Y-66941187D01*
X127376288Y-66826093D01*
X127376292Y-66826086D01*
X127426534Y-66691379D01*
X127426536Y-66691372D01*
X127432937Y-66631844D01*
X127432938Y-66631827D01*
X127432938Y-66334000D01*
X125887913Y-66334000D01*
X125923008Y-66298905D01*
X125969086Y-66219095D01*
X125992938Y-66130078D01*
X125992938Y-66037922D01*
X125969086Y-65948905D01*
X125923008Y-65869095D01*
X125887913Y-65834000D01*
X125892938Y-65834000D01*
X127432938Y-65834000D01*
X127432938Y-65536172D01*
X127432937Y-65536155D01*
X127426536Y-65476627D01*
X127426534Y-65476620D01*
X127376292Y-65341913D01*
X127376288Y-65341906D01*
X127290128Y-65226813D01*
X127231959Y-65183267D01*
X127190088Y-65127333D01*
X127185104Y-65057641D01*
X127218589Y-64996318D01*
X127231959Y-64984733D01*
X127290128Y-64941186D01*
X127376288Y-64826093D01*
X127376292Y-64826086D01*
X127426534Y-64691379D01*
X127426536Y-64691372D01*
X127432937Y-64631844D01*
X127432938Y-64631827D01*
X127432938Y-64334000D01*
X125892938Y-64334000D01*
X125892938Y-65834000D01*
X125887913Y-65834000D01*
X125857843Y-65803930D01*
X125778033Y-65757852D01*
X125689016Y-65734000D01*
X125596860Y-65734000D01*
X125507843Y-65757852D01*
X125428033Y-65803930D01*
X125362868Y-65869095D01*
X125316790Y-65948905D01*
X125292938Y-66037922D01*
X125292938Y-66130078D01*
X125316790Y-66219095D01*
X125362868Y-66298905D01*
X125397963Y-66334000D01*
X123852938Y-66334000D01*
X123852938Y-66631844D01*
X123859339Y-66691372D01*
X123859341Y-66691379D01*
X123909583Y-66826086D01*
X123909587Y-66826093D01*
X123995747Y-66941186D01*
X124053499Y-66984420D01*
X124095370Y-67040354D01*
X124100354Y-67110046D01*
X124066869Y-67171369D01*
X124053501Y-67182952D01*
X123995392Y-67226453D01*
X123995390Y-67226455D01*
X123909144Y-67341664D01*
X123909140Y-67341671D01*
X123858846Y-67476517D01*
X123852439Y-67536116D01*
X123852439Y-67536123D01*
X123852438Y-67536135D01*
X123263437Y-67536135D01*
X123263437Y-67536128D01*
X123257029Y-67476517D01*
X123206822Y-67341906D01*
X123206735Y-67341671D01*
X123206731Y-67341664D01*
X123120485Y-67226455D01*
X123120482Y-67226453D01*
X123102847Y-67213251D01*
X123062375Y-67182953D01*
X123020505Y-67127019D01*
X123015521Y-67057327D01*
X123049007Y-66996004D01*
X123062377Y-66984420D01*
X123120127Y-66941188D01*
X123120128Y-66941187D01*
X123206288Y-66826093D01*
X123206292Y-66826086D01*
X123256534Y-66691379D01*
X123256536Y-66691372D01*
X123262937Y-66631844D01*
X123262938Y-66631827D01*
X123262938Y-66334000D01*
X121717913Y-66334000D01*
X121753008Y-66298905D01*
X121799086Y-66219095D01*
X121822938Y-66130078D01*
X121822938Y-66037922D01*
X121799086Y-65948905D01*
X121753008Y-65869095D01*
X121717913Y-65834000D01*
X121722938Y-65834000D01*
X123262938Y-65834000D01*
X123262938Y-65536172D01*
X123262937Y-65536155D01*
X123256536Y-65476627D01*
X123256534Y-65476620D01*
X123206292Y-65341913D01*
X123206288Y-65341906D01*
X123120128Y-65226813D01*
X123061959Y-65183267D01*
X123020088Y-65127333D01*
X123015104Y-65057641D01*
X123048589Y-64996318D01*
X123061959Y-64984733D01*
X123120128Y-64941186D01*
X123206288Y-64826093D01*
X123206292Y-64826086D01*
X123256534Y-64691379D01*
X123256536Y-64691372D01*
X123262937Y-64631844D01*
X123852938Y-64631844D01*
X123859339Y-64691372D01*
X123859341Y-64691379D01*
X123909583Y-64826086D01*
X123909587Y-64826093D01*
X123995747Y-64941187D01*
X124053917Y-64984734D01*
X124095787Y-65040668D01*
X124100771Y-65110360D01*
X124067285Y-65171683D01*
X124053917Y-65183266D01*
X123995747Y-65226812D01*
X123909587Y-65341906D01*
X123909583Y-65341913D01*
X123859341Y-65476620D01*
X123859339Y-65476627D01*
X123852938Y-65536155D01*
X123852938Y-65834000D01*
X125392938Y-65834000D01*
X125392938Y-64334000D01*
X123852938Y-64334000D01*
X123852938Y-64631844D01*
X123262937Y-64631844D01*
X123262938Y-64631827D01*
X123262938Y-64334000D01*
X121722938Y-64334000D01*
X121722938Y-65834000D01*
X121717913Y-65834000D01*
X121687843Y-65803930D01*
X121608033Y-65757852D01*
X121519016Y-65734000D01*
X121426860Y-65734000D01*
X121337843Y-65757852D01*
X121258033Y-65803930D01*
X121192868Y-65869095D01*
X121146790Y-65948905D01*
X121122938Y-66037922D01*
X121122938Y-66130078D01*
X121146790Y-66219095D01*
X121192868Y-66298905D01*
X121227963Y-66334000D01*
X119682938Y-66334000D01*
X119682938Y-66631844D01*
X119689339Y-66691372D01*
X119689341Y-66691379D01*
X119739583Y-66826086D01*
X119739587Y-66826093D01*
X119825747Y-66941186D01*
X119883499Y-66984420D01*
X119925370Y-67040354D01*
X119930354Y-67110046D01*
X119896869Y-67171369D01*
X119883501Y-67182952D01*
X119825392Y-67226453D01*
X119825390Y-67226455D01*
X119739144Y-67341664D01*
X119739140Y-67341671D01*
X119688846Y-67476517D01*
X119682439Y-67536116D01*
X119682439Y-67536123D01*
X119682438Y-67536135D01*
X115901183Y-67536135D01*
X116121267Y-67099606D01*
X116420801Y-66418291D01*
X116423880Y-66410148D01*
X116564597Y-66037922D01*
X116683982Y-65722126D01*
X116910078Y-65013048D01*
X117009814Y-64631844D01*
X119682938Y-64631844D01*
X119689339Y-64691372D01*
X119689341Y-64691379D01*
X119739583Y-64826086D01*
X119739587Y-64826093D01*
X119825747Y-64941187D01*
X119883917Y-64984734D01*
X119925787Y-65040668D01*
X119930771Y-65110360D01*
X119897285Y-65171683D01*
X119883917Y-65183266D01*
X119825747Y-65226812D01*
X119739587Y-65341906D01*
X119739583Y-65341913D01*
X119689341Y-65476620D01*
X119689339Y-65476627D01*
X119682938Y-65536155D01*
X119682938Y-65834000D01*
X121222938Y-65834000D01*
X121222938Y-64334000D01*
X119682938Y-64334000D01*
X119682938Y-64631844D01*
X117009814Y-64631844D01*
X117098458Y-64293032D01*
X117248599Y-63564082D01*
X117360082Y-62828227D01*
X117432598Y-62087516D01*
X117465943Y-61344012D01*
X117460026Y-60599784D01*
X117436882Y-60219095D01*
X117414864Y-59856916D01*
X117414860Y-59856873D01*
X117330582Y-59117458D01*
X117330577Y-59117422D01*
X117308311Y-58984734D01*
X117207410Y-58383451D01*
X117045698Y-57656980D01*
X116845894Y-56940050D01*
X116608552Y-56234656D01*
X116463670Y-55869095D01*
X116334350Y-55542801D01*
X116334332Y-55542758D01*
X116331290Y-55536128D01*
X116078339Y-54984734D01*
X116024013Y-54866312D01*
X116024011Y-54866309D01*
X116024006Y-54866297D01*
X115932356Y-54691483D01*
X115678441Y-54207163D01*
X115678428Y-54207140D01*
X115298565Y-53567130D01*
X115298561Y-53567124D01*
X115298561Y-53567123D01*
X114885472Y-52948044D01*
X114885468Y-52948039D01*
X114562901Y-52515868D01*
X114440302Y-52351612D01*
X113964292Y-51779489D01*
X113739069Y-51536135D01*
X119682438Y-51536135D01*
X119682438Y-52631870D01*
X119682439Y-52631876D01*
X119688846Y-52691483D01*
X119739140Y-52826328D01*
X119739144Y-52826335D01*
X119825390Y-52941544D01*
X119825391Y-52941544D01*
X119825392Y-52941546D01*
X119834075Y-52948046D01*
X119883083Y-52984734D01*
X119924953Y-53040668D01*
X119929937Y-53110360D01*
X119896451Y-53171683D01*
X119883083Y-53183266D01*
X119825390Y-53226455D01*
X119739144Y-53341664D01*
X119739140Y-53341671D01*
X119688846Y-53476517D01*
X119682439Y-53536116D01*
X119682439Y-53536123D01*
X119682438Y-53536135D01*
X119682438Y-54631870D01*
X119682439Y-54631876D01*
X119688846Y-54691483D01*
X119739140Y-54826328D01*
X119739144Y-54826335D01*
X119825390Y-54941544D01*
X119825391Y-54941544D01*
X119825392Y-54941546D01*
X119854553Y-54963376D01*
X119883083Y-54984734D01*
X119924953Y-55040668D01*
X119929937Y-55110360D01*
X119896451Y-55171683D01*
X119883083Y-55183266D01*
X119825390Y-55226455D01*
X119739144Y-55341664D01*
X119739140Y-55341671D01*
X119688846Y-55476517D01*
X119682439Y-55536116D01*
X119682439Y-55536123D01*
X119682438Y-55536135D01*
X119682438Y-56631870D01*
X119682439Y-56631876D01*
X119688846Y-56691483D01*
X119739140Y-56826328D01*
X119739144Y-56826335D01*
X119825390Y-56941544D01*
X119825391Y-56941544D01*
X119825392Y-56941546D01*
X119854553Y-56963376D01*
X119883083Y-56984734D01*
X119924953Y-57040668D01*
X119929937Y-57110360D01*
X119896451Y-57171683D01*
X119883083Y-57183266D01*
X119825390Y-57226455D01*
X119739144Y-57341664D01*
X119739140Y-57341671D01*
X119688846Y-57476517D01*
X119682439Y-57536116D01*
X119682439Y-57536123D01*
X119682438Y-57536135D01*
X119682438Y-58631870D01*
X119682439Y-58631876D01*
X119688846Y-58691483D01*
X119739140Y-58826328D01*
X119739144Y-58826335D01*
X119825390Y-58941544D01*
X119825391Y-58941544D01*
X119825392Y-58941546D01*
X119854553Y-58963376D01*
X119883083Y-58984734D01*
X119924953Y-59040668D01*
X119929937Y-59110360D01*
X119896451Y-59171683D01*
X119883083Y-59183266D01*
X119825390Y-59226455D01*
X119739144Y-59341664D01*
X119739140Y-59341671D01*
X119688846Y-59476517D01*
X119682439Y-59536116D01*
X119682439Y-59536123D01*
X119682438Y-59536135D01*
X119682438Y-60631870D01*
X119682439Y-60631876D01*
X119688846Y-60691483D01*
X119739140Y-60826328D01*
X119739144Y-60826335D01*
X119825390Y-60941544D01*
X119825391Y-60941544D01*
X119825392Y-60941546D01*
X119854553Y-60963376D01*
X119883083Y-60984734D01*
X119924953Y-61040668D01*
X119929937Y-61110360D01*
X119896451Y-61171683D01*
X119883083Y-61183266D01*
X119825390Y-61226455D01*
X119739144Y-61341664D01*
X119739140Y-61341671D01*
X119688846Y-61476517D01*
X119682439Y-61536116D01*
X119682439Y-61536123D01*
X119682438Y-61536135D01*
X119682438Y-62631870D01*
X119682439Y-62631876D01*
X119688846Y-62691483D01*
X119739140Y-62826328D01*
X119739144Y-62826335D01*
X119825390Y-62941544D01*
X119825391Y-62941544D01*
X119825392Y-62941546D01*
X119860665Y-62967951D01*
X119883500Y-62985046D01*
X119925370Y-63040980D01*
X119930354Y-63110672D01*
X119896868Y-63171994D01*
X119883500Y-63183578D01*
X119825747Y-63226812D01*
X119739587Y-63341906D01*
X119739583Y-63341913D01*
X119689341Y-63476620D01*
X119689339Y-63476627D01*
X119682938Y-63536155D01*
X119682938Y-63834000D01*
X121227963Y-63834000D01*
X121192868Y-63869095D01*
X121146790Y-63948905D01*
X121122938Y-64037922D01*
X121122938Y-64130078D01*
X121146790Y-64219095D01*
X121192868Y-64298905D01*
X121258033Y-64364070D01*
X121337843Y-64410148D01*
X121426860Y-64434000D01*
X121519016Y-64434000D01*
X121608033Y-64410148D01*
X121687843Y-64364070D01*
X121753008Y-64298905D01*
X121799086Y-64219095D01*
X121822938Y-64130078D01*
X121822938Y-64037922D01*
X121799086Y-63948905D01*
X121753008Y-63869095D01*
X121717913Y-63834000D01*
X123262938Y-63834000D01*
X123262938Y-63536172D01*
X123262937Y-63536155D01*
X123256536Y-63476627D01*
X123256534Y-63476620D01*
X123206292Y-63341913D01*
X123206288Y-63341906D01*
X123120128Y-63226812D01*
X123120125Y-63226809D01*
X123062376Y-63183578D01*
X123020505Y-63127645D01*
X123015521Y-63057953D01*
X123049007Y-62996630D01*
X123062370Y-62985049D01*
X123120484Y-62941546D01*
X123206734Y-62826331D01*
X123257029Y-62691483D01*
X123263438Y-62631873D01*
X123263437Y-61536128D01*
X123257029Y-61476517D01*
X123206734Y-61341669D01*
X123206733Y-61341668D01*
X123206731Y-61341664D01*
X123120485Y-61226456D01*
X123120486Y-61226456D01*
X123120484Y-61226454D01*
X123062792Y-61183265D01*
X123020922Y-61127333D01*
X123015938Y-61057641D01*
X123049423Y-60996318D01*
X123062792Y-60984734D01*
X123120484Y-60941546D01*
X123206734Y-60826331D01*
X123257029Y-60691483D01*
X123263438Y-60631873D01*
X123263437Y-59536128D01*
X123257029Y-59476517D01*
X123206822Y-59341906D01*
X123206735Y-59341671D01*
X123206731Y-59341664D01*
X123153944Y-59271151D01*
X123120484Y-59226454D01*
X123062792Y-59183265D01*
X123020922Y-59127333D01*
X123015938Y-59057641D01*
X123049423Y-58996318D01*
X123062792Y-58984734D01*
X123120484Y-58941546D01*
X123206734Y-58826331D01*
X123257029Y-58691483D01*
X123263438Y-58631873D01*
X123263437Y-57536128D01*
X123257029Y-57476517D01*
X123206822Y-57341906D01*
X123206735Y-57341671D01*
X123206731Y-57341664D01*
X123155061Y-57272643D01*
X123120484Y-57226454D01*
X123062792Y-57183265D01*
X123020922Y-57127333D01*
X123015938Y-57057641D01*
X123049423Y-56996318D01*
X123062792Y-56984734D01*
X123120484Y-56941546D01*
X123206734Y-56826331D01*
X123257029Y-56691483D01*
X123263438Y-56631873D01*
X123263437Y-55536128D01*
X123257029Y-55476517D01*
X123206822Y-55341906D01*
X123206735Y-55341671D01*
X123206731Y-55341664D01*
X123120752Y-55226812D01*
X123120484Y-55226454D01*
X123062792Y-55183265D01*
X123020922Y-55127333D01*
X123015938Y-55057641D01*
X123049423Y-54996318D01*
X123062792Y-54984734D01*
X123120484Y-54941546D01*
X123206734Y-54826331D01*
X123257029Y-54691483D01*
X123263438Y-54631873D01*
X123263437Y-53536128D01*
X123257029Y-53476517D01*
X123206734Y-53341669D01*
X123206733Y-53341668D01*
X123206731Y-53341664D01*
X123120485Y-53226456D01*
X123120486Y-53226456D01*
X123120484Y-53226454D01*
X123062792Y-53183265D01*
X123020922Y-53127333D01*
X123015938Y-53057641D01*
X123049423Y-52996318D01*
X123062792Y-52984734D01*
X123120484Y-52941546D01*
X123206734Y-52826331D01*
X123257029Y-52691483D01*
X123263438Y-52631873D01*
X123263437Y-51536135D01*
X123852438Y-51536135D01*
X123852438Y-52631870D01*
X123852439Y-52631876D01*
X123858846Y-52691483D01*
X123909140Y-52826328D01*
X123909144Y-52826335D01*
X123995390Y-52941544D01*
X123995391Y-52941544D01*
X123995392Y-52941546D01*
X124004075Y-52948046D01*
X124053083Y-52984734D01*
X124094953Y-53040668D01*
X124099937Y-53110360D01*
X124066451Y-53171683D01*
X124053083Y-53183266D01*
X123995390Y-53226455D01*
X123909144Y-53341664D01*
X123909140Y-53341671D01*
X123858846Y-53476517D01*
X123852439Y-53536116D01*
X123852439Y-53536123D01*
X123852438Y-53536135D01*
X123852438Y-54631870D01*
X123852439Y-54631876D01*
X123858846Y-54691483D01*
X123909140Y-54826328D01*
X123909144Y-54826335D01*
X123995390Y-54941544D01*
X123995391Y-54941544D01*
X123995392Y-54941546D01*
X124024553Y-54963376D01*
X124053083Y-54984734D01*
X124094953Y-55040668D01*
X124099937Y-55110360D01*
X124066451Y-55171683D01*
X124053083Y-55183266D01*
X123995390Y-55226455D01*
X123909144Y-55341664D01*
X123909140Y-55341671D01*
X123858846Y-55476517D01*
X123852439Y-55536116D01*
X123852439Y-55536123D01*
X123852438Y-55536135D01*
X123852438Y-56631870D01*
X123852439Y-56631876D01*
X123858846Y-56691483D01*
X123909140Y-56826328D01*
X123909144Y-56826335D01*
X123995390Y-56941544D01*
X123995391Y-56941544D01*
X123995392Y-56941546D01*
X124024553Y-56963376D01*
X124053083Y-56984734D01*
X124094953Y-57040668D01*
X124099937Y-57110360D01*
X124066451Y-57171683D01*
X124053083Y-57183266D01*
X123995390Y-57226455D01*
X123909144Y-57341664D01*
X123909140Y-57341671D01*
X123858846Y-57476517D01*
X123852439Y-57536116D01*
X123852439Y-57536123D01*
X123852438Y-57536135D01*
X123852438Y-58631870D01*
X123852439Y-58631876D01*
X123858846Y-58691483D01*
X123909140Y-58826328D01*
X123909144Y-58826335D01*
X123995390Y-58941544D01*
X123995391Y-58941544D01*
X123995392Y-58941546D01*
X124024553Y-58963376D01*
X124053083Y-58984734D01*
X124094953Y-59040668D01*
X124099937Y-59110360D01*
X124066451Y-59171683D01*
X124053083Y-59183266D01*
X123995390Y-59226455D01*
X123909144Y-59341664D01*
X123909140Y-59341671D01*
X123858846Y-59476517D01*
X123852439Y-59536116D01*
X123852439Y-59536123D01*
X123852438Y-59536135D01*
X123852438Y-60631870D01*
X123852439Y-60631876D01*
X123858846Y-60691483D01*
X123909140Y-60826328D01*
X123909144Y-60826335D01*
X123995390Y-60941544D01*
X123995391Y-60941544D01*
X123995392Y-60941546D01*
X124024553Y-60963376D01*
X124053083Y-60984734D01*
X124094953Y-61040668D01*
X124099937Y-61110360D01*
X124066451Y-61171683D01*
X124053083Y-61183266D01*
X123995390Y-61226455D01*
X123909144Y-61341664D01*
X123909140Y-61341671D01*
X123858846Y-61476517D01*
X123852439Y-61536116D01*
X123852439Y-61536123D01*
X123852438Y-61536135D01*
X123852438Y-62631870D01*
X123852439Y-62631876D01*
X123858846Y-62691483D01*
X123909140Y-62826328D01*
X123909144Y-62826335D01*
X123995390Y-62941544D01*
X123995391Y-62941544D01*
X123995392Y-62941546D01*
X124030665Y-62967951D01*
X124053500Y-62985046D01*
X124095370Y-63040980D01*
X124100354Y-63110672D01*
X124066868Y-63171994D01*
X124053500Y-63183578D01*
X123995747Y-63226812D01*
X123909587Y-63341906D01*
X123909583Y-63341913D01*
X123859341Y-63476620D01*
X123859339Y-63476627D01*
X123852938Y-63536155D01*
X123852938Y-63834000D01*
X125397963Y-63834000D01*
X125362868Y-63869095D01*
X125316790Y-63948905D01*
X125292938Y-64037922D01*
X125292938Y-64130078D01*
X125316790Y-64219095D01*
X125362868Y-64298905D01*
X125428033Y-64364070D01*
X125507843Y-64410148D01*
X125596860Y-64434000D01*
X125689016Y-64434000D01*
X125778033Y-64410148D01*
X125857843Y-64364070D01*
X125923008Y-64298905D01*
X125969086Y-64219095D01*
X125992938Y-64130078D01*
X125992938Y-64037922D01*
X125969086Y-63948905D01*
X125923008Y-63869095D01*
X125887913Y-63834000D01*
X127432938Y-63834000D01*
X127432938Y-63536172D01*
X127432937Y-63536155D01*
X127426536Y-63476627D01*
X127426534Y-63476620D01*
X127376292Y-63341913D01*
X127376288Y-63341906D01*
X127290128Y-63226812D01*
X127290125Y-63226809D01*
X127232376Y-63183578D01*
X127190505Y-63127645D01*
X127185521Y-63057953D01*
X127219007Y-62996630D01*
X127232370Y-62985049D01*
X127290484Y-62941546D01*
X127376734Y-62826331D01*
X127427029Y-62691483D01*
X127433438Y-62631873D01*
X127433437Y-61536128D01*
X127427029Y-61476517D01*
X127376734Y-61341669D01*
X127376733Y-61341668D01*
X127376731Y-61341664D01*
X127290485Y-61226456D01*
X127290486Y-61226456D01*
X127290484Y-61226454D01*
X127232792Y-61183265D01*
X127190922Y-61127333D01*
X127185938Y-61057641D01*
X127219423Y-60996318D01*
X127232792Y-60984734D01*
X127290484Y-60941546D01*
X127376734Y-60826331D01*
X127427029Y-60691483D01*
X127433438Y-60631873D01*
X127433437Y-59536128D01*
X127427029Y-59476517D01*
X127376822Y-59341906D01*
X127376735Y-59341671D01*
X127376731Y-59341664D01*
X127323944Y-59271151D01*
X127290484Y-59226454D01*
X127232792Y-59183265D01*
X127190922Y-59127333D01*
X127185938Y-59057641D01*
X127219423Y-58996318D01*
X127232792Y-58984734D01*
X127290484Y-58941546D01*
X127376734Y-58826331D01*
X127427029Y-58691483D01*
X127433438Y-58631873D01*
X127433437Y-57536128D01*
X127427029Y-57476517D01*
X127376822Y-57341906D01*
X127376735Y-57341671D01*
X127376731Y-57341664D01*
X127325061Y-57272643D01*
X127290484Y-57226454D01*
X127232792Y-57183265D01*
X127190922Y-57127333D01*
X127185938Y-57057641D01*
X127219423Y-56996318D01*
X127232792Y-56984734D01*
X127290484Y-56941546D01*
X127376734Y-56826331D01*
X127427029Y-56691483D01*
X127433438Y-56631873D01*
X127433437Y-55536128D01*
X127427029Y-55476517D01*
X127376822Y-55341906D01*
X127376735Y-55341671D01*
X127376731Y-55341664D01*
X127290752Y-55226812D01*
X127290484Y-55226454D01*
X127232792Y-55183265D01*
X127190922Y-55127333D01*
X127185938Y-55057641D01*
X127219423Y-54996318D01*
X127232792Y-54984734D01*
X127290484Y-54941546D01*
X127376734Y-54826331D01*
X127427029Y-54691483D01*
X127433438Y-54631873D01*
X127433437Y-53536128D01*
X127427029Y-53476517D01*
X127376734Y-53341669D01*
X127376733Y-53341668D01*
X127376731Y-53341664D01*
X127290485Y-53226456D01*
X127290486Y-53226456D01*
X127290484Y-53226454D01*
X127232792Y-53183265D01*
X127190922Y-53127333D01*
X127185938Y-53057641D01*
X127219423Y-52996318D01*
X127232792Y-52984734D01*
X127290484Y-52941546D01*
X127376734Y-52826331D01*
X127427029Y-52691483D01*
X127433438Y-52631873D01*
X127433437Y-51536128D01*
X127427029Y-51476517D01*
X127416950Y-51449495D01*
X127376735Y-51341671D01*
X127376731Y-51341664D01*
X127290485Y-51226455D01*
X127290482Y-51226452D01*
X127175273Y-51140206D01*
X127175266Y-51140202D01*
X127040420Y-51089908D01*
X127040421Y-51089908D01*
X126980821Y-51083501D01*
X126980819Y-51083500D01*
X126980811Y-51083500D01*
X126980802Y-51083500D01*
X124305067Y-51083500D01*
X124305061Y-51083501D01*
X124245454Y-51089908D01*
X124110609Y-51140202D01*
X124110602Y-51140206D01*
X123995393Y-51226452D01*
X123995390Y-51226455D01*
X123909144Y-51341664D01*
X123909140Y-51341671D01*
X123858846Y-51476517D01*
X123852439Y-51536116D01*
X123852439Y-51536123D01*
X123852438Y-51536135D01*
X123263437Y-51536135D01*
X123263437Y-51536128D01*
X123257029Y-51476517D01*
X123246950Y-51449495D01*
X123206735Y-51341671D01*
X123206731Y-51341664D01*
X123120485Y-51226455D01*
X123120482Y-51226452D01*
X123005273Y-51140206D01*
X123005266Y-51140202D01*
X122870420Y-51089908D01*
X122870421Y-51089908D01*
X122810821Y-51083501D01*
X122810819Y-51083500D01*
X122810811Y-51083500D01*
X122810802Y-51083500D01*
X120135067Y-51083500D01*
X120135061Y-51083501D01*
X120075454Y-51089908D01*
X119940609Y-51140202D01*
X119940602Y-51140206D01*
X119825393Y-51226452D01*
X119825390Y-51226455D01*
X119739144Y-51341664D01*
X119739140Y-51341671D01*
X119688846Y-51476517D01*
X119682439Y-51536116D01*
X119682439Y-51536123D01*
X119682438Y-51536135D01*
X113739069Y-51536135D01*
X113458767Y-51233269D01*
X113168376Y-50950951D01*
X112925150Y-50714487D01*
X112925144Y-50714482D01*
X112925136Y-50714474D01*
X112463846Y-50311087D01*
X112364880Y-50224543D01*
X111834944Y-49808342D01*
X111779571Y-49764853D01*
X111745773Y-49741080D01*
X111170820Y-49336667D01*
X111170816Y-49336665D01*
X110759637Y-49078748D01*
X110540343Y-48941193D01*
X110383389Y-48853923D01*
X109889894Y-48579529D01*
X109889888Y-48579525D01*
X109221243Y-48252661D01*
X109221219Y-48252650D01*
X108536314Y-47961530D01*
X108536272Y-47961514D01*
X107836960Y-47706921D01*
X107125162Y-47489559D01*
X107125154Y-47489557D01*
X107125148Y-47489555D01*
X106402870Y-47310038D01*
X106402865Y-47310037D01*
X106402857Y-47310035D01*
X106371441Y-47303966D01*
X106371440Y-47303965D01*
X105772741Y-47188304D01*
X109448918Y-47188304D01*
X109448918Y-47365695D01*
X109483521Y-47539658D01*
X109483524Y-47539667D01*
X109551401Y-47703540D01*
X109551408Y-47703553D01*
X109649953Y-47851034D01*
X109649956Y-47851038D01*
X109775379Y-47976461D01*
X109775383Y-47976464D01*
X109922864Y-48075009D01*
X109922877Y-48075016D01*
X110045781Y-48125923D01*
X110086752Y-48142894D01*
X110086754Y-48142894D01*
X110086759Y-48142896D01*
X110260722Y-48177499D01*
X110260725Y-48177500D01*
X110260727Y-48177500D01*
X110438111Y-48177500D01*
X110438112Y-48177499D01*
X110496100Y-48165964D01*
X110612076Y-48142896D01*
X110612079Y-48142894D01*
X110612084Y-48142894D01*
X110775965Y-48075013D01*
X110923453Y-47976464D01*
X111048882Y-47851035D01*
X111147431Y-47703547D01*
X111215312Y-47539666D01*
X111223220Y-47499913D01*
X111249917Y-47365695D01*
X111249918Y-47365693D01*
X111249918Y-47188306D01*
X111249917Y-47188304D01*
X111215314Y-47014341D01*
X111215311Y-47014332D01*
X111147434Y-46850459D01*
X111147427Y-46850446D01*
X111048882Y-46702965D01*
X111048879Y-46702961D01*
X110923456Y-46577538D01*
X110923452Y-46577535D01*
X110775971Y-46478990D01*
X110775958Y-46478983D01*
X110612085Y-46411106D01*
X110612076Y-46411103D01*
X110438112Y-46376500D01*
X110438109Y-46376500D01*
X110260727Y-46376500D01*
X110260724Y-46376500D01*
X110086759Y-46411103D01*
X110086750Y-46411106D01*
X109922877Y-46478983D01*
X109922864Y-46478990D01*
X109775383Y-46577535D01*
X109775379Y-46577538D01*
X109649956Y-46702961D01*
X109649953Y-46702965D01*
X109551408Y-46850446D01*
X109551401Y-46850459D01*
X109483524Y-47014332D01*
X109483521Y-47014341D01*
X109448918Y-47188304D01*
X105772741Y-47188304D01*
X105672123Y-47168866D01*
X104934952Y-47066435D01*
X104193422Y-47003031D01*
X103449586Y-46978826D01*
X103449562Y-46978826D01*
X103449558Y-46978826D01*
X103449557Y-46978826D01*
X102705457Y-46993890D01*
X101963188Y-47048180D01*
X101963187Y-47048180D01*
X101963175Y-47048181D01*
X101963147Y-47048184D01*
X101224835Y-47141543D01*
X101224825Y-47141544D01*
X100643461Y-47246463D01*
X100492396Y-47273727D01*
X100492394Y-47273727D01*
X100492391Y-47273728D01*
X99767974Y-47444354D01*
X99053533Y-47652961D01*
X99053532Y-47652961D01*
X98351130Y-47898948D01*
X98351100Y-47898959D01*
X97662657Y-48181648D01*
X97662634Y-48181658D01*
X96990063Y-48500264D01*
X96990037Y-48500278D01*
X96335192Y-48853923D01*
X96335185Y-48853927D01*
X95699920Y-49241612D01*
X95699880Y-49241637D01*
X95243386Y-49554416D01*
X95085940Y-49662294D01*
X94952016Y-49764840D01*
X94495030Y-50114756D01*
X93928783Y-50597776D01*
X93388828Y-51109966D01*
X92876649Y-51649914D01*
X92876614Y-51649953D01*
X92393635Y-52216154D01*
X92106422Y-52591254D01*
X92050036Y-52632514D01*
X91980295Y-52636740D01*
X91919339Y-52602590D01*
X91886523Y-52540907D01*
X91883969Y-52515868D01*
X91883969Y-52477610D01*
X91855128Y-52332623D01*
X91855127Y-52332622D01*
X91855127Y-52332618D01*
X91855125Y-52332613D01*
X91798556Y-52196042D01*
X91798549Y-52196029D01*
X91716420Y-52073115D01*
X91716417Y-52073111D01*
X91611888Y-51968582D01*
X91611884Y-51968579D01*
X91488970Y-51886450D01*
X91488957Y-51886443D01*
X91352386Y-51829874D01*
X91352376Y-51829871D01*
X91207389Y-51801031D01*
X91207387Y-51801031D01*
X91059551Y-51801031D01*
X91059550Y-51801031D01*
X91035250Y-51805864D01*
X90965658Y-51799635D01*
X90923380Y-51771927D01*
X90897575Y-51746122D01*
X90897571Y-51746119D01*
X90774657Y-51663990D01*
X90774644Y-51663983D01*
X90638073Y-51607414D01*
X90638063Y-51607411D01*
X90493076Y-51578571D01*
X90493074Y-51578571D01*
X90345238Y-51578571D01*
X90339146Y-51578571D01*
X90339146Y-51575916D01*
X90281781Y-51565012D01*
X90250639Y-51542333D01*
X90233388Y-51525082D01*
X90233384Y-51525079D01*
X90110470Y-51442950D01*
X90110457Y-51442943D01*
X89973886Y-51386374D01*
X89973876Y-51386371D01*
X89829999Y-51357751D01*
X89768088Y-51325365D01*
X89733514Y-51264649D01*
X89737255Y-51194880D01*
X89778122Y-51138208D01*
X89785302Y-51133031D01*
X89791972Y-51128574D01*
X89815354Y-51112951D01*
X89919889Y-51008416D01*
X90002022Y-50885495D01*
X90058596Y-50748913D01*
X90087438Y-50603918D01*
X90087438Y-50456082D01*
X90087438Y-50456079D01*
X90058597Y-50311092D01*
X90058596Y-50311091D01*
X90058596Y-50311087D01*
X90022750Y-50224547D01*
X90002025Y-50174511D01*
X90002018Y-50174498D01*
X89919889Y-50051584D01*
X89919886Y-50051580D01*
X89815357Y-49947051D01*
X89815353Y-49947048D01*
X89692439Y-49864919D01*
X89692426Y-49864912D01*
X89555855Y-49808343D01*
X89555845Y-49808340D01*
X89410858Y-49779500D01*
X89410856Y-49779500D01*
X89263020Y-49779500D01*
X89263015Y-49779500D01*
X89190893Y-49793846D01*
X89121301Y-49787619D01*
X89097811Y-49775331D01*
X88989439Y-49702919D01*
X88989426Y-49702912D01*
X88852855Y-49646343D01*
X88852845Y-49646340D01*
X88707858Y-49617500D01*
X88707856Y-49617500D01*
X88560020Y-49617500D01*
X88560018Y-49617500D01*
X88415030Y-49646340D01*
X88415020Y-49646343D01*
X88278449Y-49702912D01*
X88278436Y-49702919D01*
X88155522Y-49785048D01*
X88155518Y-49785051D01*
X88050989Y-49889580D01*
X88050986Y-49889584D01*
X87968857Y-50012498D01*
X87968850Y-50012511D01*
X87912281Y-50149082D01*
X87912278Y-50149092D01*
X87883438Y-50294079D01*
X87883438Y-50294082D01*
X87883438Y-50441918D01*
X87883438Y-50441920D01*
X87883437Y-50441920D01*
X87912278Y-50586907D01*
X87912281Y-50586917D01*
X87968850Y-50723488D01*
X87968857Y-50723501D01*
X88050986Y-50846415D01*
X88050989Y-50846419D01*
X88155518Y-50950948D01*
X88155522Y-50950951D01*
X88278436Y-51033080D01*
X88278449Y-51033087D01*
X88415020Y-51089656D01*
X88415025Y-51089658D01*
X88415029Y-51089658D01*
X88415030Y-51089659D01*
X88560017Y-51118500D01*
X88583079Y-51118500D01*
X88650118Y-51138185D01*
X88695873Y-51190989D01*
X88705817Y-51260147D01*
X88676792Y-51323703D01*
X88630531Y-51357061D01*
X88485640Y-51417076D01*
X88416171Y-51424545D01*
X88390736Y-51417076D01*
X88251355Y-51359343D01*
X88251345Y-51359340D01*
X88106358Y-51330500D01*
X88106356Y-51330500D01*
X87958520Y-51330500D01*
X87958518Y-51330500D01*
X87813530Y-51359340D01*
X87813520Y-51359343D01*
X87674140Y-51417076D01*
X87604671Y-51424545D01*
X87579236Y-51417076D01*
X87439855Y-51359343D01*
X87439845Y-51359340D01*
X87294858Y-51330500D01*
X87294856Y-51330500D01*
X87147020Y-51330500D01*
X87147015Y-51330500D01*
X87076863Y-51344454D01*
X87067105Y-51343580D01*
X87057827Y-51346730D01*
X87032878Y-51340518D01*
X87007271Y-51338227D01*
X86997725Y-51331765D01*
X86990027Y-51329849D01*
X86974781Y-51316235D01*
X86962416Y-51307866D01*
X86957610Y-51302765D01*
X86900484Y-51226454D01*
X86850391Y-51188954D01*
X86843035Y-51181146D01*
X86831874Y-51159174D01*
X86817109Y-51139449D01*
X86816331Y-51128574D01*
X86811393Y-51118852D01*
X86813882Y-51094337D01*
X86812125Y-51069757D01*
X86817351Y-51060185D01*
X86818453Y-51049340D01*
X86833798Y-51030065D01*
X86845611Y-51008434D01*
X86861220Y-50995623D01*
X86861973Y-50994679D01*
X86862653Y-50994448D01*
X86864396Y-50993018D01*
X86927354Y-50950951D01*
X87031889Y-50846416D01*
X87114022Y-50723495D01*
X87170596Y-50586913D01*
X87199438Y-50441918D01*
X87199438Y-50294082D01*
X87199438Y-50294079D01*
X87170597Y-50149092D01*
X87170596Y-50149091D01*
X87170596Y-50149087D01*
X87130209Y-50051584D01*
X87114025Y-50012511D01*
X87114018Y-50012498D01*
X87031889Y-49889584D01*
X87031886Y-49889580D01*
X86927357Y-49785051D01*
X86927353Y-49785048D01*
X86804439Y-49702919D01*
X86804426Y-49702912D01*
X86667855Y-49646343D01*
X86667845Y-49646340D01*
X86522858Y-49617500D01*
X86522856Y-49617500D01*
X86375020Y-49617500D01*
X86375015Y-49617500D01*
X86278567Y-49636685D01*
X86208976Y-49630458D01*
X86153798Y-49587595D01*
X86130554Y-49521705D01*
X86146622Y-49453708D01*
X86151275Y-49446176D01*
X86161079Y-49431502D01*
X86161080Y-49431501D01*
X86161084Y-49431495D01*
X86217658Y-49294913D01*
X86228258Y-49241624D01*
X86246500Y-49149920D01*
X86246500Y-49002079D01*
X86217659Y-48857092D01*
X86217658Y-48857091D01*
X86217658Y-48857087D01*
X86216349Y-48853927D01*
X86161087Y-48720511D01*
X86161080Y-48720498D01*
X86078951Y-48597584D01*
X86078948Y-48597580D01*
X85974419Y-48493051D01*
X85974415Y-48493048D01*
X85851501Y-48410919D01*
X85851488Y-48410912D01*
X85714917Y-48354343D01*
X85714907Y-48354340D01*
X85569920Y-48325500D01*
X85569918Y-48325500D01*
X85422082Y-48325500D01*
X85422080Y-48325500D01*
X85277092Y-48354340D01*
X85277082Y-48354343D01*
X85140511Y-48410912D01*
X85140498Y-48410919D01*
X85017584Y-48493048D01*
X85017580Y-48493051D01*
X84913051Y-48597580D01*
X84913048Y-48597584D01*
X84830919Y-48720498D01*
X84830912Y-48720511D01*
X84774343Y-48857082D01*
X84774340Y-48857092D01*
X84745500Y-49002079D01*
X84745500Y-49002082D01*
X84745500Y-49149918D01*
X84745500Y-49149920D01*
X84745499Y-49149920D01*
X84774340Y-49294907D01*
X84774343Y-49294917D01*
X84830912Y-49431488D01*
X84830919Y-49431501D01*
X84913048Y-49554415D01*
X84913051Y-49554419D01*
X85017580Y-49658948D01*
X85017584Y-49658951D01*
X85140498Y-49741080D01*
X85140511Y-49741087D01*
X85267884Y-49793846D01*
X85277087Y-49797658D01*
X85277091Y-49797658D01*
X85277092Y-49797659D01*
X85422079Y-49826500D01*
X85422082Y-49826500D01*
X85569919Y-49826500D01*
X85600151Y-49820485D01*
X85666369Y-49807314D01*
X85735960Y-49813541D01*
X85791138Y-49856403D01*
X85814383Y-49922293D01*
X85798316Y-49990290D01*
X85793666Y-49997817D01*
X85783860Y-50012493D01*
X85783850Y-50012511D01*
X85727281Y-50149082D01*
X85727278Y-50149092D01*
X85698438Y-50294079D01*
X85698438Y-50294082D01*
X85698438Y-50441918D01*
X85698438Y-50441920D01*
X85698437Y-50441920D01*
X85727278Y-50586907D01*
X85727281Y-50586917D01*
X85783850Y-50723488D01*
X85783857Y-50723501D01*
X85865986Y-50846415D01*
X85865989Y-50846419D01*
X85891389Y-50871819D01*
X85924874Y-50933142D01*
X85919890Y-51002834D01*
X85878018Y-51058767D01*
X85812554Y-51083184D01*
X85803708Y-51083500D01*
X83915067Y-51083500D01*
X83915061Y-51083501D01*
X83855454Y-51089908D01*
X83720609Y-51140202D01*
X83720602Y-51140206D01*
X83605393Y-51226452D01*
X83605390Y-51226455D01*
X83519144Y-51341664D01*
X83519140Y-51341671D01*
X83468846Y-51476517D01*
X83462439Y-51536116D01*
X83462439Y-51536123D01*
X83462438Y-51536135D01*
X82873437Y-51536135D01*
X82873437Y-51536128D01*
X82867029Y-51476517D01*
X82856950Y-51449495D01*
X82816735Y-51341671D01*
X82816731Y-51341664D01*
X82730485Y-51226455D01*
X82730482Y-51226452D01*
X82615273Y-51140206D01*
X82615266Y-51140202D01*
X82480420Y-51089908D01*
X82480421Y-51089908D01*
X82420821Y-51083501D01*
X82420819Y-51083500D01*
X82420811Y-51083500D01*
X82420802Y-51083500D01*
X79745067Y-51083500D01*
X79745061Y-51083501D01*
X79685454Y-51089908D01*
X79550609Y-51140202D01*
X79550602Y-51140206D01*
X79435393Y-51226452D01*
X79435390Y-51226455D01*
X79349144Y-51341664D01*
X79349140Y-51341671D01*
X79298846Y-51476517D01*
X79292439Y-51536116D01*
X79292439Y-51536123D01*
X79292438Y-51536135D01*
X78713438Y-51536135D01*
X78713438Y-47049920D01*
X84937499Y-47049920D01*
X84966340Y-47194907D01*
X84966343Y-47194917D01*
X85022912Y-47331488D01*
X85022919Y-47331501D01*
X85105048Y-47454415D01*
X85105051Y-47454419D01*
X85209580Y-47558948D01*
X85209584Y-47558951D01*
X85332498Y-47641080D01*
X85332511Y-47641087D01*
X85449027Y-47689349D01*
X85469087Y-47697658D01*
X85469091Y-47697658D01*
X85469092Y-47697659D01*
X85614079Y-47726500D01*
X85614082Y-47726500D01*
X85761920Y-47726500D01*
X85860356Y-47706919D01*
X85906913Y-47697658D01*
X86043495Y-47641084D01*
X86166416Y-47558951D01*
X86270951Y-47454416D01*
X86353084Y-47331495D01*
X86409658Y-47194913D01*
X86435214Y-47066437D01*
X86438500Y-47049920D01*
X86438500Y-46902079D01*
X86409659Y-46757092D01*
X86409658Y-46757091D01*
X86409658Y-46757087D01*
X86376619Y-46677326D01*
X86369151Y-46607859D01*
X86376618Y-46582428D01*
X86416596Y-46485913D01*
X86426034Y-46438462D01*
X86445438Y-46340920D01*
X86445438Y-46193079D01*
X86416597Y-46048092D01*
X86416596Y-46048091D01*
X86416596Y-46048087D01*
X86416594Y-46048082D01*
X86360025Y-45911511D01*
X86360018Y-45911498D01*
X86277889Y-45788584D01*
X86277886Y-45788580D01*
X86244226Y-45754920D01*
X92359499Y-45754920D01*
X92388340Y-45899907D01*
X92388343Y-45899917D01*
X92443694Y-46033548D01*
X92451163Y-46103018D01*
X92443694Y-46128452D01*
X92388343Y-46262082D01*
X92388340Y-46262092D01*
X92359500Y-46407079D01*
X92359500Y-46407082D01*
X92359500Y-46554918D01*
X92359500Y-46554920D01*
X92359499Y-46554920D01*
X92388340Y-46699907D01*
X92388343Y-46699917D01*
X92443694Y-46833548D01*
X92451163Y-46903018D01*
X92443694Y-46928452D01*
X92388343Y-47062082D01*
X92388340Y-47062092D01*
X92359500Y-47207079D01*
X92359500Y-47207082D01*
X92359500Y-47354918D01*
X92359500Y-47354920D01*
X92359499Y-47354920D01*
X92388340Y-47499907D01*
X92388343Y-47499917D01*
X92444912Y-47636488D01*
X92444919Y-47636501D01*
X92527048Y-47759415D01*
X92527051Y-47759419D01*
X92631580Y-47863948D01*
X92631584Y-47863951D01*
X92754498Y-47946080D01*
X92754511Y-47946087D01*
X92891082Y-48002656D01*
X92891087Y-48002658D01*
X92891091Y-48002658D01*
X92891092Y-48002659D01*
X93036079Y-48031500D01*
X93036082Y-48031500D01*
X93183920Y-48031500D01*
X93281462Y-48012096D01*
X93328913Y-48002658D01*
X93465495Y-47946084D01*
X93588416Y-47863951D01*
X93692951Y-47759416D01*
X93775084Y-47636495D01*
X93831658Y-47499913D01*
X93842710Y-47444354D01*
X93860500Y-47354920D01*
X93860500Y-47207079D01*
X93831659Y-47062092D01*
X93831658Y-47062091D01*
X93831658Y-47062087D01*
X93776304Y-46928452D01*
X93768836Y-46858983D01*
X93776305Y-46833547D01*
X93831658Y-46699913D01*
X93855029Y-46582422D01*
X93860500Y-46554920D01*
X93860500Y-46407079D01*
X93831659Y-46262092D01*
X93831658Y-46262091D01*
X93831658Y-46262087D01*
X93776304Y-46128452D01*
X93768836Y-46058983D01*
X93776305Y-46033547D01*
X93831658Y-45899913D01*
X93848054Y-45817489D01*
X93860500Y-45754920D01*
X93860500Y-45607079D01*
X93843826Y-45523258D01*
X93843826Y-45523257D01*
X93840225Y-45505153D01*
X101548918Y-45505153D01*
X101548918Y-45662846D01*
X101579679Y-45817489D01*
X101579682Y-45817501D01*
X101640020Y-45963172D01*
X101640027Y-45963185D01*
X101727628Y-46094288D01*
X101727631Y-46094292D01*
X101839125Y-46205786D01*
X101839129Y-46205789D01*
X101970232Y-46293390D01*
X101970245Y-46293397D01*
X102115916Y-46353735D01*
X102115921Y-46353737D01*
X102230358Y-46376500D01*
X102270571Y-46384499D01*
X102270574Y-46384500D01*
X102270576Y-46384500D01*
X102428262Y-46384500D01*
X102428263Y-46384499D01*
X102582915Y-46353737D01*
X102728597Y-46293394D01*
X102859707Y-46205789D01*
X102971207Y-46094289D01*
X103058812Y-45963179D01*
X103119155Y-45817497D01*
X103149918Y-45662842D01*
X103149918Y-45505158D01*
X103149918Y-45505155D01*
X103149917Y-45505153D01*
X103141352Y-45462094D01*
X103119155Y-45350503D01*
X103108798Y-45325498D01*
X103058815Y-45204827D01*
X103058808Y-45204814D01*
X102971207Y-45073711D01*
X102971204Y-45073707D01*
X102859710Y-44962213D01*
X102859706Y-44962210D01*
X102728603Y-44874609D01*
X102728590Y-44874602D01*
X102582919Y-44814264D01*
X102582907Y-44814261D01*
X102428263Y-44783500D01*
X102428260Y-44783500D01*
X102270576Y-44783500D01*
X102270573Y-44783500D01*
X102115928Y-44814261D01*
X102115916Y-44814264D01*
X101970245Y-44874602D01*
X101970232Y-44874609D01*
X101839129Y-44962210D01*
X101839125Y-44962213D01*
X101727631Y-45073707D01*
X101727628Y-45073711D01*
X101640027Y-45204814D01*
X101640020Y-45204827D01*
X101579682Y-45350498D01*
X101579679Y-45350510D01*
X101548918Y-45505153D01*
X93840225Y-45505153D01*
X93831659Y-45462094D01*
X93831659Y-45462092D01*
X93831658Y-45462087D01*
X93831656Y-45462082D01*
X93775087Y-45325511D01*
X93775080Y-45325498D01*
X93692951Y-45202584D01*
X93692948Y-45202580D01*
X93588419Y-45098051D01*
X93588415Y-45098048D01*
X93465501Y-45015919D01*
X93465488Y-45015912D01*
X93328917Y-44959343D01*
X93328907Y-44959340D01*
X93183920Y-44930500D01*
X93183918Y-44930500D01*
X93036082Y-44930500D01*
X93036080Y-44930500D01*
X92891092Y-44959340D01*
X92891082Y-44959343D01*
X92754511Y-45015912D01*
X92754498Y-45015919D01*
X92631584Y-45098048D01*
X92631580Y-45098051D01*
X92527051Y-45202580D01*
X92527048Y-45202584D01*
X92444919Y-45325498D01*
X92444912Y-45325511D01*
X92388343Y-45462082D01*
X92388340Y-45462092D01*
X92359500Y-45607079D01*
X92359500Y-45607082D01*
X92359500Y-45754918D01*
X92359500Y-45754920D01*
X92359499Y-45754920D01*
X86244226Y-45754920D01*
X86173357Y-45684051D01*
X86173353Y-45684048D01*
X86050439Y-45601919D01*
X86050426Y-45601912D01*
X85913855Y-45545343D01*
X85913845Y-45545340D01*
X85768858Y-45516500D01*
X85768856Y-45516500D01*
X85621020Y-45516500D01*
X85621018Y-45516500D01*
X85476030Y-45545340D01*
X85476020Y-45545343D01*
X85339449Y-45601912D01*
X85339436Y-45601919D01*
X85216522Y-45684048D01*
X85216518Y-45684051D01*
X85111989Y-45788580D01*
X85111986Y-45788584D01*
X85029857Y-45911498D01*
X85029850Y-45911511D01*
X84973281Y-46048082D01*
X84973278Y-46048092D01*
X84944438Y-46193079D01*
X84944438Y-46193082D01*
X84944438Y-46340918D01*
X84944438Y-46340920D01*
X84944437Y-46340920D01*
X84973278Y-46485907D01*
X84973280Y-46485913D01*
X85006317Y-46565671D01*
X85013786Y-46635141D01*
X85006317Y-46660576D01*
X84966343Y-46757082D01*
X84966340Y-46757092D01*
X84937500Y-46902079D01*
X84937500Y-46902082D01*
X84937500Y-47049918D01*
X84937500Y-47049920D01*
X84937499Y-47049920D01*
X78713438Y-47049920D01*
X78713438Y-46520431D01*
X78731621Y-46455788D01*
X78763226Y-46404053D01*
X79169669Y-45738723D01*
X79171915Y-45735183D01*
X79171923Y-45735171D01*
X79703010Y-44928517D01*
X79705341Y-44925103D01*
X80263473Y-44136835D01*
X80265948Y-44133462D01*
X80362338Y-44006658D01*
X80850445Y-43364537D01*
X80852972Y-43361327D01*
X81290960Y-42823920D01*
X86467999Y-42823920D01*
X86496840Y-42968907D01*
X86496843Y-42968917D01*
X86553412Y-43105488D01*
X86553419Y-43105501D01*
X86635548Y-43228415D01*
X86635551Y-43228419D01*
X86740080Y-43332948D01*
X86740084Y-43332951D01*
X86862998Y-43415080D01*
X86863011Y-43415087D01*
X86999582Y-43471656D01*
X86999587Y-43471658D01*
X86999591Y-43471658D01*
X86999592Y-43471659D01*
X87144579Y-43500500D01*
X87144582Y-43500500D01*
X87292420Y-43500500D01*
X87389962Y-43481096D01*
X87437413Y-43471658D01*
X87573995Y-43415084D01*
X87599610Y-43397967D01*
X87666284Y-43377090D01*
X87733665Y-43395573D01*
X87737338Y-43397933D01*
X87763005Y-43415084D01*
X87899587Y-43471658D01*
X87899591Y-43471658D01*
X87899592Y-43471659D01*
X88044579Y-43500500D01*
X88044582Y-43500500D01*
X88192420Y-43500500D01*
X88289962Y-43481096D01*
X88337413Y-43471658D01*
X88473995Y-43415084D01*
X88596916Y-43332951D01*
X88596917Y-43332949D01*
X88599609Y-43331151D01*
X88666286Y-43310273D01*
X88733666Y-43328757D01*
X88737391Y-43331151D01*
X88740082Y-43332949D01*
X88740084Y-43332951D01*
X88863005Y-43415084D01*
X88863007Y-43415085D01*
X88863011Y-43415087D01*
X88999582Y-43471656D01*
X88999587Y-43471658D01*
X88999591Y-43471658D01*
X88999592Y-43471659D01*
X89144579Y-43500500D01*
X89144582Y-43500500D01*
X89292420Y-43500500D01*
X89389962Y-43481096D01*
X89437413Y-43471658D01*
X89573995Y-43415084D01*
X89599610Y-43397967D01*
X89666284Y-43377090D01*
X89733665Y-43395573D01*
X89737338Y-43397933D01*
X89763005Y-43415084D01*
X89899587Y-43471658D01*
X89899591Y-43471658D01*
X89899592Y-43471659D01*
X90044579Y-43500500D01*
X90044582Y-43500500D01*
X90192420Y-43500500D01*
X90289962Y-43481096D01*
X90337413Y-43471658D01*
X90473995Y-43415084D01*
X90596916Y-43332951D01*
X90619097Y-43310768D01*
X90680417Y-43277285D01*
X90730969Y-43276834D01*
X90875079Y-43305500D01*
X90875082Y-43305500D01*
X91022920Y-43305500D01*
X91120462Y-43286096D01*
X91167913Y-43276658D01*
X91284177Y-43228500D01*
X91304488Y-43220087D01*
X91304488Y-43220086D01*
X91304495Y-43220084D01*
X91427416Y-43137951D01*
X91531951Y-43033416D01*
X91614084Y-42910495D01*
X91670658Y-42773913D01*
X91699500Y-42628918D01*
X91699500Y-42551920D01*
X95103917Y-42551920D01*
X95132758Y-42696907D01*
X95132761Y-42696917D01*
X95189330Y-42833488D01*
X95189337Y-42833501D01*
X95271466Y-42956415D01*
X95271469Y-42956419D01*
X95375998Y-43060948D01*
X95376002Y-43060951D01*
X95498916Y-43143080D01*
X95498929Y-43143087D01*
X95635500Y-43199656D01*
X95635505Y-43199658D01*
X95635509Y-43199658D01*
X95635510Y-43199659D01*
X95780497Y-43228500D01*
X95786560Y-43229097D01*
X95786430Y-43230412D01*
X95846957Y-43248185D01*
X95892712Y-43300989D01*
X95903918Y-43352500D01*
X95903918Y-43358918D01*
X95903918Y-43358920D01*
X95903917Y-43358920D01*
X95932758Y-43503907D01*
X95932761Y-43503917D01*
X95989330Y-43640488D01*
X95989337Y-43640501D01*
X96071466Y-43763415D01*
X96071469Y-43763419D01*
X96175998Y-43867948D01*
X96176002Y-43867951D01*
X96298916Y-43950080D01*
X96298929Y-43950087D01*
X96435500Y-44006656D01*
X96435505Y-44006658D01*
X96435509Y-44006658D01*
X96435510Y-44006659D01*
X96580497Y-44035500D01*
X96580500Y-44035500D01*
X96728338Y-44035500D01*
X96825880Y-44016096D01*
X96873331Y-44006658D01*
X97009913Y-43950084D01*
X97132834Y-43867951D01*
X97237369Y-43763416D01*
X97319502Y-43640495D01*
X97329746Y-43615765D01*
X97376074Y-43503917D01*
X97376076Y-43503913D01*
X97393746Y-43415084D01*
X97404918Y-43358920D01*
X97404918Y-43211079D01*
X97376077Y-43066092D01*
X97376076Y-43066091D01*
X97376076Y-43066087D01*
X97372948Y-43058535D01*
X97319505Y-42929511D01*
X97319498Y-42929498D01*
X97237369Y-42806584D01*
X97237366Y-42806580D01*
X97132837Y-42702051D01*
X97132833Y-42702048D01*
X97009919Y-42619919D01*
X97009906Y-42619912D01*
X96873335Y-42563343D01*
X96873325Y-42563340D01*
X96815915Y-42551920D01*
X100603917Y-42551920D01*
X100632758Y-42696907D01*
X100632761Y-42696917D01*
X100689330Y-42833488D01*
X100689337Y-42833501D01*
X100771466Y-42956415D01*
X100771469Y-42956419D01*
X100875998Y-43060948D01*
X100876002Y-43060951D01*
X100998916Y-43143080D01*
X100998929Y-43143087D01*
X101135500Y-43199656D01*
X101135505Y-43199658D01*
X101135509Y-43199658D01*
X101135510Y-43199659D01*
X101280497Y-43228500D01*
X101286560Y-43229097D01*
X101286430Y-43230412D01*
X101346957Y-43248185D01*
X101392712Y-43300989D01*
X101403918Y-43352500D01*
X101403918Y-43358918D01*
X101403918Y-43358920D01*
X101403917Y-43358920D01*
X101432758Y-43503907D01*
X101432761Y-43503917D01*
X101489330Y-43640488D01*
X101489337Y-43640501D01*
X101571466Y-43763415D01*
X101571469Y-43763419D01*
X101675998Y-43867948D01*
X101676002Y-43867951D01*
X101798916Y-43950080D01*
X101798929Y-43950087D01*
X101935500Y-44006656D01*
X101935505Y-44006658D01*
X101935509Y-44006658D01*
X101935510Y-44006659D01*
X102080497Y-44035500D01*
X102080500Y-44035500D01*
X102228338Y-44035500D01*
X102325880Y-44016096D01*
X102373331Y-44006658D01*
X102509913Y-43950084D01*
X102632834Y-43867951D01*
X102737369Y-43763416D01*
X102819502Y-43640495D01*
X102829746Y-43615765D01*
X102876074Y-43503917D01*
X102876076Y-43503913D01*
X102893746Y-43415084D01*
X102904918Y-43358920D01*
X102904918Y-43211079D01*
X102876077Y-43066092D01*
X102876076Y-43066091D01*
X102876076Y-43066087D01*
X102872948Y-43058535D01*
X102819505Y-42929511D01*
X102819498Y-42929498D01*
X102737369Y-42806584D01*
X102737366Y-42806580D01*
X102632837Y-42702051D01*
X102632833Y-42702048D01*
X102509919Y-42619919D01*
X102509906Y-42619912D01*
X102373335Y-42563343D01*
X102373325Y-42563340D01*
X102315915Y-42551920D01*
X106103917Y-42551920D01*
X106132758Y-42696907D01*
X106132761Y-42696917D01*
X106189330Y-42833488D01*
X106189337Y-42833501D01*
X106271466Y-42956415D01*
X106271469Y-42956419D01*
X106375998Y-43060948D01*
X106376002Y-43060951D01*
X106498916Y-43143080D01*
X106498929Y-43143087D01*
X106635500Y-43199656D01*
X106635505Y-43199658D01*
X106635509Y-43199658D01*
X106635510Y-43199659D01*
X106780497Y-43228500D01*
X106786560Y-43229097D01*
X106786430Y-43230412D01*
X106846957Y-43248185D01*
X106892712Y-43300989D01*
X106903918Y-43352500D01*
X106903918Y-43358918D01*
X106903918Y-43358920D01*
X106903917Y-43358920D01*
X106932758Y-43503907D01*
X106932761Y-43503917D01*
X106989330Y-43640488D01*
X106989337Y-43640501D01*
X107071466Y-43763415D01*
X107071469Y-43763419D01*
X107175998Y-43867948D01*
X107176002Y-43867951D01*
X107298916Y-43950080D01*
X107298929Y-43950087D01*
X107435500Y-44006656D01*
X107435505Y-44006658D01*
X107435509Y-44006658D01*
X107435510Y-44006659D01*
X107580497Y-44035500D01*
X107580500Y-44035500D01*
X107728338Y-44035500D01*
X107825880Y-44016096D01*
X107873331Y-44006658D01*
X108009913Y-43950084D01*
X108132834Y-43867951D01*
X108237369Y-43763416D01*
X108300252Y-43669304D01*
X120933438Y-43669304D01*
X120933438Y-43846695D01*
X120968041Y-44020658D01*
X120968044Y-44020667D01*
X121035921Y-44184540D01*
X121035928Y-44184553D01*
X121134473Y-44332034D01*
X121134476Y-44332038D01*
X121259899Y-44457461D01*
X121259903Y-44457464D01*
X121407384Y-44556009D01*
X121407397Y-44556016D01*
X121530301Y-44606923D01*
X121571272Y-44623894D01*
X121571274Y-44623894D01*
X121571279Y-44623896D01*
X121745242Y-44658499D01*
X121745245Y-44658500D01*
X121745247Y-44658500D01*
X121922631Y-44658500D01*
X121922632Y-44658499D01*
X121980620Y-44646964D01*
X122096596Y-44623896D01*
X122096599Y-44623894D01*
X122096604Y-44623894D01*
X122260485Y-44556013D01*
X122407973Y-44457464D01*
X122533402Y-44332035D01*
X122631951Y-44184547D01*
X122699832Y-44020666D01*
X122702619Y-44006659D01*
X122734437Y-43846695D01*
X122734438Y-43846693D01*
X122734438Y-43669306D01*
X122734437Y-43669304D01*
X122699834Y-43495341D01*
X122699831Y-43495332D01*
X122631954Y-43331459D01*
X122631947Y-43331446D01*
X122533402Y-43183965D01*
X122533399Y-43183961D01*
X122407976Y-43058538D01*
X122407972Y-43058535D01*
X122260491Y-42959990D01*
X122260478Y-42959983D01*
X122096605Y-42892106D01*
X122096596Y-42892103D01*
X121922632Y-42857500D01*
X121922629Y-42857500D01*
X121745247Y-42857500D01*
X121745244Y-42857500D01*
X121571279Y-42892103D01*
X121571270Y-42892106D01*
X121407397Y-42959983D01*
X121407384Y-42959990D01*
X121259903Y-43058535D01*
X121259899Y-43058538D01*
X121134476Y-43183961D01*
X121134473Y-43183965D01*
X121035928Y-43331446D01*
X121035921Y-43331459D01*
X120968044Y-43495332D01*
X120968041Y-43495341D01*
X120933438Y-43669304D01*
X108300252Y-43669304D01*
X108319502Y-43640495D01*
X108319505Y-43640488D01*
X108329746Y-43615765D01*
X108376074Y-43503917D01*
X108376076Y-43503913D01*
X108393746Y-43415084D01*
X108404918Y-43358920D01*
X108404918Y-43211079D01*
X108376077Y-43066092D01*
X108376076Y-43066091D01*
X108376076Y-43066087D01*
X108372948Y-43058535D01*
X108319505Y-42929511D01*
X108319498Y-42929498D01*
X108237369Y-42806584D01*
X108237366Y-42806580D01*
X108132837Y-42702051D01*
X108132833Y-42702048D01*
X108009919Y-42619919D01*
X108009906Y-42619912D01*
X107873335Y-42563343D01*
X107873325Y-42563340D01*
X107728338Y-42534499D01*
X107722276Y-42533903D01*
X107722405Y-42532587D01*
X107661879Y-42514815D01*
X107616124Y-42462011D01*
X107604918Y-42410500D01*
X107604918Y-42404079D01*
X107576077Y-42259092D01*
X107576076Y-42259091D01*
X107576076Y-42259087D01*
X107551399Y-42199511D01*
X107519505Y-42122511D01*
X107519498Y-42122498D01*
X107437369Y-41999584D01*
X107437366Y-41999580D01*
X107332837Y-41895051D01*
X107332833Y-41895048D01*
X107209919Y-41812919D01*
X107209906Y-41812912D01*
X107073335Y-41756343D01*
X107073325Y-41756340D01*
X106928338Y-41727500D01*
X106928336Y-41727500D01*
X106780500Y-41727500D01*
X106780498Y-41727500D01*
X106635510Y-41756340D01*
X106635500Y-41756343D01*
X106498929Y-41812912D01*
X106498916Y-41812919D01*
X106376002Y-41895048D01*
X106375998Y-41895051D01*
X106271469Y-41999580D01*
X106271466Y-41999584D01*
X106189337Y-42122498D01*
X106189330Y-42122511D01*
X106132761Y-42259082D01*
X106132758Y-42259092D01*
X106103918Y-42404079D01*
X106103918Y-42404082D01*
X106103918Y-42551918D01*
X106103918Y-42551920D01*
X106103917Y-42551920D01*
X102315915Y-42551920D01*
X102228338Y-42534499D01*
X102222276Y-42533903D01*
X102222405Y-42532587D01*
X102220232Y-42531949D01*
X102211271Y-42533238D01*
X102187230Y-42522259D01*
X102161879Y-42514815D01*
X102155951Y-42507974D01*
X102147715Y-42504213D01*
X102133425Y-42481978D01*
X102116124Y-42462011D01*
X102113836Y-42451496D01*
X102109941Y-42445435D01*
X102104918Y-42410500D01*
X102104918Y-42404079D01*
X102076077Y-42259092D01*
X102076076Y-42259091D01*
X102076076Y-42259087D01*
X102051399Y-42199511D01*
X102019505Y-42122511D01*
X102019498Y-42122498D01*
X101937369Y-41999584D01*
X101937366Y-41999580D01*
X101832837Y-41895051D01*
X101832833Y-41895048D01*
X101709919Y-41812919D01*
X101709906Y-41812912D01*
X101573335Y-41756343D01*
X101573325Y-41756340D01*
X101428338Y-41727500D01*
X101428336Y-41727500D01*
X101280500Y-41727500D01*
X101280498Y-41727500D01*
X101135510Y-41756340D01*
X101135500Y-41756343D01*
X100998929Y-41812912D01*
X100998916Y-41812919D01*
X100876002Y-41895048D01*
X100875998Y-41895051D01*
X100771469Y-41999580D01*
X100771466Y-41999584D01*
X100689337Y-42122498D01*
X100689330Y-42122511D01*
X100632761Y-42259082D01*
X100632758Y-42259092D01*
X100603918Y-42404079D01*
X100603918Y-42404082D01*
X100603918Y-42551918D01*
X100603918Y-42551920D01*
X100603917Y-42551920D01*
X96815915Y-42551920D01*
X96728338Y-42534499D01*
X96722276Y-42533903D01*
X96722405Y-42532587D01*
X96720232Y-42531949D01*
X96711271Y-42533238D01*
X96687230Y-42522259D01*
X96661879Y-42514815D01*
X96655951Y-42507974D01*
X96647715Y-42504213D01*
X96633425Y-42481978D01*
X96616124Y-42462011D01*
X96613836Y-42451496D01*
X96609941Y-42445435D01*
X96604918Y-42410500D01*
X96604918Y-42404079D01*
X96576077Y-42259092D01*
X96576076Y-42259091D01*
X96576076Y-42259087D01*
X96551399Y-42199511D01*
X96519505Y-42122511D01*
X96519498Y-42122498D01*
X96437369Y-41999584D01*
X96437366Y-41999580D01*
X96332837Y-41895051D01*
X96332833Y-41895048D01*
X96209919Y-41812919D01*
X96209906Y-41812912D01*
X96073335Y-41756343D01*
X96073325Y-41756340D01*
X95928338Y-41727500D01*
X95928336Y-41727500D01*
X95780500Y-41727500D01*
X95780498Y-41727500D01*
X95635510Y-41756340D01*
X95635500Y-41756343D01*
X95498929Y-41812912D01*
X95498916Y-41812919D01*
X95376002Y-41895048D01*
X95375998Y-41895051D01*
X95271469Y-41999580D01*
X95271466Y-41999584D01*
X95189337Y-42122498D01*
X95189330Y-42122511D01*
X95132761Y-42259082D01*
X95132758Y-42259092D01*
X95103918Y-42404079D01*
X95103918Y-42404082D01*
X95103918Y-42551918D01*
X95103918Y-42551920D01*
X95103917Y-42551920D01*
X91699500Y-42551920D01*
X91699500Y-42481082D01*
X91699500Y-42481079D01*
X91687784Y-42422182D01*
X91670659Y-42336092D01*
X91670658Y-42336091D01*
X91670658Y-42336087D01*
X91643940Y-42271584D01*
X91614087Y-42199511D01*
X91614080Y-42199498D01*
X91531951Y-42076584D01*
X91531948Y-42076580D01*
X91427419Y-41972051D01*
X91427415Y-41972048D01*
X91304501Y-41889919D01*
X91304488Y-41889912D01*
X91167917Y-41833343D01*
X91167907Y-41833340D01*
X91022920Y-41804500D01*
X91022918Y-41804500D01*
X90875082Y-41804500D01*
X90875080Y-41804500D01*
X90730092Y-41833340D01*
X90730082Y-41833343D01*
X90593511Y-41889912D01*
X90593498Y-41889919D01*
X90470587Y-41972046D01*
X90470586Y-41972046D01*
X90448399Y-41994233D01*
X90387075Y-42027715D01*
X90336530Y-42028165D01*
X90192421Y-41999500D01*
X90192418Y-41999500D01*
X90044582Y-41999500D01*
X90044580Y-41999500D01*
X89899592Y-42028340D01*
X89899582Y-42028343D01*
X89763006Y-42084914D01*
X89763004Y-42084915D01*
X89737389Y-42102031D01*
X89670711Y-42122908D01*
X89603331Y-42104422D01*
X89599611Y-42102031D01*
X89573995Y-42084915D01*
X89573993Y-42084914D01*
X89437417Y-42028343D01*
X89437407Y-42028340D01*
X89292420Y-41999500D01*
X89292418Y-41999500D01*
X89144582Y-41999500D01*
X89144580Y-41999500D01*
X88999592Y-42028340D01*
X88999582Y-42028343D01*
X88863011Y-42084912D01*
X88862998Y-42084919D01*
X88737391Y-42168848D01*
X88670713Y-42189726D01*
X88603333Y-42171241D01*
X88599609Y-42168848D01*
X88474001Y-42084919D01*
X88473988Y-42084912D01*
X88337417Y-42028343D01*
X88337407Y-42028340D01*
X88192420Y-41999500D01*
X88192418Y-41999500D01*
X88044582Y-41999500D01*
X88044580Y-41999500D01*
X87899592Y-42028340D01*
X87899582Y-42028343D01*
X87763006Y-42084914D01*
X87763004Y-42084915D01*
X87737389Y-42102031D01*
X87670711Y-42122908D01*
X87603331Y-42104422D01*
X87599611Y-42102031D01*
X87573995Y-42084915D01*
X87573993Y-42084914D01*
X87437417Y-42028343D01*
X87437407Y-42028340D01*
X87292420Y-41999500D01*
X87292418Y-41999500D01*
X87144582Y-41999500D01*
X87144580Y-41999500D01*
X86999592Y-42028340D01*
X86999582Y-42028343D01*
X86863011Y-42084912D01*
X86862998Y-42084919D01*
X86740084Y-42167048D01*
X86740080Y-42167051D01*
X86635551Y-42271580D01*
X86635548Y-42271584D01*
X86553419Y-42394498D01*
X86553412Y-42394511D01*
X86496843Y-42531082D01*
X86496840Y-42531092D01*
X86468000Y-42676079D01*
X86468000Y-42676082D01*
X86468000Y-42823918D01*
X86468000Y-42823920D01*
X86467999Y-42823920D01*
X81290960Y-42823920D01*
X81463173Y-42612617D01*
X81465791Y-42609512D01*
X82101013Y-41881861D01*
X82103768Y-41878810D01*
X82763248Y-41173089D01*
X82766107Y-41170132D01*
X83274820Y-40661420D01*
X96703917Y-40661420D01*
X96732758Y-40806407D01*
X96732761Y-40806417D01*
X96789330Y-40942988D01*
X96789337Y-40943001D01*
X96871466Y-41065915D01*
X96871469Y-41065919D01*
X96975998Y-41170448D01*
X96976002Y-41170451D01*
X97098916Y-41252580D01*
X97098929Y-41252587D01*
X97235500Y-41309156D01*
X97235505Y-41309158D01*
X97235509Y-41309158D01*
X97235510Y-41309159D01*
X97380497Y-41338000D01*
X97380500Y-41338000D01*
X97528338Y-41338000D01*
X97625880Y-41318596D01*
X97673331Y-41309158D01*
X97809913Y-41252584D01*
X97932834Y-41170451D01*
X98037369Y-41065916D01*
X98119502Y-40942995D01*
X98176076Y-40806413D01*
X98204918Y-40661420D01*
X102203917Y-40661420D01*
X102232758Y-40806407D01*
X102232761Y-40806417D01*
X102289330Y-40942988D01*
X102289337Y-40943001D01*
X102371466Y-41065915D01*
X102371469Y-41065919D01*
X102475998Y-41170448D01*
X102476002Y-41170451D01*
X102598916Y-41252580D01*
X102598929Y-41252587D01*
X102735500Y-41309156D01*
X102735505Y-41309158D01*
X102735509Y-41309158D01*
X102735510Y-41309159D01*
X102880497Y-41338000D01*
X102880500Y-41338000D01*
X103028338Y-41338000D01*
X103125880Y-41318596D01*
X103173331Y-41309158D01*
X103309913Y-41252584D01*
X103432834Y-41170451D01*
X103537369Y-41065916D01*
X103619502Y-40942995D01*
X103676076Y-40806413D01*
X103704918Y-40661420D01*
X107703917Y-40661420D01*
X107732758Y-40806407D01*
X107732761Y-40806417D01*
X107789330Y-40942988D01*
X107789337Y-40943001D01*
X107871466Y-41065915D01*
X107871469Y-41065919D01*
X107975998Y-41170448D01*
X107976002Y-41170451D01*
X108098916Y-41252580D01*
X108098929Y-41252587D01*
X108235500Y-41309156D01*
X108235505Y-41309158D01*
X108235509Y-41309158D01*
X108235510Y-41309159D01*
X108380497Y-41338000D01*
X108380500Y-41338000D01*
X108528338Y-41338000D01*
X108625880Y-41318596D01*
X108673331Y-41309158D01*
X108809913Y-41252584D01*
X108932834Y-41170451D01*
X109037369Y-41065916D01*
X109119502Y-40942995D01*
X109176076Y-40806413D01*
X109204918Y-40661418D01*
X109204918Y-40513582D01*
X109204918Y-40513579D01*
X109176077Y-40368592D01*
X109176076Y-40368591D01*
X109176076Y-40368587D01*
X109123354Y-40241304D01*
X116193438Y-40241304D01*
X116193438Y-40418695D01*
X116228041Y-40592658D01*
X116228044Y-40592667D01*
X116295921Y-40756540D01*
X116295928Y-40756553D01*
X116394473Y-40904034D01*
X116394476Y-40904038D01*
X116519899Y-41029461D01*
X116519903Y-41029464D01*
X116667384Y-41128009D01*
X116667397Y-41128016D01*
X116772577Y-41171582D01*
X116831272Y-41195894D01*
X116831274Y-41195894D01*
X116831279Y-41195896D01*
X117005242Y-41230499D01*
X117005245Y-41230500D01*
X117005247Y-41230500D01*
X117182631Y-41230500D01*
X117182632Y-41230499D01*
X117240620Y-41218964D01*
X117356596Y-41195896D01*
X117356599Y-41195894D01*
X117356604Y-41195894D01*
X117520485Y-41128013D01*
X117667973Y-41029464D01*
X117793402Y-40904035D01*
X117891951Y-40756547D01*
X117959832Y-40592666D01*
X117975564Y-40513579D01*
X117994437Y-40418695D01*
X117994438Y-40418693D01*
X117994438Y-40241306D01*
X117994437Y-40241304D01*
X117959834Y-40067341D01*
X117959831Y-40067332D01*
X117891954Y-39903459D01*
X117891947Y-39903446D01*
X117793402Y-39755965D01*
X117793399Y-39755961D01*
X117667976Y-39630538D01*
X117667972Y-39630535D01*
X117520491Y-39531990D01*
X117520478Y-39531983D01*
X117356605Y-39464106D01*
X117356596Y-39464103D01*
X117182632Y-39429500D01*
X117182629Y-39429500D01*
X117005247Y-39429500D01*
X117005244Y-39429500D01*
X116831279Y-39464103D01*
X116831270Y-39464106D01*
X116667397Y-39531983D01*
X116667384Y-39531990D01*
X116519903Y-39630535D01*
X116519899Y-39630538D01*
X116394476Y-39755961D01*
X116394473Y-39755965D01*
X116295928Y-39903446D01*
X116295921Y-39903459D01*
X116228044Y-40067332D01*
X116228041Y-40067341D01*
X116193438Y-40241304D01*
X109123354Y-40241304D01*
X109119505Y-40232011D01*
X109119498Y-40231998D01*
X109037369Y-40109084D01*
X109037366Y-40109080D01*
X108932837Y-40004551D01*
X108932833Y-40004548D01*
X108809919Y-39922419D01*
X108809906Y-39922412D01*
X108673335Y-39865843D01*
X108673325Y-39865840D01*
X108528338Y-39837000D01*
X108528336Y-39837000D01*
X108380500Y-39837000D01*
X108380498Y-39837000D01*
X108235510Y-39865840D01*
X108235500Y-39865843D01*
X108098929Y-39922412D01*
X108098916Y-39922419D01*
X107976002Y-40004548D01*
X107975998Y-40004551D01*
X107871469Y-40109080D01*
X107871466Y-40109084D01*
X107789337Y-40231998D01*
X107789330Y-40232011D01*
X107732761Y-40368582D01*
X107732758Y-40368592D01*
X107703918Y-40513579D01*
X107703918Y-40513582D01*
X107703918Y-40661418D01*
X107703918Y-40661420D01*
X107703917Y-40661420D01*
X103704918Y-40661420D01*
X103704918Y-40661418D01*
X103704918Y-40513582D01*
X103704918Y-40513579D01*
X103676077Y-40368592D01*
X103676076Y-40368591D01*
X103676076Y-40368587D01*
X103640488Y-40282670D01*
X103619505Y-40232011D01*
X103619498Y-40231998D01*
X103537369Y-40109084D01*
X103537366Y-40109080D01*
X103432837Y-40004551D01*
X103432833Y-40004548D01*
X103309919Y-39922419D01*
X103309906Y-39922412D01*
X103173335Y-39865843D01*
X103173325Y-39865840D01*
X103028338Y-39837000D01*
X103028336Y-39837000D01*
X102880500Y-39837000D01*
X102880498Y-39837000D01*
X102735510Y-39865840D01*
X102735500Y-39865843D01*
X102598929Y-39922412D01*
X102598916Y-39922419D01*
X102476002Y-40004548D01*
X102475998Y-40004551D01*
X102371469Y-40109080D01*
X102371466Y-40109084D01*
X102289337Y-40231998D01*
X102289330Y-40232011D01*
X102232761Y-40368582D01*
X102232758Y-40368592D01*
X102203918Y-40513579D01*
X102203918Y-40513582D01*
X102203918Y-40661418D01*
X102203918Y-40661420D01*
X102203917Y-40661420D01*
X98204918Y-40661420D01*
X98204918Y-40661418D01*
X98204918Y-40513582D01*
X98204918Y-40513579D01*
X98176077Y-40368592D01*
X98176076Y-40368591D01*
X98176076Y-40368587D01*
X98140488Y-40282670D01*
X98119505Y-40232011D01*
X98119498Y-40231998D01*
X98037369Y-40109084D01*
X98037366Y-40109080D01*
X97932837Y-40004551D01*
X97932833Y-40004548D01*
X97809919Y-39922419D01*
X97809906Y-39922412D01*
X97673335Y-39865843D01*
X97673325Y-39865840D01*
X97528338Y-39837000D01*
X97528336Y-39837000D01*
X97380500Y-39837000D01*
X97380498Y-39837000D01*
X97235510Y-39865840D01*
X97235500Y-39865843D01*
X97098929Y-39922412D01*
X97098916Y-39922419D01*
X96976002Y-40004548D01*
X96975998Y-40004551D01*
X96871469Y-40109080D01*
X96871466Y-40109084D01*
X96789337Y-40231998D01*
X96789330Y-40232011D01*
X96732761Y-40368582D01*
X96732758Y-40368592D01*
X96703918Y-40513579D01*
X96703918Y-40513582D01*
X96703918Y-40661418D01*
X96703918Y-40661420D01*
X96703917Y-40661420D01*
X83274820Y-40661420D01*
X83449069Y-40487171D01*
X83452025Y-40484313D01*
X84157748Y-39824835D01*
X84160799Y-39822079D01*
X84740344Y-39316153D01*
X88701438Y-39316153D01*
X88701438Y-39473846D01*
X88732199Y-39628489D01*
X88732202Y-39628501D01*
X88792540Y-39774172D01*
X88792547Y-39774185D01*
X88880148Y-39905288D01*
X88880151Y-39905292D01*
X88991645Y-40016786D01*
X88991649Y-40016789D01*
X89122752Y-40104390D01*
X89122765Y-40104397D01*
X89268436Y-40164735D01*
X89268441Y-40164737D01*
X89423091Y-40195499D01*
X89423094Y-40195500D01*
X89423096Y-40195500D01*
X89580782Y-40195500D01*
X89580783Y-40195499D01*
X89735435Y-40164737D01*
X89881117Y-40104394D01*
X90012227Y-40016789D01*
X90123727Y-39905289D01*
X90211332Y-39774179D01*
X90271675Y-39628497D01*
X90302438Y-39473842D01*
X90302438Y-39316158D01*
X90302438Y-39316155D01*
X90302437Y-39316153D01*
X90294351Y-39275501D01*
X90271675Y-39161503D01*
X90262316Y-39138907D01*
X90211335Y-39015827D01*
X90211328Y-39015814D01*
X90196699Y-38993920D01*
X99603917Y-38993920D01*
X99632758Y-39138907D01*
X99632761Y-39138917D01*
X99689330Y-39275488D01*
X99689337Y-39275501D01*
X99771466Y-39398415D01*
X99771469Y-39398419D01*
X99875998Y-39502948D01*
X99876002Y-39502951D01*
X99998916Y-39585080D01*
X99998929Y-39585087D01*
X100108654Y-39630536D01*
X100135505Y-39641658D01*
X100135509Y-39641658D01*
X100135510Y-39641659D01*
X100280497Y-39670500D01*
X100280500Y-39670500D01*
X100428338Y-39670500D01*
X100525880Y-39651096D01*
X100573331Y-39641658D01*
X100709913Y-39585084D01*
X100832834Y-39502951D01*
X100937369Y-39398416D01*
X101019502Y-39275495D01*
X101076076Y-39138913D01*
X101104918Y-38993920D01*
X105103917Y-38993920D01*
X105132758Y-39138907D01*
X105132761Y-39138917D01*
X105189330Y-39275488D01*
X105189337Y-39275501D01*
X105271466Y-39398415D01*
X105271469Y-39398419D01*
X105375998Y-39502948D01*
X105376002Y-39502951D01*
X105498916Y-39585080D01*
X105498929Y-39585087D01*
X105608654Y-39630536D01*
X105635505Y-39641658D01*
X105635509Y-39641658D01*
X105635510Y-39641659D01*
X105780497Y-39670500D01*
X105780500Y-39670500D01*
X105928338Y-39670500D01*
X106025880Y-39651096D01*
X106073331Y-39641658D01*
X106209913Y-39585084D01*
X106332834Y-39502951D01*
X106437369Y-39398416D01*
X106519502Y-39275495D01*
X106576076Y-39138913D01*
X106604918Y-38993920D01*
X110603917Y-38993920D01*
X110632758Y-39138907D01*
X110632761Y-39138917D01*
X110689330Y-39275488D01*
X110689337Y-39275501D01*
X110771466Y-39398415D01*
X110771469Y-39398419D01*
X110875998Y-39502948D01*
X110876002Y-39502951D01*
X110998916Y-39585080D01*
X110998929Y-39585087D01*
X111108654Y-39630536D01*
X111135505Y-39641658D01*
X111135509Y-39641658D01*
X111135510Y-39641659D01*
X111280497Y-39670500D01*
X111280500Y-39670500D01*
X111428338Y-39670500D01*
X111525880Y-39651096D01*
X111573331Y-39641658D01*
X111709913Y-39585084D01*
X111832834Y-39502951D01*
X111937369Y-39398416D01*
X112019502Y-39275495D01*
X112076076Y-39138913D01*
X112104918Y-38993918D01*
X112104918Y-38846082D01*
X112104918Y-38846079D01*
X112076077Y-38701092D01*
X112076076Y-38701091D01*
X112076076Y-38701087D01*
X112044668Y-38625261D01*
X112019505Y-38564511D01*
X112019498Y-38564498D01*
X111937369Y-38441584D01*
X111937366Y-38441580D01*
X111832837Y-38337051D01*
X111832833Y-38337048D01*
X111709919Y-38254919D01*
X111709906Y-38254912D01*
X111573335Y-38198343D01*
X111573325Y-38198340D01*
X111428338Y-38169500D01*
X111428336Y-38169500D01*
X111280500Y-38169500D01*
X111280498Y-38169500D01*
X111135510Y-38198340D01*
X111135500Y-38198343D01*
X110998929Y-38254912D01*
X110998916Y-38254919D01*
X110876002Y-38337048D01*
X110875998Y-38337051D01*
X110771469Y-38441580D01*
X110771466Y-38441584D01*
X110689337Y-38564498D01*
X110689330Y-38564511D01*
X110632761Y-38701082D01*
X110632758Y-38701092D01*
X110603918Y-38846079D01*
X110603918Y-38846082D01*
X110603918Y-38993918D01*
X110603918Y-38993920D01*
X110603917Y-38993920D01*
X106604918Y-38993920D01*
X106604918Y-38993918D01*
X106604918Y-38846082D01*
X106604918Y-38846079D01*
X106576077Y-38701092D01*
X106576076Y-38701091D01*
X106576076Y-38701087D01*
X106544668Y-38625261D01*
X106519505Y-38564511D01*
X106519498Y-38564498D01*
X106437369Y-38441584D01*
X106437366Y-38441580D01*
X106332837Y-38337051D01*
X106332833Y-38337048D01*
X106209919Y-38254919D01*
X106209906Y-38254912D01*
X106073335Y-38198343D01*
X106073325Y-38198340D01*
X105928338Y-38169500D01*
X105928336Y-38169500D01*
X105780500Y-38169500D01*
X105780498Y-38169500D01*
X105635510Y-38198340D01*
X105635500Y-38198343D01*
X105498929Y-38254912D01*
X105498916Y-38254919D01*
X105376002Y-38337048D01*
X105375998Y-38337051D01*
X105271469Y-38441580D01*
X105271466Y-38441584D01*
X105189337Y-38564498D01*
X105189330Y-38564511D01*
X105132761Y-38701082D01*
X105132758Y-38701092D01*
X105103918Y-38846079D01*
X105103918Y-38846082D01*
X105103918Y-38993918D01*
X105103918Y-38993920D01*
X105103917Y-38993920D01*
X101104918Y-38993920D01*
X101104918Y-38993918D01*
X101104918Y-38846082D01*
X101104918Y-38846079D01*
X101076077Y-38701092D01*
X101076076Y-38701091D01*
X101076076Y-38701087D01*
X101044668Y-38625261D01*
X101019505Y-38564511D01*
X101019498Y-38564498D01*
X100937369Y-38441584D01*
X100937366Y-38441580D01*
X100832837Y-38337051D01*
X100832833Y-38337048D01*
X100709919Y-38254919D01*
X100709906Y-38254912D01*
X100573335Y-38198343D01*
X100573325Y-38198340D01*
X100428338Y-38169500D01*
X100428336Y-38169500D01*
X100280500Y-38169500D01*
X100280498Y-38169500D01*
X100135510Y-38198340D01*
X100135500Y-38198343D01*
X99998929Y-38254912D01*
X99998916Y-38254919D01*
X99876002Y-38337048D01*
X99875998Y-38337051D01*
X99771469Y-38441580D01*
X99771466Y-38441584D01*
X99689337Y-38564498D01*
X99689330Y-38564511D01*
X99632761Y-38701082D01*
X99632758Y-38701092D01*
X99603918Y-38846079D01*
X99603918Y-38846082D01*
X99603918Y-38993918D01*
X99603918Y-38993920D01*
X99603917Y-38993920D01*
X90196699Y-38993920D01*
X90139877Y-38908881D01*
X90139876Y-38908880D01*
X90123725Y-38884708D01*
X90012230Y-38773213D01*
X90012226Y-38773210D01*
X89881123Y-38685609D01*
X89881110Y-38685602D01*
X89735439Y-38625264D01*
X89735427Y-38625261D01*
X89580783Y-38594500D01*
X89580780Y-38594500D01*
X89423096Y-38594500D01*
X89423093Y-38594500D01*
X89268448Y-38625261D01*
X89268436Y-38625264D01*
X89122765Y-38685602D01*
X89122752Y-38685609D01*
X88991649Y-38773210D01*
X88991645Y-38773213D01*
X88880151Y-38884707D01*
X88880148Y-38884711D01*
X88792547Y-39015814D01*
X88792540Y-39015827D01*
X88732202Y-39161498D01*
X88732199Y-39161510D01*
X88701438Y-39316153D01*
X84740344Y-39316153D01*
X84888452Y-39186859D01*
X84891557Y-39184240D01*
X85640266Y-38574041D01*
X85643506Y-38571491D01*
X86412422Y-37987003D01*
X86415739Y-37984568D01*
X87204033Y-37426422D01*
X87207434Y-37424099D01*
X88014185Y-36892949D01*
X88017636Y-36890760D01*
X88734755Y-36452681D01*
X88799396Y-36434500D01*
X96691166Y-36434500D01*
X96758205Y-36454185D01*
G37*
%TD.AperFunction*%
%TD*%
M02*
