%TF.GenerationSoftware,KiCad,Pcbnew,9.0.6*%
%TF.CreationDate,2026-01-26T20:59:56+01:00*%
%TF.ProjectId,neptune-env,6e657074-756e-4652-9d65-6e762e6b6963,1.0*%
%TF.SameCoordinates,Original*%
%TF.FileFunction,Paste,Top*%
%TF.FilePolarity,Positive*%
%FSLAX46Y46*%
G04 Gerber Fmt 4.6, Leading zero omitted, Abs format (unit mm)*
G04 Created by KiCad (PCBNEW 9.0.6) date 2026-01-26 20:59:56*
%MOMM*%
%LPD*%
G01*
G04 APERTURE LIST*
G04 Aperture macros list*
%AMRoundRect*
0 Rectangle with rounded corners*
0 $1 Rounding radius*
0 $2 $3 $4 $5 $6 $7 $8 $9 X,Y pos of 4 corners*
0 Add a 4 corners polygon primitive as box body*
4,1,4,$2,$3,$4,$5,$6,$7,$8,$9,$2,$3,0*
0 Add four circle primitives for the rounded corners*
1,1,$1+$1,$2,$3*
1,1,$1+$1,$4,$5*
1,1,$1+$1,$6,$7*
1,1,$1+$1,$8,$9*
0 Add four rect primitives between the rounded corners*
20,1,$1+$1,$2,$3,$4,$5,0*
20,1,$1+$1,$4,$5,$6,$7,0*
20,1,$1+$1,$6,$7,$8,$9,0*
20,1,$1+$1,$8,$9,$2,$3,0*%
G04 Aperture macros list end*
%ADD10RoundRect,0.140000X-0.140000X-0.170000X0.140000X-0.170000X0.140000X0.170000X-0.140000X0.170000X0*%
%ADD11RoundRect,0.079500X-0.100500X0.079500X-0.100500X-0.079500X0.100500X-0.079500X0.100500X0.079500X0*%
%ADD12RoundRect,0.150000X0.150000X-0.512500X0.150000X0.512500X-0.150000X0.512500X-0.150000X-0.512500X0*%
%ADD13RoundRect,0.225000X0.225000X0.250000X-0.225000X0.250000X-0.225000X-0.250000X0.225000X-0.250000X0*%
%ADD14RoundRect,0.250000X-0.405000X-0.405000X0.405000X-0.405000X0.405000X0.405000X-0.405000X0.405000X0*%
%ADD15RoundRect,0.075000X-0.337500X-0.075000X0.337500X-0.075000X0.337500X0.075000X-0.337500X0.075000X0*%
%ADD16RoundRect,0.075000X-0.075000X-0.337500X0.075000X-0.337500X0.075000X0.337500X-0.075000X0.337500X0*%
%ADD17RoundRect,0.250000X-0.625000X0.312500X-0.625000X-0.312500X0.625000X-0.312500X0.625000X0.312500X0*%
%ADD18RoundRect,0.125000X0.125000X0.137500X-0.125000X0.137500X-0.125000X-0.137500X0.125000X-0.137500X0*%
%ADD19RoundRect,0.135000X0.135000X0.185000X-0.135000X0.185000X-0.135000X-0.185000X0.135000X-0.185000X0*%
%ADD20RoundRect,0.225000X-0.225000X-0.250000X0.225000X-0.250000X0.225000X0.250000X-0.225000X0.250000X0*%
%ADD21RoundRect,0.140000X0.140000X0.170000X-0.140000X0.170000X-0.140000X-0.170000X0.140000X-0.170000X0*%
%ADD22RoundRect,0.140000X0.170000X-0.140000X0.170000X0.140000X-0.170000X0.140000X-0.170000X-0.140000X0*%
%ADD23RoundRect,0.079500X0.100500X-0.079500X0.100500X0.079500X-0.100500X0.079500X-0.100500X-0.079500X0*%
%ADD24RoundRect,0.140000X-0.170000X0.140000X-0.170000X-0.140000X0.170000X-0.140000X0.170000X0.140000X0*%
%ADD25RoundRect,0.232500X0.232500X-0.232500X0.232500X0.232500X-0.232500X0.232500X-0.232500X-0.232500X0*%
%ADD26RoundRect,0.062500X0.062500X-0.375000X0.062500X0.375000X-0.062500X0.375000X-0.062500X-0.375000X0*%
%ADD27RoundRect,0.062500X0.375000X-0.062500X0.375000X0.062500X-0.375000X0.062500X-0.375000X-0.062500X0*%
G04 APERTURE END LIST*
D10*
%TO.C,C10*%
X102557938Y-83600000D03*
X103517938Y-83600000D03*
%TD*%
D11*
%TO.C,C11*%
X114332938Y-75779000D03*
X114332938Y-76469000D03*
%TD*%
D12*
%TO.C,U5*%
X121658938Y-47815500D03*
X122608938Y-47815500D03*
X123558938Y-47815500D03*
X123558938Y-45540500D03*
X121658938Y-45540500D03*
%TD*%
D13*
%TO.C,C1*%
X92435938Y-39395000D03*
X90885938Y-39395000D03*
%TD*%
D14*
%TO.C,U3*%
X102552938Y-79166500D03*
X102552938Y-80786500D03*
X104172938Y-79166500D03*
X104172938Y-80786500D03*
D15*
X100925438Y-78676500D03*
X100925438Y-79326500D03*
X100925438Y-79976500D03*
X100925438Y-80626500D03*
X100925438Y-81276500D03*
D16*
X102062938Y-82414000D03*
X102712938Y-82414000D03*
X103362938Y-82414000D03*
X104012938Y-82414000D03*
X104662938Y-82414000D03*
D15*
X105800438Y-81276500D03*
X105800438Y-80626500D03*
X105800438Y-79976500D03*
X105800438Y-79326500D03*
X105800438Y-78676500D03*
D16*
X104662938Y-77539000D03*
X104012938Y-77539000D03*
X103362938Y-77539000D03*
X102712938Y-77539000D03*
X102062938Y-77539000D03*
%TD*%
D10*
%TO.C,C7*%
X91057938Y-83600000D03*
X92017938Y-83600000D03*
%TD*%
D17*
%TO.C,R2*%
X87392938Y-78189000D03*
X87392938Y-81114000D03*
%TD*%
D11*
%TO.C,C8*%
X102832938Y-75779000D03*
X102832938Y-76469000D03*
%TD*%
D17*
%TO.C,R3*%
X98892938Y-78189000D03*
X98892938Y-81114000D03*
%TD*%
D14*
%TO.C,U4*%
X114052938Y-79166500D03*
X114052938Y-80786500D03*
X115672938Y-79166500D03*
X115672938Y-80786500D03*
D15*
X112425438Y-78676500D03*
X112425438Y-79326500D03*
X112425438Y-79976500D03*
X112425438Y-80626500D03*
X112425438Y-81276500D03*
D16*
X113562938Y-82414000D03*
X114212938Y-82414000D03*
X114862938Y-82414000D03*
X115512938Y-82414000D03*
X116162938Y-82414000D03*
D15*
X117300438Y-81276500D03*
X117300438Y-80626500D03*
X117300438Y-79976500D03*
X117300438Y-79326500D03*
X117300438Y-78676500D03*
D16*
X116162938Y-77539000D03*
X115512938Y-77539000D03*
X114862938Y-77539000D03*
X114212938Y-77539000D03*
X113562938Y-77539000D03*
%TD*%
D18*
%TO.C,U8*%
X110054418Y-40587500D03*
X109254418Y-40587500D03*
X108454418Y-40587500D03*
X107654418Y-40587500D03*
X107654418Y-38212500D03*
X108454418Y-38212500D03*
X109254418Y-38212500D03*
X110054418Y-38212500D03*
%TD*%
D19*
%TO.C,R1*%
X84651938Y-44488000D03*
X83631938Y-44488000D03*
%TD*%
D20*
%TO.C,C22*%
X90654000Y-41252000D03*
X92204000Y-41252000D03*
%TD*%
D17*
%TO.C,R4*%
X110392938Y-78189000D03*
X110392938Y-81114000D03*
%TD*%
D21*
%TO.C,C16*%
X98334418Y-37110000D03*
X97374418Y-37110000D03*
%TD*%
D22*
%TO.C,C2*%
X85496000Y-49076000D03*
X85496000Y-48116000D03*
%TD*%
D10*
%TO.C,C4*%
X90949000Y-42555000D03*
X91909000Y-42555000D03*
%TD*%
%TO.C,C13*%
X114057938Y-83600000D03*
X115017938Y-83600000D03*
%TD*%
D23*
%TO.C,C12*%
X113442938Y-76469000D03*
X113442938Y-75779000D03*
%TD*%
D24*
%TO.C,C19*%
X105854418Y-38920000D03*
X105854418Y-39880000D03*
%TD*%
D13*
%TO.C,C14*%
X122908938Y-49598000D03*
X121358938Y-49598000D03*
%TD*%
D24*
%TO.C,C21*%
X111354418Y-38920000D03*
X111354418Y-39880000D03*
%TD*%
D14*
%TO.C,U2*%
X91052938Y-79166500D03*
X91052938Y-80786500D03*
X92672938Y-79166500D03*
X92672938Y-80786500D03*
D15*
X89425438Y-78676500D03*
X89425438Y-79326500D03*
X89425438Y-79976500D03*
X89425438Y-80626500D03*
X89425438Y-81276500D03*
D16*
X90562938Y-82414000D03*
X91212938Y-82414000D03*
X91862938Y-82414000D03*
X92512938Y-82414000D03*
X93162938Y-82414000D03*
D15*
X94300438Y-81276500D03*
X94300438Y-80626500D03*
X94300438Y-79976500D03*
X94300438Y-79326500D03*
X94300438Y-78676500D03*
D16*
X93162938Y-77539000D03*
X92512938Y-77539000D03*
X91862938Y-77539000D03*
X91212938Y-77539000D03*
X90562938Y-77539000D03*
%TD*%
D18*
%TO.C,U7*%
X104554418Y-40587500D03*
X103754418Y-40587500D03*
X102954418Y-40587500D03*
X102154418Y-40587500D03*
X102154418Y-38212500D03*
X102954418Y-38212500D03*
X103754418Y-38212500D03*
X104554418Y-38212500D03*
%TD*%
D23*
%TO.C,C9*%
X101942938Y-76469000D03*
X101942938Y-75779000D03*
%TD*%
D21*
%TO.C,C18*%
X103834418Y-37110000D03*
X102874418Y-37110000D03*
%TD*%
D24*
%TO.C,C17*%
X100354418Y-38920000D03*
X100354418Y-39880000D03*
%TD*%
D25*
%TO.C,U1*%
X88018500Y-47381000D03*
X89168500Y-47381000D03*
X90318500Y-47381000D03*
X88018500Y-46231000D03*
X89168500Y-46231000D03*
X90318500Y-46231000D03*
X88018500Y-45081000D03*
X89168500Y-45081000D03*
X90318500Y-45081000D03*
D26*
X87418500Y-48668500D03*
X87918500Y-48668500D03*
X88418500Y-48668500D03*
X88918500Y-48668500D03*
X89418500Y-48668500D03*
X89918500Y-48668500D03*
X90418500Y-48668500D03*
X90918500Y-48668500D03*
D27*
X91606000Y-47981000D03*
X91606000Y-47481000D03*
X91606000Y-46981000D03*
X91606000Y-46481000D03*
X91606000Y-45981000D03*
X91606000Y-45481000D03*
X91606000Y-44981000D03*
X91606000Y-44481000D03*
D26*
X90918500Y-43793500D03*
X90418500Y-43793500D03*
X89918500Y-43793500D03*
X89418500Y-43793500D03*
X88918500Y-43793500D03*
X88418500Y-43793500D03*
X87918500Y-43793500D03*
X87418500Y-43793500D03*
D27*
X86731000Y-44481000D03*
X86731000Y-44981000D03*
X86731000Y-45481000D03*
X86731000Y-45981000D03*
X86731000Y-46481000D03*
X86731000Y-46981000D03*
X86731000Y-47481000D03*
X86731000Y-47981000D03*
%TD*%
D21*
%TO.C,C20*%
X109334418Y-37110000D03*
X108374418Y-37110000D03*
%TD*%
D11*
%TO.C,C5*%
X91332938Y-75779000D03*
X91332938Y-76469000D03*
%TD*%
D23*
%TO.C,C6*%
X90442938Y-76469000D03*
X90442938Y-75779000D03*
%TD*%
D20*
%TO.C,C15*%
X121833938Y-43758000D03*
X123383938Y-43758000D03*
%TD*%
D18*
%TO.C,U6*%
X99054418Y-40587500D03*
X98254418Y-40587500D03*
X97454418Y-40587500D03*
X96654418Y-40587500D03*
X96654418Y-38212500D03*
X97454418Y-38212500D03*
X98254418Y-38212500D03*
X99054418Y-38212500D03*
%TD*%
M02*
