%TF.GenerationSoftware,KiCad,Pcbnew,9.0.6*%
%TF.CreationDate,2026-01-26T20:59:56+01:00*%
%TF.ProjectId,neptune-env,6e657074-756e-4652-9d65-6e762e6b6963,1.0*%
%TF.SameCoordinates,Original*%
%TF.FileFunction,Legend,Top*%
%TF.FilePolarity,Positive*%
%FSLAX46Y46*%
G04 Gerber Fmt 4.6, Leading zero omitted, Abs format (unit mm)*
G04 Created by KiCad (PCBNEW 9.0.6) date 2026-01-26 20:59:56*
%MOMM*%
%LPD*%
G01*
G04 APERTURE LIST*
%ADD10C,0.017999*%
%ADD11C,0.120000*%
%ADD12C,0.100000*%
G04 APERTURE END LIST*
D10*
X84779613Y-41884000D02*
X85509500Y-42192337D01*
X84779613Y-42500674D01*
X84471276Y-43230562D01*
X84162938Y-42500674D01*
X83433051Y-42192337D01*
X84162938Y-41884000D01*
X84471276Y-41154112D01*
X84779613Y-41884000D01*
G36*
X84779613Y-41884000D02*
G01*
X85509500Y-42192337D01*
X84779613Y-42500674D01*
X84471276Y-43230562D01*
X84162938Y-42500674D01*
X83433051Y-42192337D01*
X84162938Y-41884000D01*
X84471276Y-41154112D01*
X84779613Y-41884000D01*
G37*
D11*
X118746840Y-44337143D02*
X118718269Y-44394286D01*
X118718269Y-44394286D02*
X118718269Y-44480000D01*
X118718269Y-44480000D02*
X118746840Y-44565714D01*
X118746840Y-44565714D02*
X118803983Y-44622857D01*
X118803983Y-44622857D02*
X118861126Y-44651428D01*
X118861126Y-44651428D02*
X118975412Y-44680000D01*
X118975412Y-44680000D02*
X119061126Y-44680000D01*
X119061126Y-44680000D02*
X119175412Y-44651428D01*
X119175412Y-44651428D02*
X119232555Y-44622857D01*
X119232555Y-44622857D02*
X119289698Y-44565714D01*
X119289698Y-44565714D02*
X119318269Y-44480000D01*
X119318269Y-44480000D02*
X119318269Y-44422857D01*
X119318269Y-44422857D02*
X119289698Y-44337143D01*
X119289698Y-44337143D02*
X119261126Y-44308571D01*
X119261126Y-44308571D02*
X119061126Y-44308571D01*
X119061126Y-44308571D02*
X119061126Y-44422857D01*
X119318269Y-44051428D02*
X118718269Y-44051428D01*
X118718269Y-44051428D02*
X119318269Y-43708571D01*
X119318269Y-43708571D02*
X118718269Y-43708571D01*
X119318269Y-43422857D02*
X118718269Y-43422857D01*
X118718269Y-43422857D02*
X118718269Y-43280000D01*
X118718269Y-43280000D02*
X118746840Y-43194286D01*
X118746840Y-43194286D02*
X118803983Y-43137143D01*
X118803983Y-43137143D02*
X118861126Y-43108572D01*
X118861126Y-43108572D02*
X118975412Y-43080000D01*
X118975412Y-43080000D02*
X119061126Y-43080000D01*
X119061126Y-43080000D02*
X119175412Y-43108572D01*
X119175412Y-43108572D02*
X119232555Y-43137143D01*
X119232555Y-43137143D02*
X119289698Y-43194286D01*
X119289698Y-43194286D02*
X119318269Y-43280000D01*
X119318269Y-43280000D02*
X119318269Y-43422857D01*
X118718269Y-41072857D02*
X118718269Y-40701429D01*
X118718269Y-40701429D02*
X118946840Y-40901429D01*
X118946840Y-40901429D02*
X118946840Y-40815714D01*
X118946840Y-40815714D02*
X118975412Y-40758572D01*
X118975412Y-40758572D02*
X119003983Y-40730000D01*
X119003983Y-40730000D02*
X119061126Y-40701429D01*
X119061126Y-40701429D02*
X119203983Y-40701429D01*
X119203983Y-40701429D02*
X119261126Y-40730000D01*
X119261126Y-40730000D02*
X119289698Y-40758572D01*
X119289698Y-40758572D02*
X119318269Y-40815714D01*
X119318269Y-40815714D02*
X119318269Y-40987143D01*
X119318269Y-40987143D02*
X119289698Y-41044286D01*
X119289698Y-41044286D02*
X119261126Y-41072857D01*
X118718269Y-40530000D02*
X119318269Y-40330000D01*
X119318269Y-40330000D02*
X118718269Y-40130000D01*
X118718269Y-39987142D02*
X118718269Y-39615714D01*
X118718269Y-39615714D02*
X118946840Y-39815714D01*
X118946840Y-39815714D02*
X118946840Y-39729999D01*
X118946840Y-39729999D02*
X118975412Y-39672857D01*
X118975412Y-39672857D02*
X119003983Y-39644285D01*
X119003983Y-39644285D02*
X119061126Y-39615714D01*
X119061126Y-39615714D02*
X119203983Y-39615714D01*
X119203983Y-39615714D02*
X119261126Y-39644285D01*
X119261126Y-39644285D02*
X119289698Y-39672857D01*
X119289698Y-39672857D02*
X119318269Y-39729999D01*
X119318269Y-39729999D02*
X119318269Y-39901428D01*
X119318269Y-39901428D02*
X119289698Y-39958571D01*
X119289698Y-39958571D02*
X119261126Y-39987142D01*
X118718269Y-48087143D02*
X119318269Y-47887143D01*
X119318269Y-47887143D02*
X118718269Y-47687143D01*
X119318269Y-47487142D02*
X118718269Y-47487142D01*
X119318269Y-47201428D02*
X118718269Y-47201428D01*
X118718269Y-47201428D02*
X119318269Y-46858571D01*
X119318269Y-46858571D02*
X118718269Y-46858571D01*
X81928668Y-48312428D02*
X82214382Y-48112428D01*
X81928668Y-47969571D02*
X82528668Y-47969571D01*
X82528668Y-47969571D02*
X82528668Y-48198142D01*
X82528668Y-48198142D02*
X82500097Y-48255285D01*
X82500097Y-48255285D02*
X82471525Y-48283856D01*
X82471525Y-48283856D02*
X82414382Y-48312428D01*
X82414382Y-48312428D02*
X82328668Y-48312428D01*
X82328668Y-48312428D02*
X82271525Y-48283856D01*
X82271525Y-48283856D02*
X82242954Y-48255285D01*
X82242954Y-48255285D02*
X82214382Y-48198142D01*
X82214382Y-48198142D02*
X82214382Y-47969571D01*
X81957240Y-48540999D02*
X81928668Y-48626714D01*
X81928668Y-48626714D02*
X81928668Y-48769571D01*
X81928668Y-48769571D02*
X81957240Y-48826714D01*
X81957240Y-48826714D02*
X81985811Y-48855285D01*
X81985811Y-48855285D02*
X82042954Y-48883856D01*
X82042954Y-48883856D02*
X82100097Y-48883856D01*
X82100097Y-48883856D02*
X82157240Y-48855285D01*
X82157240Y-48855285D02*
X82185811Y-48826714D01*
X82185811Y-48826714D02*
X82214382Y-48769571D01*
X82214382Y-48769571D02*
X82242954Y-48655285D01*
X82242954Y-48655285D02*
X82271525Y-48598142D01*
X82271525Y-48598142D02*
X82300097Y-48569571D01*
X82300097Y-48569571D02*
X82357240Y-48540999D01*
X82357240Y-48540999D02*
X82414382Y-48540999D01*
X82414382Y-48540999D02*
X82471525Y-48569571D01*
X82471525Y-48569571D02*
X82500097Y-48598142D01*
X82500097Y-48598142D02*
X82528668Y-48655285D01*
X82528668Y-48655285D02*
X82528668Y-48798142D01*
X82528668Y-48798142D02*
X82500097Y-48883856D01*
X82528668Y-49055285D02*
X82528668Y-49398143D01*
X81928668Y-49226714D02*
X82528668Y-49226714D01*
X82242954Y-45843143D02*
X82214382Y-45928857D01*
X82214382Y-45928857D02*
X82185811Y-45957428D01*
X82185811Y-45957428D02*
X82128668Y-45986000D01*
X82128668Y-45986000D02*
X82042954Y-45986000D01*
X82042954Y-45986000D02*
X81985811Y-45957428D01*
X81985811Y-45957428D02*
X81957240Y-45928857D01*
X81957240Y-45928857D02*
X81928668Y-45871714D01*
X81928668Y-45871714D02*
X81928668Y-45643143D01*
X81928668Y-45643143D02*
X82528668Y-45643143D01*
X82528668Y-45643143D02*
X82528668Y-45843143D01*
X82528668Y-45843143D02*
X82500097Y-45900286D01*
X82500097Y-45900286D02*
X82471525Y-45928857D01*
X82471525Y-45928857D02*
X82414382Y-45957428D01*
X82414382Y-45957428D02*
X82357240Y-45957428D01*
X82357240Y-45957428D02*
X82300097Y-45928857D01*
X82300097Y-45928857D02*
X82271525Y-45900286D01*
X82271525Y-45900286D02*
X82242954Y-45843143D01*
X82242954Y-45843143D02*
X82242954Y-45643143D01*
X82528668Y-46357428D02*
X82528668Y-46414571D01*
X82528668Y-46414571D02*
X82500097Y-46471714D01*
X82500097Y-46471714D02*
X82471525Y-46500286D01*
X82471525Y-46500286D02*
X82414382Y-46528857D01*
X82414382Y-46528857D02*
X82300097Y-46557428D01*
X82300097Y-46557428D02*
X82157240Y-46557428D01*
X82157240Y-46557428D02*
X82042954Y-46528857D01*
X82042954Y-46528857D02*
X81985811Y-46500286D01*
X81985811Y-46500286D02*
X81957240Y-46471714D01*
X81957240Y-46471714D02*
X81928668Y-46414571D01*
X81928668Y-46414571D02*
X81928668Y-46357428D01*
X81928668Y-46357428D02*
X81957240Y-46300286D01*
X81957240Y-46300286D02*
X81985811Y-46271714D01*
X81985811Y-46271714D02*
X82042954Y-46243143D01*
X82042954Y-46243143D02*
X82157240Y-46214571D01*
X82157240Y-46214571D02*
X82300097Y-46214571D01*
X82300097Y-46214571D02*
X82414382Y-46243143D01*
X82414382Y-46243143D02*
X82471525Y-46271714D01*
X82471525Y-46271714D02*
X82500097Y-46300286D01*
X82500097Y-46300286D02*
X82528668Y-46357428D01*
D12*
%TO.C,TH2*%
X102362938Y-84800000D02*
X102362938Y-85800000D01*
X102362938Y-85800000D02*
X104362938Y-85800000D01*
X102862938Y-84300000D02*
X103862938Y-84300000D01*
X104362938Y-85800000D02*
X104362938Y-84800000D01*
X102362938Y-84800000D02*
G75*
G02*
X102862938Y-84300000I500001J-1D01*
G01*
X103862938Y-84300000D02*
G75*
G02*
X104362938Y-84800000I0J-500000D01*
G01*
D11*
%TO.C,C10*%
X102930102Y-83240000D02*
X103145774Y-83240000D01*
X102930102Y-83960000D02*
X103145774Y-83960000D01*
D12*
%TO.C,TH1*%
X90862938Y-84800000D02*
X90862938Y-85800000D01*
X90862938Y-85800000D02*
X92862938Y-85800000D01*
X91362938Y-84300000D02*
X92362938Y-84300000D01*
X92862938Y-85800000D02*
X92862938Y-84800000D01*
X90862938Y-84800000D02*
G75*
G02*
X91362938Y-84300000I500001J-1D01*
G01*
X92362938Y-84300000D02*
G75*
G02*
X92862938Y-84800000I0J-500000D01*
G01*
D11*
%TO.C,U5*%
X121048938Y-45768000D02*
X121098938Y-45768000D01*
X121048938Y-47588000D02*
X121048938Y-45768000D01*
X121098938Y-47588000D02*
X121048938Y-47588000D01*
X122218938Y-45768000D02*
X122998938Y-45768000D01*
X124118938Y-45768000D02*
X124168938Y-45768000D01*
X124168938Y-45768000D02*
X124168938Y-47588000D01*
X124168938Y-47588000D02*
X124118938Y-47588000D01*
D12*
%TO.C,TH3*%
X113862938Y-84800000D02*
X113862938Y-85800000D01*
X113862938Y-85800000D02*
X115862938Y-85800000D01*
X114362938Y-84300000D02*
X115362938Y-84300000D01*
X115862938Y-85800000D02*
X115862938Y-84800000D01*
X113862938Y-84800000D02*
G75*
G02*
X114362938Y-84300000I500001J-1D01*
G01*
X115362938Y-84300000D02*
G75*
G02*
X115862938Y-84800000I0J-500000D01*
G01*
D11*
%TO.C,C1*%
X91801518Y-38885000D02*
X91520358Y-38885000D01*
X91801518Y-39905000D02*
X91520358Y-39905000D01*
%TO.C,U3*%
X100752938Y-77366500D02*
X101652938Y-77366500D01*
X100752938Y-78266500D02*
X100752938Y-77366500D01*
X100752938Y-82586500D02*
X100752938Y-81686500D01*
X101652938Y-82586500D02*
X100752938Y-82586500D01*
X105072938Y-77366500D02*
X105972938Y-77366500D01*
X105972938Y-77366500D02*
X105972938Y-78266500D01*
X105972938Y-81686500D02*
X105972938Y-82586500D01*
X105972938Y-82586500D02*
X105072938Y-82586500D01*
%TO.C,J3*%
X121447938Y-50974000D02*
X121447938Y-51274000D01*
X121447938Y-50974000D02*
X125667938Y-50974000D01*
X121447938Y-52894000D02*
X121447938Y-53274000D01*
X121447938Y-54894000D02*
X121447938Y-55274000D01*
X121447938Y-56894000D02*
X121447938Y-57274000D01*
X121447938Y-58894000D02*
X121447938Y-59274000D01*
X121447938Y-60894000D02*
X121447938Y-61274000D01*
X121447938Y-62894000D02*
X121447938Y-63274000D01*
X121447938Y-64894000D02*
X121447938Y-65274000D01*
X121447938Y-66894000D02*
X121447938Y-67274000D01*
X121447938Y-68894000D02*
X121447938Y-69274000D01*
X121447938Y-70894000D02*
X121447938Y-71194000D01*
X121447938Y-71194000D02*
X125667938Y-71194000D01*
X125667938Y-50974000D02*
X125667938Y-51274000D01*
X125667938Y-52894000D02*
X125667938Y-53274000D01*
X125667938Y-54894000D02*
X125667938Y-55274000D01*
X125667938Y-56894000D02*
X125667938Y-57274000D01*
X125667938Y-58894000D02*
X125667938Y-59274000D01*
X125667938Y-60894000D02*
X125667938Y-61274000D01*
X125667938Y-62894000D02*
X125667938Y-63274000D01*
X125667938Y-64894000D02*
X125667938Y-65274000D01*
X125667938Y-66894000D02*
X125667938Y-67274000D01*
X125667938Y-68894000D02*
X125667938Y-69274000D01*
X125667938Y-70894000D02*
X125667938Y-71194000D01*
%TO.C,TP3*%
X116143938Y-39380000D02*
X118043938Y-39380000D01*
X116143938Y-41280000D02*
X116143938Y-39380000D01*
X118043938Y-39380000D02*
X118043938Y-41280000D01*
X118043938Y-41280000D02*
X116143938Y-41280000D01*
%TO.C,C7*%
X91430102Y-83240000D02*
X91645774Y-83240000D01*
X91430102Y-83960000D02*
X91645774Y-83960000D01*
%TO.C,TP2*%
X82903000Y-45386000D02*
X84303000Y-45386000D01*
X82903000Y-46786000D02*
X82903000Y-45386000D01*
X84303000Y-45386000D02*
X84303000Y-46786000D01*
X84303000Y-46786000D02*
X82903000Y-46786000D01*
%TO.C,R2*%
X86482938Y-78924436D02*
X86482938Y-80378564D01*
X88302938Y-78924436D02*
X88302938Y-80378564D01*
%TO.C,R3*%
X97982938Y-78924436D02*
X97982938Y-80378564D01*
X99802938Y-78924436D02*
X99802938Y-80378564D01*
%TO.C,U4*%
X112252938Y-77366500D02*
X113152938Y-77366500D01*
X112252938Y-78266500D02*
X112252938Y-77366500D01*
X112252938Y-82586500D02*
X112252938Y-81686500D01*
X113152938Y-82586500D02*
X112252938Y-82586500D01*
X116572938Y-77366500D02*
X117472938Y-77366500D01*
X117472938Y-77366500D02*
X117472938Y-78266500D01*
X117472938Y-81686500D02*
X117472938Y-82586500D01*
X117472938Y-82586500D02*
X116572938Y-82586500D01*
%TO.C,U8*%
X107144418Y-41010000D02*
X107144418Y-37790000D01*
X110564418Y-37790000D02*
X110564418Y-41010000D01*
%TO.C,TP5*%
X116143938Y-46480000D02*
X118043938Y-46480000D01*
X116143938Y-48380000D02*
X116143938Y-46480000D01*
X118043938Y-46480000D02*
X118043938Y-48380000D01*
X118043938Y-48380000D02*
X116143938Y-48380000D01*
%TO.C,R1*%
X84295579Y-44108000D02*
X83988297Y-44108000D01*
X84295579Y-44868000D02*
X83988297Y-44868000D01*
%TO.C,TP4*%
X116143938Y-42930000D02*
X118043938Y-42930000D01*
X116143938Y-44830000D02*
X116143938Y-42930000D01*
X118043938Y-42930000D02*
X118043938Y-44830000D01*
X118043938Y-44830000D02*
X116143938Y-44830000D01*
%TO.C,C22*%
X91288420Y-40742000D02*
X91569580Y-40742000D01*
X91288420Y-41762000D02*
X91569580Y-41762000D01*
%TO.C,R4*%
X109482938Y-78924436D02*
X109482938Y-80378564D01*
X111302938Y-78924436D02*
X111302938Y-80378564D01*
%TO.C,C16*%
X97962254Y-36750000D02*
X97746582Y-36750000D01*
X97962254Y-37470000D02*
X97746582Y-37470000D01*
%TO.C,C2*%
X85136000Y-48703836D02*
X85136000Y-48488164D01*
X85856000Y-48703836D02*
X85856000Y-48488164D01*
%TO.C,C4*%
X91321164Y-42195000D02*
X91536836Y-42195000D01*
X91321164Y-42915000D02*
X91536836Y-42915000D01*
%TO.C,C13*%
X114430102Y-83240000D02*
X114645774Y-83240000D01*
X114430102Y-83960000D02*
X114645774Y-83960000D01*
%TO.C,J2*%
X81057938Y-50974000D02*
X81057938Y-51274000D01*
X81057938Y-50974000D02*
X85277938Y-50974000D01*
X81057938Y-52894000D02*
X81057938Y-53274000D01*
X81057938Y-54894000D02*
X81057938Y-55274000D01*
X81057938Y-56894000D02*
X81057938Y-57274000D01*
X81057938Y-58894000D02*
X81057938Y-59274000D01*
X81057938Y-60894000D02*
X81057938Y-61274000D01*
X81057938Y-62894000D02*
X81057938Y-63274000D01*
X81057938Y-64894000D02*
X81057938Y-65274000D01*
X81057938Y-66894000D02*
X81057938Y-67274000D01*
X81057938Y-68894000D02*
X81057938Y-69274000D01*
X81057938Y-70894000D02*
X81057938Y-71194000D01*
X81057938Y-71194000D02*
X85277938Y-71194000D01*
X85277938Y-50974000D02*
X85277938Y-51274000D01*
X85277938Y-52894000D02*
X85277938Y-53274000D01*
X85277938Y-54894000D02*
X85277938Y-55274000D01*
X85277938Y-56894000D02*
X85277938Y-57274000D01*
X85277938Y-58894000D02*
X85277938Y-59274000D01*
X85277938Y-60894000D02*
X85277938Y-61274000D01*
X85277938Y-62894000D02*
X85277938Y-63274000D01*
X85277938Y-64894000D02*
X85277938Y-65274000D01*
X85277938Y-66894000D02*
X85277938Y-67274000D01*
X85277938Y-68894000D02*
X85277938Y-69274000D01*
X85277938Y-70894000D02*
X85277938Y-71194000D01*
%TO.C,C19*%
X105494418Y-39292164D02*
X105494418Y-39507836D01*
X106214418Y-39292164D02*
X106214418Y-39507836D01*
%TO.C,C14*%
X122274518Y-49088000D02*
X121993358Y-49088000D01*
X122274518Y-50108000D02*
X121993358Y-50108000D01*
%TO.C,C21*%
X110994418Y-39292164D02*
X110994418Y-39507836D01*
X111714418Y-39292164D02*
X111714418Y-39507836D01*
%TO.C,U2*%
X89252938Y-77366500D02*
X90152938Y-77366500D01*
X89252938Y-78266500D02*
X89252938Y-77366500D01*
X89252938Y-82586500D02*
X89252938Y-81686500D01*
X90152938Y-82586500D02*
X89252938Y-82586500D01*
X93572938Y-77366500D02*
X94472938Y-77366500D01*
X94472938Y-77366500D02*
X94472938Y-78266500D01*
X94472938Y-81686500D02*
X94472938Y-82586500D01*
X94472938Y-82586500D02*
X93572938Y-82586500D01*
%TO.C,U7*%
X101644418Y-41010000D02*
X101644418Y-37790000D01*
X105064418Y-37790000D02*
X105064418Y-41010000D01*
%TO.C,C18*%
X103462254Y-36750000D02*
X103246582Y-36750000D01*
X103462254Y-37470000D02*
X103246582Y-37470000D01*
%TO.C,C17*%
X99994418Y-39292164D02*
X99994418Y-39507836D01*
X100714418Y-39292164D02*
X100714418Y-39507836D01*
%TO.C,U1*%
X86558500Y-43621000D02*
X87033500Y-43621000D01*
X86558500Y-44096000D02*
X86558500Y-43621000D01*
X86558500Y-48841000D02*
X86558500Y-48366000D01*
X87033500Y-48841000D02*
X86558500Y-48841000D01*
X91303500Y-43621000D02*
X91778500Y-43621000D01*
X91778500Y-43621000D02*
X91778500Y-44096000D01*
X91778500Y-48366000D02*
X91778500Y-48841000D01*
X91778500Y-48841000D02*
X91303500Y-48841000D01*
%TO.C,C20*%
X108962254Y-36750000D02*
X108746582Y-36750000D01*
X108962254Y-37470000D02*
X108746582Y-37470000D01*
%TO.C,TP1*%
X82903000Y-47941000D02*
X84303000Y-47941000D01*
X82903000Y-49341000D02*
X82903000Y-47941000D01*
X84303000Y-47941000D02*
X84303000Y-49341000D01*
X84303000Y-49341000D02*
X82903000Y-49341000D01*
%TO.C,C15*%
X122468358Y-43248000D02*
X122749518Y-43248000D01*
X122468358Y-44268000D02*
X122749518Y-44268000D01*
%TO.C,U6*%
X96144418Y-41010000D02*
X96144418Y-37790000D01*
X99564418Y-37790000D02*
X99564418Y-41010000D01*
%TD*%
M02*
