%TF.GenerationSoftware,KiCad,Pcbnew,9.0.6*%
%TF.CreationDate,2025-12-21T10:04:59+01:00*%
%TF.ProjectId,neptune-env,6e657074-756e-4652-9d65-6e762e6b6963,1.0*%
%TF.SameCoordinates,Original*%
%TF.FileFunction,Legend,Bot*%
%TF.FilePolarity,Positive*%
%FSLAX46Y46*%
G04 Gerber Fmt 4.6, Leading zero omitted, Abs format (unit mm)*
G04 Created by KiCad (PCBNEW 9.0.6) date 2025-12-21 10:04:59*
%MOMM*%
%LPD*%
G01*
G04 APERTURE LIST*
%ADD10C,0.017999*%
%ADD11C,0.100000*%
%ADD12C,0.150000*%
%ADD13C,0.112500*%
%ADD14C,0.120000*%
%ADD15C,0.254000*%
%ADD16C,0.250000*%
G04 APERTURE END LIST*
D10*
X84779613Y-41884000D02*
X85509500Y-42192337D01*
X84779613Y-42500674D01*
X84471275Y-43230562D01*
X84162938Y-42500674D01*
X83433051Y-42192337D01*
X84162938Y-41884000D01*
X84471275Y-41154112D01*
X84779613Y-41884000D01*
G36*
X84779613Y-41884000D02*
G01*
X85509500Y-42192337D01*
X84779613Y-42500674D01*
X84471275Y-43230562D01*
X84162938Y-42500674D01*
X83433051Y-42192337D01*
X84162938Y-41884000D01*
X84471275Y-41154112D01*
X84779613Y-41884000D01*
G37*
D11*
X104095836Y-77856505D02*
X104071979Y-77857971D01*
X104048702Y-77860375D01*
X104026017Y-77863707D01*
X104003935Y-77867953D01*
X103982468Y-77873103D01*
X103961628Y-77879143D01*
X103941425Y-77886063D01*
X103921873Y-77893850D01*
X103902982Y-77902492D01*
X103884764Y-77911978D01*
X103867231Y-77922295D01*
X103850394Y-77933431D01*
X103834265Y-77945374D01*
X103818856Y-77958114D01*
X103804178Y-77971636D01*
X103790243Y-77985930D01*
X103777062Y-78000984D01*
X103764647Y-78016786D01*
X103753010Y-78033323D01*
X103742163Y-78050584D01*
X103732116Y-78068557D01*
X103722882Y-78087230D01*
X103714473Y-78106591D01*
X103706899Y-78126628D01*
X103700172Y-78147329D01*
X103694305Y-78168682D01*
X103689309Y-78190675D01*
X103685195Y-78213296D01*
X103681974Y-78236534D01*
X103679660Y-78260375D01*
X103678263Y-78284809D01*
X103677794Y-78309824D01*
X103678294Y-78335650D01*
X103679783Y-78360862D01*
X103682249Y-78385449D01*
X103685680Y-78409395D01*
X103690064Y-78432687D01*
X103695386Y-78455312D01*
X103701636Y-78477256D01*
X103708800Y-78498506D01*
X103716866Y-78519047D01*
X103725821Y-78538868D01*
X103735653Y-78557953D01*
X103746349Y-78576289D01*
X103757896Y-78593863D01*
X103770281Y-78610662D01*
X103783493Y-78626671D01*
X103797519Y-78641877D01*
X103812345Y-78656267D01*
X103827960Y-78669826D01*
X103844351Y-78682542D01*
X103861505Y-78694401D01*
X103879409Y-78705389D01*
X103898051Y-78715493D01*
X103917419Y-78724699D01*
X103937500Y-78732993D01*
X103958281Y-78740362D01*
X103979749Y-78746793D01*
X104001893Y-78752272D01*
X104024699Y-78756785D01*
X104048155Y-78760318D01*
X104072248Y-78762859D01*
X104096966Y-78764394D01*
X104122295Y-78764908D01*
X104146638Y-78764420D01*
X104170383Y-78762963D01*
X104193520Y-78760552D01*
X104216040Y-78757202D01*
X104237933Y-78752924D01*
X104259190Y-78747735D01*
X104279802Y-78741647D01*
X104299759Y-78734674D01*
X104319052Y-78726830D01*
X104337672Y-78718130D01*
X104355609Y-78708587D01*
X104372854Y-78698214D01*
X104389397Y-78687027D01*
X104405230Y-78675038D01*
X104420342Y-78662262D01*
X104434724Y-78648712D01*
X104448368Y-78634402D01*
X104461263Y-78619347D01*
X104473401Y-78603560D01*
X104484771Y-78587055D01*
X104495365Y-78569845D01*
X104505173Y-78551946D01*
X104514186Y-78533370D01*
X104522395Y-78514132D01*
X104529790Y-78494246D01*
X104536361Y-78473724D01*
X104542100Y-78452582D01*
X104546996Y-78430833D01*
X104551042Y-78408491D01*
X104554226Y-78385570D01*
X104556541Y-78362084D01*
X104557976Y-78338047D01*
X104750239Y-78338048D01*
X104748392Y-78372063D01*
X104745183Y-78405304D01*
X104740631Y-78437750D01*
X104734760Y-78469382D01*
X104727590Y-78500179D01*
X104719144Y-78530122D01*
X104709442Y-78559189D01*
X104698507Y-78587363D01*
X104686361Y-78614621D01*
X104673024Y-78640945D01*
X104658518Y-78666314D01*
X104642866Y-78690709D01*
X104626088Y-78714108D01*
X104608207Y-78736493D01*
X104589243Y-78757843D01*
X104569220Y-78778138D01*
X104548157Y-78797359D01*
X104526078Y-78815484D01*
X104503003Y-78832495D01*
X104478955Y-78848370D01*
X104453954Y-78863091D01*
X104428023Y-78876636D01*
X104401183Y-78888987D01*
X104373456Y-78900123D01*
X104344863Y-78910023D01*
X104315426Y-78918668D01*
X104285167Y-78926039D01*
X104254107Y-78932114D01*
X104222268Y-78936874D01*
X104189672Y-78940298D01*
X104156340Y-78942368D01*
X104122294Y-78943062D01*
X104086491Y-78942377D01*
X104051524Y-78940330D01*
X104017413Y-78936935D01*
X103984177Y-78932203D01*
X103951837Y-78926149D01*
X103920411Y-78918785D01*
X103889920Y-78910123D01*
X103860384Y-78900178D01*
X103831822Y-78888961D01*
X103804254Y-78876486D01*
X103777699Y-78862765D01*
X103752177Y-78847812D01*
X103727708Y-78831640D01*
X103704312Y-78814261D01*
X103682008Y-78795688D01*
X103660817Y-78775934D01*
X103640756Y-78755012D01*
X103621848Y-78732936D01*
X103604110Y-78709717D01*
X103587563Y-78685369D01*
X103572227Y-78659905D01*
X103558121Y-78633338D01*
X103545265Y-78605680D01*
X103533679Y-78576945D01*
X103523382Y-78547146D01*
X103514393Y-78516294D01*
X103506734Y-78484404D01*
X103500423Y-78451488D01*
X103495480Y-78417560D01*
X103491925Y-78382631D01*
X103489778Y-78346715D01*
X103489058Y-78309826D01*
X103489772Y-78274673D01*
X103491900Y-78240334D01*
X103495416Y-78206827D01*
X103500299Y-78174168D01*
X103506524Y-78142376D01*
X103514068Y-78111469D01*
X103522907Y-78081465D01*
X103533017Y-78052380D01*
X103544376Y-78024234D01*
X103556959Y-77997043D01*
X103570742Y-77970826D01*
X103585703Y-77945600D01*
X103601818Y-77921383D01*
X103619063Y-77898192D01*
X103637414Y-77876046D01*
X103656848Y-77854963D01*
X103677342Y-77834959D01*
X103698871Y-77816053D01*
X103721413Y-77798263D01*
X103744943Y-77781606D01*
X103769438Y-77766100D01*
X103794875Y-77751763D01*
X103821229Y-77738613D01*
X103848478Y-77726667D01*
X103876598Y-77715943D01*
X103905565Y-77706459D01*
X103935355Y-77698233D01*
X103965946Y-77691282D01*
X103997313Y-77685625D01*
X104029433Y-77681278D01*
X104062282Y-77678260D01*
X104095836Y-77676589D01*
X104095836Y-77856505D01*
G36*
X104095836Y-77856505D02*
G01*
X104071979Y-77857971D01*
X104048702Y-77860375D01*
X104026017Y-77863707D01*
X104003935Y-77867953D01*
X103982468Y-77873103D01*
X103961628Y-77879143D01*
X103941425Y-77886063D01*
X103921873Y-77893850D01*
X103902982Y-77902492D01*
X103884764Y-77911978D01*
X103867231Y-77922295D01*
X103850394Y-77933431D01*
X103834265Y-77945374D01*
X103818856Y-77958114D01*
X103804178Y-77971636D01*
X103790243Y-77985930D01*
X103777062Y-78000984D01*
X103764647Y-78016786D01*
X103753010Y-78033323D01*
X103742163Y-78050584D01*
X103732116Y-78068557D01*
X103722882Y-78087230D01*
X103714473Y-78106591D01*
X103706899Y-78126628D01*
X103700172Y-78147329D01*
X103694305Y-78168682D01*
X103689309Y-78190675D01*
X103685195Y-78213296D01*
X103681974Y-78236534D01*
X103679660Y-78260375D01*
X103678263Y-78284809D01*
X103677794Y-78309824D01*
X103678294Y-78335650D01*
X103679783Y-78360862D01*
X103682249Y-78385449D01*
X103685680Y-78409395D01*
X103690064Y-78432687D01*
X103695386Y-78455312D01*
X103701636Y-78477256D01*
X103708800Y-78498506D01*
X103716866Y-78519047D01*
X103725821Y-78538868D01*
X103735653Y-78557953D01*
X103746349Y-78576289D01*
X103757896Y-78593863D01*
X103770281Y-78610662D01*
X103783493Y-78626671D01*
X103797519Y-78641877D01*
X103812345Y-78656267D01*
X103827960Y-78669826D01*
X103844351Y-78682542D01*
X103861505Y-78694401D01*
X103879409Y-78705389D01*
X103898051Y-78715493D01*
X103917419Y-78724699D01*
X103937500Y-78732993D01*
X103958281Y-78740362D01*
X103979749Y-78746793D01*
X104001893Y-78752272D01*
X104024699Y-78756785D01*
X104048155Y-78760318D01*
X104072248Y-78762859D01*
X104096966Y-78764394D01*
X104122295Y-78764908D01*
X104146638Y-78764420D01*
X104170383Y-78762963D01*
X104193520Y-78760552D01*
X104216040Y-78757202D01*
X104237933Y-78752924D01*
X104259190Y-78747735D01*
X104279802Y-78741647D01*
X104299759Y-78734674D01*
X104319052Y-78726830D01*
X104337672Y-78718130D01*
X104355609Y-78708587D01*
X104372854Y-78698214D01*
X104389397Y-78687027D01*
X104405230Y-78675038D01*
X104420342Y-78662262D01*
X104434724Y-78648712D01*
X104448368Y-78634402D01*
X104461263Y-78619347D01*
X104473401Y-78603560D01*
X104484771Y-78587055D01*
X104495365Y-78569845D01*
X104505173Y-78551946D01*
X104514186Y-78533370D01*
X104522395Y-78514132D01*
X104529790Y-78494246D01*
X104536361Y-78473724D01*
X104542100Y-78452582D01*
X104546996Y-78430833D01*
X104551042Y-78408491D01*
X104554226Y-78385570D01*
X104556541Y-78362084D01*
X104557976Y-78338047D01*
X104750239Y-78338048D01*
X104748392Y-78372063D01*
X104745183Y-78405304D01*
X104740631Y-78437750D01*
X104734760Y-78469382D01*
X104727590Y-78500179D01*
X104719144Y-78530122D01*
X104709442Y-78559189D01*
X104698507Y-78587363D01*
X104686361Y-78614621D01*
X104673024Y-78640945D01*
X104658518Y-78666314D01*
X104642866Y-78690709D01*
X104626088Y-78714108D01*
X104608207Y-78736493D01*
X104589243Y-78757843D01*
X104569220Y-78778138D01*
X104548157Y-78797359D01*
X104526078Y-78815484D01*
X104503003Y-78832495D01*
X104478955Y-78848370D01*
X104453954Y-78863091D01*
X104428023Y-78876636D01*
X104401183Y-78888987D01*
X104373456Y-78900123D01*
X104344863Y-78910023D01*
X104315426Y-78918668D01*
X104285167Y-78926039D01*
X104254107Y-78932114D01*
X104222268Y-78936874D01*
X104189672Y-78940298D01*
X104156340Y-78942368D01*
X104122294Y-78943062D01*
X104086491Y-78942377D01*
X104051524Y-78940330D01*
X104017413Y-78936935D01*
X103984177Y-78932203D01*
X103951837Y-78926149D01*
X103920411Y-78918785D01*
X103889920Y-78910123D01*
X103860384Y-78900178D01*
X103831822Y-78888961D01*
X103804254Y-78876486D01*
X103777699Y-78862765D01*
X103752177Y-78847812D01*
X103727708Y-78831640D01*
X103704312Y-78814261D01*
X103682008Y-78795688D01*
X103660817Y-78775934D01*
X103640756Y-78755012D01*
X103621848Y-78732936D01*
X103604110Y-78709717D01*
X103587563Y-78685369D01*
X103572227Y-78659905D01*
X103558121Y-78633338D01*
X103545265Y-78605680D01*
X103533679Y-78576945D01*
X103523382Y-78547146D01*
X103514393Y-78516294D01*
X103506734Y-78484404D01*
X103500423Y-78451488D01*
X103495480Y-78417560D01*
X103491925Y-78382631D01*
X103489778Y-78346715D01*
X103489058Y-78309826D01*
X103489772Y-78274673D01*
X103491900Y-78240334D01*
X103495416Y-78206827D01*
X103500299Y-78174168D01*
X103506524Y-78142376D01*
X103514068Y-78111469D01*
X103522907Y-78081465D01*
X103533017Y-78052380D01*
X103544376Y-78024234D01*
X103556959Y-77997043D01*
X103570742Y-77970826D01*
X103585703Y-77945600D01*
X103601818Y-77921383D01*
X103619063Y-77898192D01*
X103637414Y-77876046D01*
X103656848Y-77854963D01*
X103677342Y-77834959D01*
X103698871Y-77816053D01*
X103721413Y-77798263D01*
X103744943Y-77781606D01*
X103769438Y-77766100D01*
X103794875Y-77751763D01*
X103821229Y-77738613D01*
X103848478Y-77726667D01*
X103876598Y-77715943D01*
X103905565Y-77706459D01*
X103935355Y-77698233D01*
X103965946Y-77691282D01*
X103997313Y-77685625D01*
X104029433Y-77681278D01*
X104062282Y-77678260D01*
X104095836Y-77676589D01*
X104095836Y-77856505D01*
G37*
X107297294Y-77856505D02*
X107273437Y-77857971D01*
X107250160Y-77860375D01*
X107227474Y-77863707D01*
X107205392Y-77867953D01*
X107183925Y-77873103D01*
X107163085Y-77879143D01*
X107142882Y-77886063D01*
X107123330Y-77893850D01*
X107104439Y-77902492D01*
X107086221Y-77911978D01*
X107068688Y-77922295D01*
X107051851Y-77933431D01*
X107035722Y-77945374D01*
X107020313Y-77958114D01*
X107005635Y-77971636D01*
X106991700Y-77985930D01*
X106978519Y-78000984D01*
X106966104Y-78016786D01*
X106954467Y-78033323D01*
X106943620Y-78050584D01*
X106933573Y-78068557D01*
X106924339Y-78087230D01*
X106915930Y-78106591D01*
X106908356Y-78126628D01*
X106901630Y-78147329D01*
X106895762Y-78168682D01*
X106890766Y-78190675D01*
X106886652Y-78213296D01*
X106883432Y-78236534D01*
X106881117Y-78260375D01*
X106879720Y-78284809D01*
X106879252Y-78309824D01*
X106879751Y-78335650D01*
X106881240Y-78360862D01*
X106883706Y-78385449D01*
X106887138Y-78409395D01*
X106891521Y-78432687D01*
X106896844Y-78455312D01*
X106903093Y-78477256D01*
X106910258Y-78498506D01*
X106918324Y-78519047D01*
X106927279Y-78538868D01*
X106937110Y-78557953D01*
X106947806Y-78576289D01*
X106959353Y-78593863D01*
X106971738Y-78610662D01*
X106984950Y-78626671D01*
X106998976Y-78641877D01*
X107013802Y-78656267D01*
X107029417Y-78669826D01*
X107045808Y-78682542D01*
X107062962Y-78694401D01*
X107080866Y-78705389D01*
X107099508Y-78715493D01*
X107118876Y-78724699D01*
X107138957Y-78732993D01*
X107159738Y-78740362D01*
X107181206Y-78746793D01*
X107203350Y-78752272D01*
X107226156Y-78756785D01*
X107249611Y-78760318D01*
X107273704Y-78762859D01*
X107298422Y-78764394D01*
X107323752Y-78764908D01*
X107348095Y-78764420D01*
X107371840Y-78762963D01*
X107394977Y-78760552D01*
X107417496Y-78757202D01*
X107439389Y-78752924D01*
X107460647Y-78747735D01*
X107481258Y-78741647D01*
X107501216Y-78734674D01*
X107520509Y-78726830D01*
X107539128Y-78718130D01*
X107557065Y-78708587D01*
X107574310Y-78698214D01*
X107590854Y-78687027D01*
X107606686Y-78675038D01*
X107621798Y-78662262D01*
X107636181Y-78648712D01*
X107649824Y-78634402D01*
X107662720Y-78619347D01*
X107674857Y-78603560D01*
X107686228Y-78587055D01*
X107696822Y-78569845D01*
X107706630Y-78551946D01*
X107715643Y-78533370D01*
X107723852Y-78514132D01*
X107731246Y-78494246D01*
X107737818Y-78473724D01*
X107743557Y-78452582D01*
X107748453Y-78430833D01*
X107752499Y-78408491D01*
X107755683Y-78385570D01*
X107757998Y-78362084D01*
X107759433Y-78338047D01*
X107951697Y-78338048D01*
X107949850Y-78372063D01*
X107946641Y-78405304D01*
X107942089Y-78437750D01*
X107936218Y-78469382D01*
X107929048Y-78500179D01*
X107920602Y-78530122D01*
X107910900Y-78559189D01*
X107899965Y-78587363D01*
X107887818Y-78614621D01*
X107874481Y-78640945D01*
X107859976Y-78666314D01*
X107844324Y-78690709D01*
X107827546Y-78714108D01*
X107809665Y-78736493D01*
X107790701Y-78757843D01*
X107770678Y-78778138D01*
X107749615Y-78797359D01*
X107727536Y-78815484D01*
X107704461Y-78832495D01*
X107680413Y-78848370D01*
X107655412Y-78863091D01*
X107629481Y-78876636D01*
X107602641Y-78888987D01*
X107574913Y-78900123D01*
X107546320Y-78910023D01*
X107516884Y-78918668D01*
X107486624Y-78926039D01*
X107455565Y-78932114D01*
X107423726Y-78936874D01*
X107391130Y-78940298D01*
X107357798Y-78942368D01*
X107323752Y-78943062D01*
X107287948Y-78942377D01*
X107252981Y-78940330D01*
X107218870Y-78936935D01*
X107185634Y-78932203D01*
X107153294Y-78926149D01*
X107121869Y-78918785D01*
X107091378Y-78910123D01*
X107061842Y-78900178D01*
X107033280Y-78888961D01*
X107005711Y-78876486D01*
X106979156Y-78862765D01*
X106953635Y-78847812D01*
X106929166Y-78831640D01*
X106905770Y-78814261D01*
X106883466Y-78795688D01*
X106862274Y-78775934D01*
X106842214Y-78755012D01*
X106823305Y-78732936D01*
X106805568Y-78709717D01*
X106789021Y-78685369D01*
X106773685Y-78659905D01*
X106759579Y-78633338D01*
X106746722Y-78605680D01*
X106735136Y-78576945D01*
X106724839Y-78547146D01*
X106715851Y-78516294D01*
X106708191Y-78484404D01*
X106701880Y-78451488D01*
X106696938Y-78417560D01*
X106693383Y-78382631D01*
X106691235Y-78346715D01*
X106690515Y-78309826D01*
X106691229Y-78274673D01*
X106693357Y-78240334D01*
X106696874Y-78206827D01*
X106701756Y-78174168D01*
X106707981Y-78142376D01*
X106715525Y-78111469D01*
X106724364Y-78081465D01*
X106734475Y-78052380D01*
X106745833Y-78024234D01*
X106758416Y-77997043D01*
X106772200Y-77970826D01*
X106787160Y-77945600D01*
X106803275Y-77921383D01*
X106820520Y-77898192D01*
X106838871Y-77876046D01*
X106858305Y-77854963D01*
X106878799Y-77834959D01*
X106900328Y-77816053D01*
X106922870Y-77798263D01*
X106946400Y-77781606D01*
X106970895Y-77766100D01*
X106996332Y-77751763D01*
X107022687Y-77738613D01*
X107049936Y-77726667D01*
X107078055Y-77715943D01*
X107107022Y-77706459D01*
X107136813Y-77698233D01*
X107167403Y-77691282D01*
X107198770Y-77685625D01*
X107230890Y-77681278D01*
X107263739Y-77678260D01*
X107297294Y-77676589D01*
X107297294Y-77856505D01*
G36*
X107297294Y-77856505D02*
G01*
X107273437Y-77857971D01*
X107250160Y-77860375D01*
X107227474Y-77863707D01*
X107205392Y-77867953D01*
X107183925Y-77873103D01*
X107163085Y-77879143D01*
X107142882Y-77886063D01*
X107123330Y-77893850D01*
X107104439Y-77902492D01*
X107086221Y-77911978D01*
X107068688Y-77922295D01*
X107051851Y-77933431D01*
X107035722Y-77945374D01*
X107020313Y-77958114D01*
X107005635Y-77971636D01*
X106991700Y-77985930D01*
X106978519Y-78000984D01*
X106966104Y-78016786D01*
X106954467Y-78033323D01*
X106943620Y-78050584D01*
X106933573Y-78068557D01*
X106924339Y-78087230D01*
X106915930Y-78106591D01*
X106908356Y-78126628D01*
X106901630Y-78147329D01*
X106895762Y-78168682D01*
X106890766Y-78190675D01*
X106886652Y-78213296D01*
X106883432Y-78236534D01*
X106881117Y-78260375D01*
X106879720Y-78284809D01*
X106879252Y-78309824D01*
X106879751Y-78335650D01*
X106881240Y-78360862D01*
X106883706Y-78385449D01*
X106887138Y-78409395D01*
X106891521Y-78432687D01*
X106896844Y-78455312D01*
X106903093Y-78477256D01*
X106910258Y-78498506D01*
X106918324Y-78519047D01*
X106927279Y-78538868D01*
X106937110Y-78557953D01*
X106947806Y-78576289D01*
X106959353Y-78593863D01*
X106971738Y-78610662D01*
X106984950Y-78626671D01*
X106998976Y-78641877D01*
X107013802Y-78656267D01*
X107029417Y-78669826D01*
X107045808Y-78682542D01*
X107062962Y-78694401D01*
X107080866Y-78705389D01*
X107099508Y-78715493D01*
X107118876Y-78724699D01*
X107138957Y-78732993D01*
X107159738Y-78740362D01*
X107181206Y-78746793D01*
X107203350Y-78752272D01*
X107226156Y-78756785D01*
X107249611Y-78760318D01*
X107273704Y-78762859D01*
X107298422Y-78764394D01*
X107323752Y-78764908D01*
X107348095Y-78764420D01*
X107371840Y-78762963D01*
X107394977Y-78760552D01*
X107417496Y-78757202D01*
X107439389Y-78752924D01*
X107460647Y-78747735D01*
X107481258Y-78741647D01*
X107501216Y-78734674D01*
X107520509Y-78726830D01*
X107539128Y-78718130D01*
X107557065Y-78708587D01*
X107574310Y-78698214D01*
X107590854Y-78687027D01*
X107606686Y-78675038D01*
X107621798Y-78662262D01*
X107636181Y-78648712D01*
X107649824Y-78634402D01*
X107662720Y-78619347D01*
X107674857Y-78603560D01*
X107686228Y-78587055D01*
X107696822Y-78569845D01*
X107706630Y-78551946D01*
X107715643Y-78533370D01*
X107723852Y-78514132D01*
X107731246Y-78494246D01*
X107737818Y-78473724D01*
X107743557Y-78452582D01*
X107748453Y-78430833D01*
X107752499Y-78408491D01*
X107755683Y-78385570D01*
X107757998Y-78362084D01*
X107759433Y-78338047D01*
X107951697Y-78338048D01*
X107949850Y-78372063D01*
X107946641Y-78405304D01*
X107942089Y-78437750D01*
X107936218Y-78469382D01*
X107929048Y-78500179D01*
X107920602Y-78530122D01*
X107910900Y-78559189D01*
X107899965Y-78587363D01*
X107887818Y-78614621D01*
X107874481Y-78640945D01*
X107859976Y-78666314D01*
X107844324Y-78690709D01*
X107827546Y-78714108D01*
X107809665Y-78736493D01*
X107790701Y-78757843D01*
X107770678Y-78778138D01*
X107749615Y-78797359D01*
X107727536Y-78815484D01*
X107704461Y-78832495D01*
X107680413Y-78848370D01*
X107655412Y-78863091D01*
X107629481Y-78876636D01*
X107602641Y-78888987D01*
X107574913Y-78900123D01*
X107546320Y-78910023D01*
X107516884Y-78918668D01*
X107486624Y-78926039D01*
X107455565Y-78932114D01*
X107423726Y-78936874D01*
X107391130Y-78940298D01*
X107357798Y-78942368D01*
X107323752Y-78943062D01*
X107287948Y-78942377D01*
X107252981Y-78940330D01*
X107218870Y-78936935D01*
X107185634Y-78932203D01*
X107153294Y-78926149D01*
X107121869Y-78918785D01*
X107091378Y-78910123D01*
X107061842Y-78900178D01*
X107033280Y-78888961D01*
X107005711Y-78876486D01*
X106979156Y-78862765D01*
X106953635Y-78847812D01*
X106929166Y-78831640D01*
X106905770Y-78814261D01*
X106883466Y-78795688D01*
X106862274Y-78775934D01*
X106842214Y-78755012D01*
X106823305Y-78732936D01*
X106805568Y-78709717D01*
X106789021Y-78685369D01*
X106773685Y-78659905D01*
X106759579Y-78633338D01*
X106746722Y-78605680D01*
X106735136Y-78576945D01*
X106724839Y-78547146D01*
X106715851Y-78516294D01*
X106708191Y-78484404D01*
X106701880Y-78451488D01*
X106696938Y-78417560D01*
X106693383Y-78382631D01*
X106691235Y-78346715D01*
X106690515Y-78309826D01*
X106691229Y-78274673D01*
X106693357Y-78240334D01*
X106696874Y-78206827D01*
X106701756Y-78174168D01*
X106707981Y-78142376D01*
X106715525Y-78111469D01*
X106724364Y-78081465D01*
X106734475Y-78052380D01*
X106745833Y-78024234D01*
X106758416Y-77997043D01*
X106772200Y-77970826D01*
X106787160Y-77945600D01*
X106803275Y-77921383D01*
X106820520Y-77898192D01*
X106838871Y-77876046D01*
X106858305Y-77854963D01*
X106878799Y-77834959D01*
X106900328Y-77816053D01*
X106922870Y-77798263D01*
X106946400Y-77781606D01*
X106970895Y-77766100D01*
X106996332Y-77751763D01*
X107022687Y-77738613D01*
X107049936Y-77726667D01*
X107078055Y-77715943D01*
X107107022Y-77706459D01*
X107136813Y-77698233D01*
X107167403Y-77691282D01*
X107198770Y-77685625D01*
X107230890Y-77681278D01*
X107263739Y-77678260D01*
X107297294Y-77676589D01*
X107297294Y-77856505D01*
G37*
X105173571Y-78925423D02*
X104983071Y-78925423D01*
X104983071Y-78061116D01*
X105173571Y-78061116D01*
X105173571Y-78925423D01*
G36*
X105173571Y-78925423D02*
G01*
X104983071Y-78925423D01*
X104983071Y-78061116D01*
X105173571Y-78061116D01*
X105173571Y-78925423D01*
G37*
X102016382Y-78038047D02*
X102013934Y-78054844D01*
X102010653Y-78070958D01*
X102006565Y-78086406D01*
X102001690Y-78101210D01*
X101996054Y-78115389D01*
X101989678Y-78128963D01*
X101982587Y-78141952D01*
X101974803Y-78154374D01*
X101966350Y-78166250D01*
X101957251Y-78177600D01*
X101947529Y-78188443D01*
X101937208Y-78198799D01*
X101926311Y-78208688D01*
X101914861Y-78218129D01*
X101902881Y-78227142D01*
X101890395Y-78235747D01*
X101877425Y-78243963D01*
X101863996Y-78251811D01*
X101850130Y-78259309D01*
X101821180Y-78273337D01*
X101790764Y-78286205D01*
X101759065Y-78298070D01*
X101726271Y-78309091D01*
X101692568Y-78319424D01*
X101658141Y-78329227D01*
X101640795Y-78334946D01*
X101623222Y-78340252D01*
X101605524Y-78345226D01*
X101587806Y-78349953D01*
X101552721Y-78358993D01*
X101518794Y-78368033D01*
X101452648Y-78390964D01*
X101421559Y-78402264D01*
X101406511Y-78408017D01*
X101391794Y-78413894D01*
X101377789Y-78421031D01*
X101364257Y-78428577D01*
X101351258Y-78436567D01*
X101338850Y-78445037D01*
X101327093Y-78454025D01*
X101316047Y-78463565D01*
X101305770Y-78473695D01*
X101296323Y-78484449D01*
X101291930Y-78490072D01*
X101287765Y-78495865D01*
X101283838Y-78501833D01*
X101280156Y-78507979D01*
X101276725Y-78514309D01*
X101273554Y-78520827D01*
X101270649Y-78527537D01*
X101268019Y-78534444D01*
X101265670Y-78541553D01*
X101263610Y-78548868D01*
X101261847Y-78556393D01*
X101260388Y-78564134D01*
X101259240Y-78572094D01*
X101258411Y-78580279D01*
X101257908Y-78588692D01*
X101257738Y-78597338D01*
X101258273Y-78612032D01*
X101259842Y-78626028D01*
X101262398Y-78639341D01*
X101265889Y-78651987D01*
X101270267Y-78663981D01*
X101275482Y-78675337D01*
X101281483Y-78686071D01*
X101288221Y-78696198D01*
X101295646Y-78705734D01*
X101303709Y-78714693D01*
X101312360Y-78723090D01*
X101321549Y-78730942D01*
X101331226Y-78738262D01*
X101341342Y-78745067D01*
X101351846Y-78751371D01*
X101362690Y-78757190D01*
X101373823Y-78762538D01*
X101385196Y-78767432D01*
X101396759Y-78771885D01*
X101408462Y-78775914D01*
X101432089Y-78782758D01*
X101455680Y-78788086D01*
X101478837Y-78792018D01*
X101501162Y-78794676D01*
X101522258Y-78796182D01*
X101541725Y-78796657D01*
X101569685Y-78795824D01*
X101597225Y-78793295D01*
X101624177Y-78789030D01*
X101650370Y-78782987D01*
X101675632Y-78775125D01*
X101699793Y-78765403D01*
X101711407Y-78759831D01*
X101722683Y-78753779D01*
X101733598Y-78747241D01*
X101744131Y-78740212D01*
X101754261Y-78732687D01*
X101763967Y-78724661D01*
X101773227Y-78716128D01*
X101782020Y-78707084D01*
X101790325Y-78697523D01*
X101798120Y-78687440D01*
X101805384Y-78676830D01*
X101812096Y-78665688D01*
X101818234Y-78654008D01*
X101823778Y-78641786D01*
X101828705Y-78629016D01*
X101832994Y-78615693D01*
X101836625Y-78601811D01*
X101839575Y-78587367D01*
X101841824Y-78572354D01*
X101843350Y-78556768D01*
X102039141Y-78556769D01*
X102037384Y-78582863D01*
X102034445Y-78607907D01*
X102030354Y-78631915D01*
X102025137Y-78654903D01*
X102018824Y-78676884D01*
X102011441Y-78697873D01*
X102003019Y-78717885D01*
X101993583Y-78736934D01*
X101983163Y-78755035D01*
X101971787Y-78772202D01*
X101959483Y-78788450D01*
X101946279Y-78803793D01*
X101932202Y-78818246D01*
X101917282Y-78831823D01*
X101901545Y-78844540D01*
X101885021Y-78856410D01*
X101867738Y-78867448D01*
X101849722Y-78877668D01*
X101831004Y-78887086D01*
X101811610Y-78895715D01*
X101791568Y-78903570D01*
X101770908Y-78910666D01*
X101749656Y-78917017D01*
X101727842Y-78922638D01*
X101705493Y-78927543D01*
X101682637Y-78931747D01*
X101635517Y-78938110D01*
X101586707Y-78941842D01*
X101536433Y-78943061D01*
X101494247Y-78941852D01*
X101451955Y-78938189D01*
X101409948Y-78932015D01*
X101368615Y-78923272D01*
X101328347Y-78911904D01*
X101289533Y-78897854D01*
X101252564Y-78881065D01*
X101217830Y-78861481D01*
X101201423Y-78850622D01*
X101185721Y-78839044D01*
X101170773Y-78826738D01*
X101156628Y-78813697D01*
X101143334Y-78799915D01*
X101130940Y-78785385D01*
X101119495Y-78770098D01*
X101109047Y-78754049D01*
X101099647Y-78737229D01*
X101091341Y-78719633D01*
X101084179Y-78701252D01*
X101078210Y-78682080D01*
X101073483Y-78662110D01*
X101070046Y-78641334D01*
X101067948Y-78619746D01*
X101067238Y-78597338D01*
X101067734Y-78577883D01*
X101069207Y-78559194D01*
X101071628Y-78541248D01*
X101074972Y-78524026D01*
X101079211Y-78507507D01*
X101084318Y-78491670D01*
X101090267Y-78476494D01*
X101097031Y-78461959D01*
X101104583Y-78448044D01*
X101112896Y-78434729D01*
X101121944Y-78421993D01*
X101131699Y-78409814D01*
X101142135Y-78398173D01*
X101153225Y-78387049D01*
X101164942Y-78376421D01*
X101177260Y-78366268D01*
X101190152Y-78356570D01*
X101203590Y-78347307D01*
X101217548Y-78338456D01*
X101231999Y-78329999D01*
X101262274Y-78314179D01*
X101294201Y-78299682D01*
X101327563Y-78286343D01*
X101362148Y-78273995D01*
X101397741Y-78262475D01*
X101434127Y-78251616D01*
X101452055Y-78245822D01*
X101470066Y-78240316D01*
X101506005Y-78230008D01*
X101575238Y-78211046D01*
X101613441Y-78199688D01*
X101653979Y-78186324D01*
X101674511Y-78178677D01*
X101694890Y-78170273D01*
X101714871Y-78161027D01*
X101734209Y-78150853D01*
X101752657Y-78139666D01*
X101769972Y-78127382D01*
X101785907Y-78113913D01*
X101793280Y-78106709D01*
X101800217Y-78099177D01*
X101806685Y-78091306D01*
X101812656Y-78083086D01*
X101818097Y-78074506D01*
X101822979Y-78065556D01*
X101827270Y-78056225D01*
X101830940Y-78046502D01*
X101833958Y-78036377D01*
X101836294Y-78025838D01*
X102017975Y-78020546D01*
X102016382Y-78038047D01*
G36*
X102016382Y-78038047D02*
G01*
X102013934Y-78054844D01*
X102010653Y-78070958D01*
X102006565Y-78086406D01*
X102001690Y-78101210D01*
X101996054Y-78115389D01*
X101989678Y-78128963D01*
X101982587Y-78141952D01*
X101974803Y-78154374D01*
X101966350Y-78166250D01*
X101957251Y-78177600D01*
X101947529Y-78188443D01*
X101937208Y-78198799D01*
X101926311Y-78208688D01*
X101914861Y-78218129D01*
X101902881Y-78227142D01*
X101890395Y-78235747D01*
X101877425Y-78243963D01*
X101863996Y-78251811D01*
X101850130Y-78259309D01*
X101821180Y-78273337D01*
X101790764Y-78286205D01*
X101759065Y-78298070D01*
X101726271Y-78309091D01*
X101692568Y-78319424D01*
X101658141Y-78329227D01*
X101640795Y-78334946D01*
X101623222Y-78340252D01*
X101605524Y-78345226D01*
X101587806Y-78349953D01*
X101552721Y-78358993D01*
X101518794Y-78368033D01*
X101452648Y-78390964D01*
X101421559Y-78402264D01*
X101406511Y-78408017D01*
X101391794Y-78413894D01*
X101377789Y-78421031D01*
X101364257Y-78428577D01*
X101351258Y-78436567D01*
X101338850Y-78445037D01*
X101327093Y-78454025D01*
X101316047Y-78463565D01*
X101305770Y-78473695D01*
X101296323Y-78484449D01*
X101291930Y-78490072D01*
X101287765Y-78495865D01*
X101283838Y-78501833D01*
X101280156Y-78507979D01*
X101276725Y-78514309D01*
X101273554Y-78520827D01*
X101270649Y-78527537D01*
X101268019Y-78534444D01*
X101265670Y-78541553D01*
X101263610Y-78548868D01*
X101261847Y-78556393D01*
X101260388Y-78564134D01*
X101259240Y-78572094D01*
X101258411Y-78580279D01*
X101257908Y-78588692D01*
X101257738Y-78597338D01*
X101258273Y-78612032D01*
X101259842Y-78626028D01*
X101262398Y-78639341D01*
X101265889Y-78651987D01*
X101270267Y-78663981D01*
X101275482Y-78675337D01*
X101281483Y-78686071D01*
X101288221Y-78696198D01*
X101295646Y-78705734D01*
X101303709Y-78714693D01*
X101312360Y-78723090D01*
X101321549Y-78730942D01*
X101331226Y-78738262D01*
X101341342Y-78745067D01*
X101351846Y-78751371D01*
X101362690Y-78757190D01*
X101373823Y-78762538D01*
X101385196Y-78767432D01*
X101396759Y-78771885D01*
X101408462Y-78775914D01*
X101432089Y-78782758D01*
X101455680Y-78788086D01*
X101478837Y-78792018D01*
X101501162Y-78794676D01*
X101522258Y-78796182D01*
X101541725Y-78796657D01*
X101569685Y-78795824D01*
X101597225Y-78793295D01*
X101624177Y-78789030D01*
X101650370Y-78782987D01*
X101675632Y-78775125D01*
X101699793Y-78765403D01*
X101711407Y-78759831D01*
X101722683Y-78753779D01*
X101733598Y-78747241D01*
X101744131Y-78740212D01*
X101754261Y-78732687D01*
X101763967Y-78724661D01*
X101773227Y-78716128D01*
X101782020Y-78707084D01*
X101790325Y-78697523D01*
X101798120Y-78687440D01*
X101805384Y-78676830D01*
X101812096Y-78665688D01*
X101818234Y-78654008D01*
X101823778Y-78641786D01*
X101828705Y-78629016D01*
X101832994Y-78615693D01*
X101836625Y-78601811D01*
X101839575Y-78587367D01*
X101841824Y-78572354D01*
X101843350Y-78556768D01*
X102039141Y-78556769D01*
X102037384Y-78582863D01*
X102034445Y-78607907D01*
X102030354Y-78631915D01*
X102025137Y-78654903D01*
X102018824Y-78676884D01*
X102011441Y-78697873D01*
X102003019Y-78717885D01*
X101993583Y-78736934D01*
X101983163Y-78755035D01*
X101971787Y-78772202D01*
X101959483Y-78788450D01*
X101946279Y-78803793D01*
X101932202Y-78818246D01*
X101917282Y-78831823D01*
X101901545Y-78844540D01*
X101885021Y-78856410D01*
X101867738Y-78867448D01*
X101849722Y-78877668D01*
X101831004Y-78887086D01*
X101811610Y-78895715D01*
X101791568Y-78903570D01*
X101770908Y-78910666D01*
X101749656Y-78917017D01*
X101727842Y-78922638D01*
X101705493Y-78927543D01*
X101682637Y-78931747D01*
X101635517Y-78938110D01*
X101586707Y-78941842D01*
X101536433Y-78943061D01*
X101494247Y-78941852D01*
X101451955Y-78938189D01*
X101409948Y-78932015D01*
X101368615Y-78923272D01*
X101328347Y-78911904D01*
X101289533Y-78897854D01*
X101252564Y-78881065D01*
X101217830Y-78861481D01*
X101201423Y-78850622D01*
X101185721Y-78839044D01*
X101170773Y-78826738D01*
X101156628Y-78813697D01*
X101143334Y-78799915D01*
X101130940Y-78785385D01*
X101119495Y-78770098D01*
X101109047Y-78754049D01*
X101099647Y-78737229D01*
X101091341Y-78719633D01*
X101084179Y-78701252D01*
X101078210Y-78682080D01*
X101073483Y-78662110D01*
X101070046Y-78641334D01*
X101067948Y-78619746D01*
X101067238Y-78597338D01*
X101067734Y-78577883D01*
X101069207Y-78559194D01*
X101071628Y-78541248D01*
X101074972Y-78524026D01*
X101079211Y-78507507D01*
X101084318Y-78491670D01*
X101090267Y-78476494D01*
X101097031Y-78461959D01*
X101104583Y-78448044D01*
X101112896Y-78434729D01*
X101121944Y-78421993D01*
X101131699Y-78409814D01*
X101142135Y-78398173D01*
X101153225Y-78387049D01*
X101164942Y-78376421D01*
X101177260Y-78366268D01*
X101190152Y-78356570D01*
X101203590Y-78347307D01*
X101217548Y-78338456D01*
X101231999Y-78329999D01*
X101262274Y-78314179D01*
X101294201Y-78299682D01*
X101327563Y-78286343D01*
X101362148Y-78273995D01*
X101397741Y-78262475D01*
X101434127Y-78251616D01*
X101452055Y-78245822D01*
X101470066Y-78240316D01*
X101506005Y-78230008D01*
X101575238Y-78211046D01*
X101613441Y-78199688D01*
X101653979Y-78186324D01*
X101674511Y-78178677D01*
X101694890Y-78170273D01*
X101714871Y-78161027D01*
X101734209Y-78150853D01*
X101752657Y-78139666D01*
X101769972Y-78127382D01*
X101785907Y-78113913D01*
X101793280Y-78106709D01*
X101800217Y-78099177D01*
X101806685Y-78091306D01*
X101812656Y-78083086D01*
X101818097Y-78074506D01*
X101822979Y-78065556D01*
X101827270Y-78056225D01*
X101830940Y-78046502D01*
X101833958Y-78036377D01*
X101836294Y-78025838D01*
X102017975Y-78020546D01*
X102016382Y-78038047D01*
G37*
X99340390Y-78925423D02*
X99151653Y-78925423D01*
X99151653Y-78098159D01*
X99340390Y-78098159D01*
X99340390Y-78925423D01*
G36*
X99340390Y-78925423D02*
G01*
X99151653Y-78925423D01*
X99151653Y-78098159D01*
X99340390Y-78098159D01*
X99340390Y-78925423D01*
G37*
X99721390Y-77879436D02*
X98774180Y-77879436D01*
X98774180Y-77694228D01*
X99721390Y-77694228D01*
X99721390Y-77879436D01*
G36*
X99721390Y-77879436D02*
G01*
X98774180Y-77879436D01*
X98774180Y-77694228D01*
X99721390Y-77694228D01*
X99721390Y-77879436D01*
G37*
X105626890Y-78637909D02*
X106279529Y-77694228D01*
X106464738Y-77694228D01*
X105639238Y-78925423D01*
X105443446Y-78925423D01*
X105443446Y-77694228D01*
X105621599Y-77694228D01*
X105626890Y-78637909D01*
G36*
X105626890Y-78637909D02*
G01*
X106279529Y-77694228D01*
X106464738Y-77694228D01*
X105639238Y-78925423D01*
X105443446Y-78925423D01*
X105443446Y-77694228D01*
X105621599Y-77694228D01*
X105626890Y-78637909D01*
G37*
X105173571Y-77837102D02*
X104981307Y-77837102D01*
X104981307Y-77694226D01*
X105173571Y-77694226D01*
X105173571Y-77837102D01*
G36*
X105173571Y-77837102D02*
G01*
X104981307Y-77837102D01*
X104981307Y-77694226D01*
X105173571Y-77694226D01*
X105173571Y-77837102D01*
G37*
X100961404Y-78925423D02*
X100755029Y-78925423D01*
X100396960Y-77847686D01*
X100386377Y-77847686D01*
X100003612Y-78925423D01*
X99783126Y-78925423D01*
X100255849Y-77694228D01*
X100527488Y-77694228D01*
X100961404Y-78925423D01*
G36*
X100961404Y-78925423D02*
G01*
X100755029Y-78925423D01*
X100396960Y-77847686D01*
X100386377Y-77847686D01*
X100003612Y-78925423D01*
X99783126Y-78925423D01*
X100255849Y-77694228D01*
X100527488Y-77694228D01*
X100961404Y-78925423D01*
G37*
X106478850Y-78925423D02*
X106295405Y-78925423D01*
X106295405Y-78332755D01*
X106478850Y-78068172D01*
X106478850Y-78925423D01*
G36*
X106478850Y-78925423D02*
G01*
X106295405Y-78925423D01*
X106295405Y-78332755D01*
X106478850Y-78068172D01*
X106478850Y-78925423D01*
G37*
X101534668Y-77821228D02*
X101509331Y-77823690D01*
X101484355Y-77827774D01*
X101459897Y-77833491D01*
X101436110Y-77840852D01*
X101413150Y-77849866D01*
X101391172Y-77860544D01*
X101370331Y-77872896D01*
X101360385Y-77879704D01*
X101350782Y-77886933D01*
X101341540Y-77894587D01*
X101332679Y-77902665D01*
X101324219Y-77911170D01*
X101316179Y-77920103D01*
X101308578Y-77929464D01*
X101301436Y-77939256D01*
X101294772Y-77949479D01*
X101288605Y-77960135D01*
X101282954Y-77971225D01*
X101277840Y-77982750D01*
X101273282Y-77994712D01*
X101269298Y-78007112D01*
X101265909Y-78019952D01*
X101263133Y-78033231D01*
X101260991Y-78046953D01*
X101259501Y-78061118D01*
X101067238Y-78061116D01*
X101069104Y-78036599D01*
X101072042Y-78012983D01*
X101076026Y-77990257D01*
X101081032Y-77968412D01*
X101087035Y-77947440D01*
X101094011Y-77927330D01*
X101101936Y-77908073D01*
X101110784Y-77889661D01*
X101120531Y-77872083D01*
X101131153Y-77855330D01*
X101142625Y-77839393D01*
X101154922Y-77824262D01*
X101168021Y-77809929D01*
X101181896Y-77796383D01*
X101196523Y-77783616D01*
X101211877Y-77771618D01*
X101227934Y-77760379D01*
X101244669Y-77749891D01*
X101262058Y-77740144D01*
X101280076Y-77731128D01*
X101298699Y-77722834D01*
X101317901Y-77715253D01*
X101337660Y-77708376D01*
X101357949Y-77702193D01*
X101378745Y-77696694D01*
X101400022Y-77691871D01*
X101443925Y-77684213D01*
X101489460Y-77679144D01*
X101536433Y-77676589D01*
X101534668Y-77821228D01*
G36*
X101534668Y-77821228D02*
G01*
X101509331Y-77823690D01*
X101484355Y-77827774D01*
X101459897Y-77833491D01*
X101436110Y-77840852D01*
X101413150Y-77849866D01*
X101391172Y-77860544D01*
X101370331Y-77872896D01*
X101360385Y-77879704D01*
X101350782Y-77886933D01*
X101341540Y-77894587D01*
X101332679Y-77902665D01*
X101324219Y-77911170D01*
X101316179Y-77920103D01*
X101308578Y-77929464D01*
X101301436Y-77939256D01*
X101294772Y-77949479D01*
X101288605Y-77960135D01*
X101282954Y-77971225D01*
X101277840Y-77982750D01*
X101273282Y-77994712D01*
X101269298Y-78007112D01*
X101265909Y-78019952D01*
X101263133Y-78033231D01*
X101260991Y-78046953D01*
X101259501Y-78061118D01*
X101067238Y-78061116D01*
X101069104Y-78036599D01*
X101072042Y-78012983D01*
X101076026Y-77990257D01*
X101081032Y-77968412D01*
X101087035Y-77947440D01*
X101094011Y-77927330D01*
X101101936Y-77908073D01*
X101110784Y-77889661D01*
X101120531Y-77872083D01*
X101131153Y-77855330D01*
X101142625Y-77839393D01*
X101154922Y-77824262D01*
X101168021Y-77809929D01*
X101181896Y-77796383D01*
X101196523Y-77783616D01*
X101211877Y-77771618D01*
X101227934Y-77760379D01*
X101244669Y-77749891D01*
X101262058Y-77740144D01*
X101280076Y-77731128D01*
X101298699Y-77722834D01*
X101317901Y-77715253D01*
X101337660Y-77708376D01*
X101357949Y-77702193D01*
X101378745Y-77696694D01*
X101400022Y-77691871D01*
X101443925Y-77684213D01*
X101489460Y-77679144D01*
X101536433Y-77676589D01*
X101534668Y-77821228D01*
G37*
X102425433Y-78637909D02*
X103078071Y-77694228D01*
X103263280Y-77694228D01*
X102437780Y-78925423D01*
X102241988Y-78925423D01*
X102241988Y-77694228D01*
X102420141Y-77694228D01*
X102425433Y-78637909D01*
G36*
X102425433Y-78637909D02*
G01*
X103078071Y-77694228D01*
X103263280Y-77694228D01*
X102437780Y-78925423D01*
X102241988Y-78925423D01*
X102241988Y-77694228D01*
X102420141Y-77694228D01*
X102425433Y-78637909D01*
G37*
X103277392Y-78925423D02*
X103093947Y-78925423D01*
X103093947Y-78332755D01*
X103277392Y-78068172D01*
X103277392Y-78925423D01*
G36*
X103277392Y-78925423D02*
G01*
X103093947Y-78925423D01*
X103093947Y-78332755D01*
X103277392Y-78068172D01*
X103277392Y-78925423D01*
G37*
X106117700Y-81735101D02*
X106117700Y-81301768D01*
X106117700Y-81425577D02*
X106086747Y-81363672D01*
X106086747Y-81363672D02*
X106055795Y-81332720D01*
X106055795Y-81332720D02*
X105993890Y-81301768D01*
X105993890Y-81301768D02*
X105931985Y-81301768D01*
X105467700Y-81704149D02*
X105529604Y-81735101D01*
X105529604Y-81735101D02*
X105653414Y-81735101D01*
X105653414Y-81735101D02*
X105715319Y-81704149D01*
X105715319Y-81704149D02*
X105746271Y-81642244D01*
X105746271Y-81642244D02*
X105746271Y-81394625D01*
X105746271Y-81394625D02*
X105715319Y-81332720D01*
X105715319Y-81332720D02*
X105653414Y-81301768D01*
X105653414Y-81301768D02*
X105529604Y-81301768D01*
X105529604Y-81301768D02*
X105467700Y-81332720D01*
X105467700Y-81332720D02*
X105436747Y-81394625D01*
X105436747Y-81394625D02*
X105436747Y-81456529D01*
X105436747Y-81456529D02*
X105746271Y-81518434D01*
X105220080Y-81301768D02*
X105065318Y-81735101D01*
X105065318Y-81735101D02*
X104910557Y-81301768D01*
X104662938Y-81735101D02*
X104662938Y-81301768D01*
X104662938Y-81085101D02*
X104693890Y-81116053D01*
X104693890Y-81116053D02*
X104662938Y-81147006D01*
X104662938Y-81147006D02*
X104631985Y-81116053D01*
X104631985Y-81116053D02*
X104662938Y-81085101D01*
X104662938Y-81085101D02*
X104662938Y-81147006D01*
X104384366Y-81704149D02*
X104322461Y-81735101D01*
X104322461Y-81735101D02*
X104198652Y-81735101D01*
X104198652Y-81735101D02*
X104136747Y-81704149D01*
X104136747Y-81704149D02*
X104105795Y-81642244D01*
X104105795Y-81642244D02*
X104105795Y-81611291D01*
X104105795Y-81611291D02*
X104136747Y-81549387D01*
X104136747Y-81549387D02*
X104198652Y-81518434D01*
X104198652Y-81518434D02*
X104291509Y-81518434D01*
X104291509Y-81518434D02*
X104353414Y-81487482D01*
X104353414Y-81487482D02*
X104384366Y-81425577D01*
X104384366Y-81425577D02*
X104384366Y-81394625D01*
X104384366Y-81394625D02*
X104353414Y-81332720D01*
X104353414Y-81332720D02*
X104291509Y-81301768D01*
X104291509Y-81301768D02*
X104198652Y-81301768D01*
X104198652Y-81301768D02*
X104136747Y-81332720D01*
X103827224Y-81735101D02*
X103827224Y-81301768D01*
X103827224Y-81085101D02*
X103858176Y-81116053D01*
X103858176Y-81116053D02*
X103827224Y-81147006D01*
X103827224Y-81147006D02*
X103796271Y-81116053D01*
X103796271Y-81116053D02*
X103827224Y-81085101D01*
X103827224Y-81085101D02*
X103827224Y-81147006D01*
X103424842Y-81735101D02*
X103486747Y-81704149D01*
X103486747Y-81704149D02*
X103517700Y-81673196D01*
X103517700Y-81673196D02*
X103548652Y-81611291D01*
X103548652Y-81611291D02*
X103548652Y-81425577D01*
X103548652Y-81425577D02*
X103517700Y-81363672D01*
X103517700Y-81363672D02*
X103486747Y-81332720D01*
X103486747Y-81332720D02*
X103424842Y-81301768D01*
X103424842Y-81301768D02*
X103331985Y-81301768D01*
X103331985Y-81301768D02*
X103270081Y-81332720D01*
X103270081Y-81332720D02*
X103239128Y-81363672D01*
X103239128Y-81363672D02*
X103208176Y-81425577D01*
X103208176Y-81425577D02*
X103208176Y-81611291D01*
X103208176Y-81611291D02*
X103239128Y-81673196D01*
X103239128Y-81673196D02*
X103270081Y-81704149D01*
X103270081Y-81704149D02*
X103331985Y-81735101D01*
X103331985Y-81735101D02*
X103424842Y-81735101D01*
X102929605Y-81301768D02*
X102929605Y-81735101D01*
X102929605Y-81363672D02*
X102898652Y-81332720D01*
X102898652Y-81332720D02*
X102836747Y-81301768D01*
X102836747Y-81301768D02*
X102743890Y-81301768D01*
X102743890Y-81301768D02*
X102681986Y-81332720D01*
X102681986Y-81332720D02*
X102651033Y-81394625D01*
X102651033Y-81394625D02*
X102651033Y-81735101D01*
X101505795Y-81735101D02*
X101877224Y-81735101D01*
X101691510Y-81735101D02*
X101691510Y-81085101D01*
X101691510Y-81085101D02*
X101753414Y-81177958D01*
X101753414Y-81177958D02*
X101815319Y-81239863D01*
X101815319Y-81239863D02*
X101877224Y-81270815D01*
X101227224Y-81673196D02*
X101196271Y-81704149D01*
X101196271Y-81704149D02*
X101227224Y-81735101D01*
X101227224Y-81735101D02*
X101258176Y-81704149D01*
X101258176Y-81704149D02*
X101227224Y-81673196D01*
X101227224Y-81673196D02*
X101227224Y-81735101D01*
X100793890Y-81085101D02*
X100731985Y-81085101D01*
X100731985Y-81085101D02*
X100670081Y-81116053D01*
X100670081Y-81116053D02*
X100639128Y-81147006D01*
X100639128Y-81147006D02*
X100608176Y-81208910D01*
X100608176Y-81208910D02*
X100577223Y-81332720D01*
X100577223Y-81332720D02*
X100577223Y-81487482D01*
X100577223Y-81487482D02*
X100608176Y-81611291D01*
X100608176Y-81611291D02*
X100639128Y-81673196D01*
X100639128Y-81673196D02*
X100670081Y-81704149D01*
X100670081Y-81704149D02*
X100731985Y-81735101D01*
X100731985Y-81735101D02*
X100793890Y-81735101D01*
X100793890Y-81735101D02*
X100855795Y-81704149D01*
X100855795Y-81704149D02*
X100886747Y-81673196D01*
X100886747Y-81673196D02*
X100917700Y-81611291D01*
X100917700Y-81611291D02*
X100948652Y-81487482D01*
X100948652Y-81487482D02*
X100948652Y-81332720D01*
X100948652Y-81332720D02*
X100917700Y-81208910D01*
X100917700Y-81208910D02*
X100886747Y-81147006D01*
X100886747Y-81147006D02*
X100855795Y-81116053D01*
X100855795Y-81116053D02*
X100793890Y-81085101D01*
X107139128Y-82781565D02*
X107139128Y-82131565D01*
X107139128Y-82131565D02*
X106891509Y-82131565D01*
X106891509Y-82131565D02*
X106829604Y-82162517D01*
X106829604Y-82162517D02*
X106798651Y-82193470D01*
X106798651Y-82193470D02*
X106767699Y-82255374D01*
X106767699Y-82255374D02*
X106767699Y-82348232D01*
X106767699Y-82348232D02*
X106798651Y-82410136D01*
X106798651Y-82410136D02*
X106829604Y-82441089D01*
X106829604Y-82441089D02*
X106891509Y-82472041D01*
X106891509Y-82472041D02*
X107139128Y-82472041D01*
X106489128Y-82781565D02*
X106489128Y-82348232D01*
X106489128Y-82472041D02*
X106458175Y-82410136D01*
X106458175Y-82410136D02*
X106427223Y-82379184D01*
X106427223Y-82379184D02*
X106365318Y-82348232D01*
X106365318Y-82348232D02*
X106303413Y-82348232D01*
X105993889Y-82781565D02*
X106055794Y-82750613D01*
X106055794Y-82750613D02*
X106086747Y-82719660D01*
X106086747Y-82719660D02*
X106117699Y-82657755D01*
X106117699Y-82657755D02*
X106117699Y-82472041D01*
X106117699Y-82472041D02*
X106086747Y-82410136D01*
X106086747Y-82410136D02*
X106055794Y-82379184D01*
X106055794Y-82379184D02*
X105993889Y-82348232D01*
X105993889Y-82348232D02*
X105901032Y-82348232D01*
X105901032Y-82348232D02*
X105839128Y-82379184D01*
X105839128Y-82379184D02*
X105808175Y-82410136D01*
X105808175Y-82410136D02*
X105777223Y-82472041D01*
X105777223Y-82472041D02*
X105777223Y-82657755D01*
X105777223Y-82657755D02*
X105808175Y-82719660D01*
X105808175Y-82719660D02*
X105839128Y-82750613D01*
X105839128Y-82750613D02*
X105901032Y-82781565D01*
X105901032Y-82781565D02*
X105993889Y-82781565D01*
X105498652Y-82348232D02*
X105498652Y-82905374D01*
X105498652Y-82905374D02*
X105529604Y-82967279D01*
X105529604Y-82967279D02*
X105591509Y-82998232D01*
X105591509Y-82998232D02*
X105622461Y-82998232D01*
X105498652Y-82131565D02*
X105529604Y-82162517D01*
X105529604Y-82162517D02*
X105498652Y-82193470D01*
X105498652Y-82193470D02*
X105467699Y-82162517D01*
X105467699Y-82162517D02*
X105498652Y-82131565D01*
X105498652Y-82131565D02*
X105498652Y-82193470D01*
X104941509Y-82750613D02*
X105003413Y-82781565D01*
X105003413Y-82781565D02*
X105127223Y-82781565D01*
X105127223Y-82781565D02*
X105189128Y-82750613D01*
X105189128Y-82750613D02*
X105220080Y-82688708D01*
X105220080Y-82688708D02*
X105220080Y-82441089D01*
X105220080Y-82441089D02*
X105189128Y-82379184D01*
X105189128Y-82379184D02*
X105127223Y-82348232D01*
X105127223Y-82348232D02*
X105003413Y-82348232D01*
X105003413Y-82348232D02*
X104941509Y-82379184D01*
X104941509Y-82379184D02*
X104910556Y-82441089D01*
X104910556Y-82441089D02*
X104910556Y-82502993D01*
X104910556Y-82502993D02*
X105220080Y-82564898D01*
X104353413Y-82750613D02*
X104415318Y-82781565D01*
X104415318Y-82781565D02*
X104539127Y-82781565D01*
X104539127Y-82781565D02*
X104601032Y-82750613D01*
X104601032Y-82750613D02*
X104631985Y-82719660D01*
X104631985Y-82719660D02*
X104662937Y-82657755D01*
X104662937Y-82657755D02*
X104662937Y-82472041D01*
X104662937Y-82472041D02*
X104631985Y-82410136D01*
X104631985Y-82410136D02*
X104601032Y-82379184D01*
X104601032Y-82379184D02*
X104539127Y-82348232D01*
X104539127Y-82348232D02*
X104415318Y-82348232D01*
X104415318Y-82348232D02*
X104353413Y-82379184D01*
X104167699Y-82348232D02*
X103920080Y-82348232D01*
X104074842Y-82131565D02*
X104074842Y-82688708D01*
X104074842Y-82688708D02*
X104043889Y-82750613D01*
X104043889Y-82750613D02*
X103981984Y-82781565D01*
X103981984Y-82781565D02*
X103920080Y-82781565D01*
X103208175Y-82781565D02*
X103208175Y-82131565D01*
X103208175Y-82131565D02*
X102836746Y-82781565D01*
X102836746Y-82781565D02*
X102836746Y-82131565D01*
X102279604Y-82750613D02*
X102341508Y-82781565D01*
X102341508Y-82781565D02*
X102465318Y-82781565D01*
X102465318Y-82781565D02*
X102527223Y-82750613D01*
X102527223Y-82750613D02*
X102558175Y-82688708D01*
X102558175Y-82688708D02*
X102558175Y-82441089D01*
X102558175Y-82441089D02*
X102527223Y-82379184D01*
X102527223Y-82379184D02*
X102465318Y-82348232D01*
X102465318Y-82348232D02*
X102341508Y-82348232D01*
X102341508Y-82348232D02*
X102279604Y-82379184D01*
X102279604Y-82379184D02*
X102248651Y-82441089D01*
X102248651Y-82441089D02*
X102248651Y-82502993D01*
X102248651Y-82502993D02*
X102558175Y-82564898D01*
X101970080Y-82348232D02*
X101970080Y-82998232D01*
X101970080Y-82379184D02*
X101908175Y-82348232D01*
X101908175Y-82348232D02*
X101784365Y-82348232D01*
X101784365Y-82348232D02*
X101722461Y-82379184D01*
X101722461Y-82379184D02*
X101691508Y-82410136D01*
X101691508Y-82410136D02*
X101660556Y-82472041D01*
X101660556Y-82472041D02*
X101660556Y-82657755D01*
X101660556Y-82657755D02*
X101691508Y-82719660D01*
X101691508Y-82719660D02*
X101722461Y-82750613D01*
X101722461Y-82750613D02*
X101784365Y-82781565D01*
X101784365Y-82781565D02*
X101908175Y-82781565D01*
X101908175Y-82781565D02*
X101970080Y-82750613D01*
X101474842Y-82348232D02*
X101227223Y-82348232D01*
X101381985Y-82131565D02*
X101381985Y-82688708D01*
X101381985Y-82688708D02*
X101351032Y-82750613D01*
X101351032Y-82750613D02*
X101289127Y-82781565D01*
X101289127Y-82781565D02*
X101227223Y-82781565D01*
X100731984Y-82348232D02*
X100731984Y-82781565D01*
X101010556Y-82348232D02*
X101010556Y-82688708D01*
X101010556Y-82688708D02*
X100979603Y-82750613D01*
X100979603Y-82750613D02*
X100917698Y-82781565D01*
X100917698Y-82781565D02*
X100824841Y-82781565D01*
X100824841Y-82781565D02*
X100762937Y-82750613D01*
X100762937Y-82750613D02*
X100731984Y-82719660D01*
X100422461Y-82348232D02*
X100422461Y-82781565D01*
X100422461Y-82410136D02*
X100391508Y-82379184D01*
X100391508Y-82379184D02*
X100329603Y-82348232D01*
X100329603Y-82348232D02*
X100236746Y-82348232D01*
X100236746Y-82348232D02*
X100174842Y-82379184D01*
X100174842Y-82379184D02*
X100143889Y-82441089D01*
X100143889Y-82441089D02*
X100143889Y-82781565D01*
X99586747Y-82750613D02*
X99648651Y-82781565D01*
X99648651Y-82781565D02*
X99772461Y-82781565D01*
X99772461Y-82781565D02*
X99834366Y-82750613D01*
X99834366Y-82750613D02*
X99865318Y-82688708D01*
X99865318Y-82688708D02*
X99865318Y-82441089D01*
X99865318Y-82441089D02*
X99834366Y-82379184D01*
X99834366Y-82379184D02*
X99772461Y-82348232D01*
X99772461Y-82348232D02*
X99648651Y-82348232D01*
X99648651Y-82348232D02*
X99586747Y-82379184D01*
X99586747Y-82379184D02*
X99555794Y-82441089D01*
X99555794Y-82441089D02*
X99555794Y-82502993D01*
X99555794Y-82502993D02*
X99865318Y-82564898D01*
D12*
X90571652Y-36697835D02*
X90321652Y-37054978D01*
X90143081Y-36697835D02*
X90143081Y-37447835D01*
X90143081Y-37447835D02*
X90428795Y-37447835D01*
X90428795Y-37447835D02*
X90500224Y-37412121D01*
X90500224Y-37412121D02*
X90535938Y-37376407D01*
X90535938Y-37376407D02*
X90571652Y-37304978D01*
X90571652Y-37304978D02*
X90571652Y-37197835D01*
X90571652Y-37197835D02*
X90535938Y-37126407D01*
X90535938Y-37126407D02*
X90500224Y-37090692D01*
X90500224Y-37090692D02*
X90428795Y-37054978D01*
X90428795Y-37054978D02*
X90143081Y-37054978D01*
X90893081Y-37090692D02*
X91143081Y-37090692D01*
X91250224Y-36697835D02*
X90893081Y-36697835D01*
X90893081Y-36697835D02*
X90893081Y-37447835D01*
X90893081Y-37447835D02*
X91250224Y-37447835D01*
X91535938Y-36733550D02*
X91643081Y-36697835D01*
X91643081Y-36697835D02*
X91821652Y-36697835D01*
X91821652Y-36697835D02*
X91893081Y-36733550D01*
X91893081Y-36733550D02*
X91928795Y-36769264D01*
X91928795Y-36769264D02*
X91964509Y-36840692D01*
X91964509Y-36840692D02*
X91964509Y-36912121D01*
X91964509Y-36912121D02*
X91928795Y-36983550D01*
X91928795Y-36983550D02*
X91893081Y-37019264D01*
X91893081Y-37019264D02*
X91821652Y-37054978D01*
X91821652Y-37054978D02*
X91678795Y-37090692D01*
X91678795Y-37090692D02*
X91607366Y-37126407D01*
X91607366Y-37126407D02*
X91571652Y-37162121D01*
X91571652Y-37162121D02*
X91535938Y-37233550D01*
X91535938Y-37233550D02*
X91535938Y-37304978D01*
X91535938Y-37304978D02*
X91571652Y-37376407D01*
X91571652Y-37376407D02*
X91607366Y-37412121D01*
X91607366Y-37412121D02*
X91678795Y-37447835D01*
X91678795Y-37447835D02*
X91857366Y-37447835D01*
X91857366Y-37447835D02*
X91964509Y-37412121D01*
X92285938Y-37090692D02*
X92535938Y-37090692D01*
X92643081Y-36697835D02*
X92285938Y-36697835D01*
X92285938Y-36697835D02*
X92285938Y-37447835D01*
X92285938Y-37447835D02*
X92643081Y-37447835D01*
X92857366Y-37447835D02*
X93285938Y-37447835D01*
X93071652Y-36697835D02*
X93071652Y-37447835D01*
D13*
X111921005Y-79877879D02*
X111687672Y-79877879D01*
X111587672Y-80244546D02*
X111921005Y-80244546D01*
X111921005Y-80244546D02*
X111921005Y-79544546D01*
X111921005Y-79544546D02*
X111587672Y-79544546D01*
X111287672Y-79777879D02*
X111287672Y-80244546D01*
X111287672Y-79844546D02*
X111254339Y-79811213D01*
X111254339Y-79811213D02*
X111187672Y-79777879D01*
X111187672Y-79777879D02*
X111087672Y-79777879D01*
X111087672Y-79777879D02*
X111021005Y-79811213D01*
X111021005Y-79811213D02*
X110987672Y-79877879D01*
X110987672Y-79877879D02*
X110987672Y-80244546D01*
X110721006Y-79777879D02*
X110554339Y-80244546D01*
X110554339Y-80244546D02*
X110387672Y-79777879D01*
X110121006Y-80244546D02*
X110121006Y-79777879D01*
X110121006Y-79544546D02*
X110154339Y-79577879D01*
X110154339Y-79577879D02*
X110121006Y-79611213D01*
X110121006Y-79611213D02*
X110087673Y-79577879D01*
X110087673Y-79577879D02*
X110121006Y-79544546D01*
X110121006Y-79544546D02*
X110121006Y-79611213D01*
X109787673Y-80244546D02*
X109787673Y-79777879D01*
X109787673Y-79911213D02*
X109754340Y-79844546D01*
X109754340Y-79844546D02*
X109721006Y-79811213D01*
X109721006Y-79811213D02*
X109654340Y-79777879D01*
X109654340Y-79777879D02*
X109587673Y-79777879D01*
X109254340Y-80244546D02*
X109321007Y-80211213D01*
X109321007Y-80211213D02*
X109354340Y-80177879D01*
X109354340Y-80177879D02*
X109387673Y-80111213D01*
X109387673Y-80111213D02*
X109387673Y-79911213D01*
X109387673Y-79911213D02*
X109354340Y-79844546D01*
X109354340Y-79844546D02*
X109321007Y-79811213D01*
X109321007Y-79811213D02*
X109254340Y-79777879D01*
X109254340Y-79777879D02*
X109154340Y-79777879D01*
X109154340Y-79777879D02*
X109087673Y-79811213D01*
X109087673Y-79811213D02*
X109054340Y-79844546D01*
X109054340Y-79844546D02*
X109021007Y-79911213D01*
X109021007Y-79911213D02*
X109021007Y-80111213D01*
X109021007Y-80111213D02*
X109054340Y-80177879D01*
X109054340Y-80177879D02*
X109087673Y-80211213D01*
X109087673Y-80211213D02*
X109154340Y-80244546D01*
X109154340Y-80244546D02*
X109254340Y-80244546D01*
X108721007Y-79777879D02*
X108721007Y-80244546D01*
X108721007Y-79844546D02*
X108687674Y-79811213D01*
X108687674Y-79811213D02*
X108621007Y-79777879D01*
X108621007Y-79777879D02*
X108521007Y-79777879D01*
X108521007Y-79777879D02*
X108454340Y-79811213D01*
X108454340Y-79811213D02*
X108421007Y-79877879D01*
X108421007Y-79877879D02*
X108421007Y-80244546D01*
X108087674Y-80244546D02*
X108087674Y-79777879D01*
X108087674Y-79844546D02*
X108054341Y-79811213D01*
X108054341Y-79811213D02*
X107987674Y-79777879D01*
X107987674Y-79777879D02*
X107887674Y-79777879D01*
X107887674Y-79777879D02*
X107821007Y-79811213D01*
X107821007Y-79811213D02*
X107787674Y-79877879D01*
X107787674Y-79877879D02*
X107787674Y-80244546D01*
X107787674Y-79877879D02*
X107754341Y-79811213D01*
X107754341Y-79811213D02*
X107687674Y-79777879D01*
X107687674Y-79777879D02*
X107587674Y-79777879D01*
X107587674Y-79777879D02*
X107521007Y-79811213D01*
X107521007Y-79811213D02*
X107487674Y-79877879D01*
X107487674Y-79877879D02*
X107487674Y-80244546D01*
X106887674Y-80211213D02*
X106954341Y-80244546D01*
X106954341Y-80244546D02*
X107087674Y-80244546D01*
X107087674Y-80244546D02*
X107154341Y-80211213D01*
X107154341Y-80211213D02*
X107187674Y-80144546D01*
X107187674Y-80144546D02*
X107187674Y-79877879D01*
X107187674Y-79877879D02*
X107154341Y-79811213D01*
X107154341Y-79811213D02*
X107087674Y-79777879D01*
X107087674Y-79777879D02*
X106954341Y-79777879D01*
X106954341Y-79777879D02*
X106887674Y-79811213D01*
X106887674Y-79811213D02*
X106854341Y-79877879D01*
X106854341Y-79877879D02*
X106854341Y-79944546D01*
X106854341Y-79944546D02*
X107187674Y-80011213D01*
X106554341Y-79777879D02*
X106554341Y-80244546D01*
X106554341Y-79844546D02*
X106521008Y-79811213D01*
X106521008Y-79811213D02*
X106454341Y-79777879D01*
X106454341Y-79777879D02*
X106354341Y-79777879D01*
X106354341Y-79777879D02*
X106287674Y-79811213D01*
X106287674Y-79811213D02*
X106254341Y-79877879D01*
X106254341Y-79877879D02*
X106254341Y-80244546D01*
X106021008Y-79777879D02*
X105754341Y-79777879D01*
X105921008Y-79544546D02*
X105921008Y-80144546D01*
X105921008Y-80144546D02*
X105887675Y-80211213D01*
X105887675Y-80211213D02*
X105821008Y-80244546D01*
X105821008Y-80244546D02*
X105754341Y-80244546D01*
X105221008Y-80244546D02*
X105221008Y-79877879D01*
X105221008Y-79877879D02*
X105254341Y-79811213D01*
X105254341Y-79811213D02*
X105321008Y-79777879D01*
X105321008Y-79777879D02*
X105454341Y-79777879D01*
X105454341Y-79777879D02*
X105521008Y-79811213D01*
X105221008Y-80211213D02*
X105287675Y-80244546D01*
X105287675Y-80244546D02*
X105454341Y-80244546D01*
X105454341Y-80244546D02*
X105521008Y-80211213D01*
X105521008Y-80211213D02*
X105554341Y-80144546D01*
X105554341Y-80144546D02*
X105554341Y-80077879D01*
X105554341Y-80077879D02*
X105521008Y-80011213D01*
X105521008Y-80011213D02*
X105454341Y-79977879D01*
X105454341Y-79977879D02*
X105287675Y-79977879D01*
X105287675Y-79977879D02*
X105221008Y-79944546D01*
X104787675Y-80244546D02*
X104854342Y-80211213D01*
X104854342Y-80211213D02*
X104887675Y-80144546D01*
X104887675Y-80144546D02*
X104887675Y-79544546D01*
X103987675Y-80244546D02*
X103987675Y-79544546D01*
X103987675Y-79544546D02*
X103754342Y-80044546D01*
X103754342Y-80044546D02*
X103521008Y-79544546D01*
X103521008Y-79544546D02*
X103521008Y-80244546D01*
X102921008Y-80211213D02*
X102987675Y-80244546D01*
X102987675Y-80244546D02*
X103121008Y-80244546D01*
X103121008Y-80244546D02*
X103187675Y-80211213D01*
X103187675Y-80211213D02*
X103221008Y-80144546D01*
X103221008Y-80144546D02*
X103221008Y-79877879D01*
X103221008Y-79877879D02*
X103187675Y-79811213D01*
X103187675Y-79811213D02*
X103121008Y-79777879D01*
X103121008Y-79777879D02*
X102987675Y-79777879D01*
X102987675Y-79777879D02*
X102921008Y-79811213D01*
X102921008Y-79811213D02*
X102887675Y-79877879D01*
X102887675Y-79877879D02*
X102887675Y-79944546D01*
X102887675Y-79944546D02*
X103221008Y-80011213D01*
X102287675Y-80244546D02*
X102287675Y-79877879D01*
X102287675Y-79877879D02*
X102321008Y-79811213D01*
X102321008Y-79811213D02*
X102387675Y-79777879D01*
X102387675Y-79777879D02*
X102521008Y-79777879D01*
X102521008Y-79777879D02*
X102587675Y-79811213D01*
X102287675Y-80211213D02*
X102354342Y-80244546D01*
X102354342Y-80244546D02*
X102521008Y-80244546D01*
X102521008Y-80244546D02*
X102587675Y-80211213D01*
X102587675Y-80211213D02*
X102621008Y-80144546D01*
X102621008Y-80144546D02*
X102621008Y-80077879D01*
X102621008Y-80077879D02*
X102587675Y-80011213D01*
X102587675Y-80011213D02*
X102521008Y-79977879D01*
X102521008Y-79977879D02*
X102354342Y-79977879D01*
X102354342Y-79977879D02*
X102287675Y-79944546D01*
X101987675Y-80211213D02*
X101921009Y-80244546D01*
X101921009Y-80244546D02*
X101787675Y-80244546D01*
X101787675Y-80244546D02*
X101721009Y-80211213D01*
X101721009Y-80211213D02*
X101687675Y-80144546D01*
X101687675Y-80144546D02*
X101687675Y-80111213D01*
X101687675Y-80111213D02*
X101721009Y-80044546D01*
X101721009Y-80044546D02*
X101787675Y-80011213D01*
X101787675Y-80011213D02*
X101887675Y-80011213D01*
X101887675Y-80011213D02*
X101954342Y-79977879D01*
X101954342Y-79977879D02*
X101987675Y-79911213D01*
X101987675Y-79911213D02*
X101987675Y-79877879D01*
X101987675Y-79877879D02*
X101954342Y-79811213D01*
X101954342Y-79811213D02*
X101887675Y-79777879D01*
X101887675Y-79777879D02*
X101787675Y-79777879D01*
X101787675Y-79777879D02*
X101721009Y-79811213D01*
X101087675Y-79777879D02*
X101087675Y-80244546D01*
X101387675Y-79777879D02*
X101387675Y-80144546D01*
X101387675Y-80144546D02*
X101354342Y-80211213D01*
X101354342Y-80211213D02*
X101287675Y-80244546D01*
X101287675Y-80244546D02*
X101187675Y-80244546D01*
X101187675Y-80244546D02*
X101121008Y-80211213D01*
X101121008Y-80211213D02*
X101087675Y-80177879D01*
X100754342Y-80244546D02*
X100754342Y-79777879D01*
X100754342Y-79911213D02*
X100721009Y-79844546D01*
X100721009Y-79844546D02*
X100687675Y-79811213D01*
X100687675Y-79811213D02*
X100621009Y-79777879D01*
X100621009Y-79777879D02*
X100554342Y-79777879D01*
X100054342Y-80211213D02*
X100121009Y-80244546D01*
X100121009Y-80244546D02*
X100254342Y-80244546D01*
X100254342Y-80244546D02*
X100321009Y-80211213D01*
X100321009Y-80211213D02*
X100354342Y-80144546D01*
X100354342Y-80144546D02*
X100354342Y-79877879D01*
X100354342Y-79877879D02*
X100321009Y-79811213D01*
X100321009Y-79811213D02*
X100254342Y-79777879D01*
X100254342Y-79777879D02*
X100121009Y-79777879D01*
X100121009Y-79777879D02*
X100054342Y-79811213D01*
X100054342Y-79811213D02*
X100021009Y-79877879D01*
X100021009Y-79877879D02*
X100021009Y-79944546D01*
X100021009Y-79944546D02*
X100354342Y-80011213D01*
X99721009Y-80244546D02*
X99721009Y-79777879D01*
X99721009Y-79844546D02*
X99687676Y-79811213D01*
X99687676Y-79811213D02*
X99621009Y-79777879D01*
X99621009Y-79777879D02*
X99521009Y-79777879D01*
X99521009Y-79777879D02*
X99454342Y-79811213D01*
X99454342Y-79811213D02*
X99421009Y-79877879D01*
X99421009Y-79877879D02*
X99421009Y-80244546D01*
X99421009Y-79877879D02*
X99387676Y-79811213D01*
X99387676Y-79811213D02*
X99321009Y-79777879D01*
X99321009Y-79777879D02*
X99221009Y-79777879D01*
X99221009Y-79777879D02*
X99154342Y-79811213D01*
X99154342Y-79811213D02*
X99121009Y-79877879D01*
X99121009Y-79877879D02*
X99121009Y-80244546D01*
X98521009Y-80211213D02*
X98587676Y-80244546D01*
X98587676Y-80244546D02*
X98721009Y-80244546D01*
X98721009Y-80244546D02*
X98787676Y-80211213D01*
X98787676Y-80211213D02*
X98821009Y-80144546D01*
X98821009Y-80144546D02*
X98821009Y-79877879D01*
X98821009Y-79877879D02*
X98787676Y-79811213D01*
X98787676Y-79811213D02*
X98721009Y-79777879D01*
X98721009Y-79777879D02*
X98587676Y-79777879D01*
X98587676Y-79777879D02*
X98521009Y-79811213D01*
X98521009Y-79811213D02*
X98487676Y-79877879D01*
X98487676Y-79877879D02*
X98487676Y-79944546D01*
X98487676Y-79944546D02*
X98821009Y-80011213D01*
X98187676Y-79777879D02*
X98187676Y-80244546D01*
X98187676Y-79844546D02*
X98154343Y-79811213D01*
X98154343Y-79811213D02*
X98087676Y-79777879D01*
X98087676Y-79777879D02*
X97987676Y-79777879D01*
X97987676Y-79777879D02*
X97921009Y-79811213D01*
X97921009Y-79811213D02*
X97887676Y-79877879D01*
X97887676Y-79877879D02*
X97887676Y-80244546D01*
X97654343Y-79777879D02*
X97387676Y-79777879D01*
X97554343Y-79544546D02*
X97554343Y-80144546D01*
X97554343Y-80144546D02*
X97521010Y-80211213D01*
X97521010Y-80211213D02*
X97454343Y-80244546D01*
X97454343Y-80244546D02*
X97387676Y-80244546D01*
X96621010Y-79544546D02*
X96621010Y-80111213D01*
X96621010Y-80111213D02*
X96587677Y-80177879D01*
X96587677Y-80177879D02*
X96554343Y-80211213D01*
X96554343Y-80211213D02*
X96487677Y-80244546D01*
X96487677Y-80244546D02*
X96354343Y-80244546D01*
X96354343Y-80244546D02*
X96287677Y-80211213D01*
X96287677Y-80211213D02*
X96254343Y-80177879D01*
X96254343Y-80177879D02*
X96221010Y-80111213D01*
X96221010Y-80111213D02*
X96221010Y-79544546D01*
X95887677Y-79777879D02*
X95887677Y-80244546D01*
X95887677Y-79844546D02*
X95854344Y-79811213D01*
X95854344Y-79811213D02*
X95787677Y-79777879D01*
X95787677Y-79777879D02*
X95687677Y-79777879D01*
X95687677Y-79777879D02*
X95621010Y-79811213D01*
X95621010Y-79811213D02*
X95587677Y-79877879D01*
X95587677Y-79877879D02*
X95587677Y-80244546D01*
X95254344Y-80244546D02*
X95254344Y-79777879D01*
X95254344Y-79544546D02*
X95287677Y-79577879D01*
X95287677Y-79577879D02*
X95254344Y-79611213D01*
X95254344Y-79611213D02*
X95221011Y-79577879D01*
X95221011Y-79577879D02*
X95254344Y-79544546D01*
X95254344Y-79544546D02*
X95254344Y-79611213D01*
X95021011Y-79777879D02*
X94754344Y-79777879D01*
X94921011Y-79544546D02*
X94921011Y-80144546D01*
X94921011Y-80144546D02*
X94887678Y-80211213D01*
X94887678Y-80211213D02*
X94821011Y-80244546D01*
X94821011Y-80244546D02*
X94754344Y-80244546D01*
D14*
%TO.C,J3*%
X121447938Y-50974000D02*
X121447938Y-51274000D01*
X121447938Y-52894000D02*
X121447938Y-53274000D01*
X121447938Y-54894000D02*
X121447938Y-55274000D01*
X121447938Y-56894000D02*
X121447938Y-57274000D01*
X121447938Y-58894000D02*
X121447938Y-59274000D01*
X121447938Y-60894000D02*
X121447938Y-61274000D01*
X121447938Y-62894000D02*
X121447938Y-63274000D01*
X121447938Y-64894000D02*
X121447938Y-65274000D01*
X121447938Y-66894000D02*
X121447938Y-67274000D01*
X121447938Y-68894000D02*
X121447938Y-69274000D01*
X121447938Y-70894000D02*
X121447938Y-71194000D01*
X125667938Y-50974000D02*
X121447938Y-50974000D01*
X125667938Y-50974000D02*
X125667938Y-51274000D01*
X125667938Y-52894000D02*
X125667938Y-53274000D01*
X125667938Y-54894000D02*
X125667938Y-55274000D01*
X125667938Y-56894000D02*
X125667938Y-57274000D01*
X125667938Y-58894000D02*
X125667938Y-59274000D01*
X125667938Y-60894000D02*
X125667938Y-61274000D01*
X125667938Y-62894000D02*
X125667938Y-63274000D01*
X125667938Y-64894000D02*
X125667938Y-65274000D01*
X125667938Y-66894000D02*
X125667938Y-67274000D01*
X125667938Y-68894000D02*
X125667938Y-69274000D01*
X125667938Y-70894000D02*
X125667938Y-71194000D01*
X125667938Y-71194000D02*
X121447938Y-71194000D01*
%TO.C,J2*%
X81057938Y-50974000D02*
X81057938Y-51274000D01*
X81057938Y-52894000D02*
X81057938Y-53274000D01*
X81057938Y-54894000D02*
X81057938Y-55274000D01*
X81057938Y-56894000D02*
X81057938Y-57274000D01*
X81057938Y-58894000D02*
X81057938Y-59274000D01*
X81057938Y-60894000D02*
X81057938Y-61274000D01*
X81057938Y-62894000D02*
X81057938Y-63274000D01*
X81057938Y-64894000D02*
X81057938Y-65274000D01*
X81057938Y-66894000D02*
X81057938Y-67274000D01*
X81057938Y-68894000D02*
X81057938Y-69274000D01*
X81057938Y-70894000D02*
X81057938Y-71194000D01*
X85277938Y-50974000D02*
X81057938Y-50974000D01*
X85277938Y-50974000D02*
X85277938Y-51274000D01*
X85277938Y-52894000D02*
X85277938Y-53274000D01*
X85277938Y-54894000D02*
X85277938Y-55274000D01*
X85277938Y-56894000D02*
X85277938Y-57274000D01*
X85277938Y-58894000D02*
X85277938Y-59274000D01*
X85277938Y-60894000D02*
X85277938Y-61274000D01*
X85277938Y-62894000D02*
X85277938Y-63274000D01*
X85277938Y-64894000D02*
X85277938Y-65274000D01*
X85277938Y-66894000D02*
X85277938Y-67274000D01*
X85277938Y-68894000D02*
X85277938Y-69274000D01*
X85277938Y-70894000D02*
X85277938Y-71194000D01*
X85277938Y-71194000D02*
X81057938Y-71194000D01*
D15*
%TO.C,SW1*%
X89628938Y-37871000D02*
X89628938Y-38314000D01*
X89628938Y-40476000D02*
X89628938Y-40919000D01*
X89628938Y-40919000D02*
X93692938Y-40919000D01*
X90454438Y-38379000D02*
X90454438Y-40411000D01*
X90454438Y-40411000D02*
X92867438Y-40411000D01*
X92867438Y-38379000D02*
X90454438Y-38379000D01*
X92867438Y-40411000D02*
X92867438Y-38379000D01*
X93692938Y-37871000D02*
X89628938Y-37871000D01*
X93692938Y-38314000D02*
X93692938Y-37871000D01*
X93692938Y-40919000D02*
X93692938Y-40476000D01*
X92291438Y-39397000D02*
G75*
G02*
X91041438Y-39397000I-625000J0D01*
G01*
X91041438Y-39397000D02*
G75*
G02*
X92291438Y-39397000I625000J0D01*
G01*
D16*
%TO.C,J1*%
X95159418Y-36234000D02*
X111549418Y-36234000D01*
X95159418Y-42584000D02*
X95159418Y-36234000D01*
X111549418Y-36234000D02*
X111549418Y-42584000D01*
X111549418Y-42584000D02*
X95159418Y-42584000D01*
%TD*%
M02*
